<svg width="446" height="458" viewBox="0 0 446 458" fill="none" xmlns="http://www.w3.org/2000/svg">
<g clip-path="url(#clip0_4190_3785)">
<path d="M242.936 50.5098C288.854 55.0781 329.664 76.9978 358.717 109.62H279C269.059 109.62 261 117.679 261 127.62V164.62C261 174.561 269.059 182.62 279 182.62H392C394.022 182.62 395.965 182.286 397.779 181.672C401.835 196.634 404 212.374 404 228.62C404 327.479 323.859 407.62 225 407.62C126.141 407.62 46 327.479 46 228.62C46 225.939 46.063 223.272 46.1797 220.62H130C139.941 220.62 148 212.561 148 202.62V180.62C148 170.679 139.941 162.62 130 162.62H58.5625C65.5196 145.091 75.1649 128.921 86.9912 114.62H226C235.941 114.62 244 106.561 244 96.6201V56.6201C244 54.4749 243.624 52.4176 242.936 50.5098Z" fill="url(#paint0_linear_4190_3785)"/>
<path d="M69.5928 373.633C71.25 359.375 83.327 348.62 97.6813 348.62C112.107 348.62 124.22 359.479 125.791 373.819L145.086 550.007C146.641 564.212 135.517 576.62 121.228 576.62H72.951C58.5982 576.62 47.4545 564.106 49.1115 549.849L69.5928 373.633Z" fill="#C4CDD5"/>
<path d="M69 469.62C80.6324 463.925 93.3203 440.788 98 423.62V576.767C88.7445 545.493 69.6507 469.263 69 469.62Z" fill="#F4F6F8"/>
<path d="M125 468.199C114.011 462.429 102.421 441.014 98 423.62V576.62C106.744 544.934 124.385 467.838 125 468.199Z" fill="#F4F6F8"/>
<ellipse cx="75.6487" cy="346.992" rx="7.53545" ry="7.37174" fill="#212B36"/>
<ellipse cx="54.5496" cy="373.53" rx="10.5496" ry="10.3204" fill="#212B36"/>
<path d="M47.0142 366.158L69.6205 342.569L83 348.62L70.6843 402.12L47.0142 366.158Z" fill="#212B36"/>
<path d="M44.1843 398.62L44 373.53L63.6843 378.62L70.6843 398.12L44.1843 398.62Z" fill="#212B36"/>
<ellipse cx="57.6846" cy="398.62" rx="13.5" ry="13" fill="#212B36"/>
<ellipse cx="7.53545" cy="7.37174" rx="7.53545" ry="7.37174" transform="matrix(-1 0 0 1 126.071 339.62)" fill="#212B36"/>
<ellipse cx="10.5496" cy="10.3204" rx="10.5496" ry="10.3204" transform="matrix(-1 0 0 1 150.184 363.21)" fill="#212B36"/>
<path d="M147.17 366.158L124.564 342.569L111.184 348.62L123.5 402.12L147.17 366.158Z" fill="#212B36"/>
<path d="M150 398.62L150.184 373.53L130.5 378.62L123.5 398.12L150 398.62Z" fill="#212B36"/>
<ellipse cx="13.5" cy="13" rx="13.5" ry="13" transform="matrix(-1 0 0 1 150 385.62)" fill="#212B36"/>
<path d="M70.879 350.557C69.8623 335.441 81.8497 322.62 97 322.62C112.15 322.62 124.138 335.441 123.121 350.557L121.125 380.231C120.278 392.832 109.63 402.62 97 402.62C84.3703 402.62 73.7223 392.832 72.8748 380.231L70.879 350.557Z" fill="#C4CDD5"/>
<circle cx="84" cy="349.62" r="3" fill="black"/>
<circle cx="110" cy="349.62" r="3" fill="black"/>
<path d="M77 370.422C82.4133 364.768 93.5778 366.379 97 369.107V377.558C91.7733 378.154 86.0222 387.148 84 390.62C83.2533 390.323 82.1333 386.541 82.1333 385.301C80.8267 385.301 79.4111 388.029 78.8667 389.393C78.3067 384.929 79.7222 379.597 80.5 377.489C79.5667 376.894 78.4 378.729 77.9333 379.721C77.1867 377.936 78.7111 374.266 79.5667 372.654C79.0067 371.166 77.6222 370.546 77 370.422Z" fill="white"/>
<path d="M117 370.468C111.727 364.757 100.333 366.368 97 369.123V377.607C102.091 378.208 107.303 387.113 109.273 390.62C110 390.32 112 386.75 112 385.498C113.273 385.498 114.652 388.253 115.182 389.631C115.727 385.122 114.348 379.736 113.591 377.607C114.5 377.006 115.636 378.86 116.091 379.862C116.818 378.058 115.333 374.351 114.5 372.723C115.045 371.22 116.394 370.593 117 370.468Z" fill="white"/>
<path d="M97 377.62V380.62C96.6667 381.953 94.8 384.62 90 384.62" stroke="black"/>
<path d="M97 377.62V380.62C97.3333 381.953 99.2 384.62 104 384.62" stroke="black"/>
<ellipse cx="97" cy="373.62" rx="6" ry="4" fill="black"/>
<g clip-path="url(#clip1_4190_3785)">
<path d="M283.26 161.06C283.028 160.572 282.692 160.196 282.252 159.932C281.812 159.66 281.3 159.524 280.716 159.524C280.132 159.524 279.604 159.66 279.132 159.932C278.668 160.196 278.3 160.58 278.028 161.084C277.764 161.58 277.632 162.156 277.632 162.812C277.632 163.468 277.764 164.044 278.028 164.54C278.3 165.036 278.668 165.42 279.132 165.692C279.604 165.956 280.132 166.088 280.716 166.088C281.532 166.088 282.204 165.844 282.732 165.356C283.26 164.868 283.568 164.208 283.656 163.376H280.32V162.488H284.82V163.328C284.756 164.016 284.54 164.648 284.172 165.224C283.804 165.792 283.32 166.244 282.72 166.58C282.12 166.908 281.452 167.072 280.716 167.072C279.94 167.072 279.232 166.892 278.592 166.532C277.952 166.164 277.444 165.656 277.068 165.008C276.7 164.36 276.516 163.628 276.516 162.812C276.516 161.996 276.7 161.264 277.068 160.616C277.444 159.96 277.952 159.452 278.592 159.092C279.232 158.724 279.94 158.54 280.716 158.54C281.604 158.54 282.388 158.76 283.068 159.2C283.756 159.64 284.256 160.26 284.568 161.06H283.26ZM292.264 163.46C292.264 163.668 292.252 163.888 292.228 164.12H286.972C287.012 164.768 287.232 165.276 287.632 165.644C288.04 166.004 288.532 166.184 289.108 166.184C289.58 166.184 289.972 166.076 290.284 165.86C290.604 165.636 290.828 165.34 290.956 164.972H292.132C291.956 165.604 291.604 166.12 291.076 166.52C290.548 166.912 289.892 167.108 289.108 167.108C288.484 167.108 287.924 166.968 287.428 166.688C286.94 166.408 286.556 166.012 286.276 165.5C285.996 164.98 285.856 164.38 285.856 163.7C285.856 163.02 285.992 162.424 286.264 161.912C286.536 161.4 286.916 161.008 287.404 160.736C287.9 160.456 288.468 160.316 289.108 160.316C289.732 160.316 290.284 160.452 290.764 160.724C291.244 160.996 291.612 161.372 291.868 161.852C292.132 162.324 292.264 162.86 292.264 163.46ZM291.136 163.232C291.136 162.816 291.044 162.46 290.86 162.164C290.676 161.86 290.424 161.632 290.104 161.48C289.792 161.32 289.444 161.24 289.06 161.24C288.508 161.24 288.036 161.416 287.644 161.768C287.26 162.12 287.04 162.608 286.984 163.232H291.136ZM296.909 160.304C297.709 160.304 298.357 160.548 298.853 161.036C299.349 161.516 299.597 162.212 299.597 163.124V167H298.517V163.28C298.517 162.624 298.353 162.124 298.025 161.78C297.697 161.428 297.249 161.252 296.681 161.252C296.105 161.252 295.645 161.432 295.301 161.792C294.965 162.152 294.797 162.676 294.797 163.364V167H293.705V160.424H294.797V161.36C295.013 161.024 295.305 160.764 295.673 160.58C296.049 160.396 296.461 160.304 296.909 160.304ZM307.381 163.46C307.381 163.668 307.369 163.888 307.345 164.12H302.089C302.129 164.768 302.349 165.276 302.749 165.644C303.157 166.004 303.649 166.184 304.225 166.184C304.697 166.184 305.089 166.076 305.401 165.86C305.721 165.636 305.945 165.34 306.073 164.972H307.249C307.073 165.604 306.721 166.12 306.193 166.52C305.665 166.912 305.009 167.108 304.225 167.108C303.601 167.108 303.041 166.968 302.545 166.688C302.057 166.408 301.673 166.012 301.393 165.5C301.113 164.98 300.973 164.38 300.973 163.7C300.973 163.02 301.109 162.424 301.381 161.912C301.653 161.4 302.033 161.008 302.521 160.736C303.017 160.456 303.585 160.316 304.225 160.316C304.849 160.316 305.401 160.452 305.881 160.724C306.361 160.996 306.729 161.372 306.985 161.852C307.249 162.324 307.381 162.86 307.381 163.46ZM306.253 163.232C306.253 162.816 306.161 162.46 305.977 162.164C305.793 161.86 305.541 161.632 305.221 161.48C304.909 161.32 304.561 161.24 304.177 161.24C303.625 161.24 303.153 161.416 302.761 161.768C302.377 162.12 302.157 162.608 302.101 163.232H306.253ZM309.914 161.492C310.106 161.116 310.378 160.824 310.73 160.616C311.09 160.408 311.526 160.304 312.038 160.304V161.432H311.75C310.526 161.432 309.914 162.096 309.914 163.424V167H308.822V160.424H309.914V161.492ZM312.891 163.688C312.891 163.016 313.027 162.428 313.299 161.924C313.571 161.412 313.943 161.016 314.415 160.736C314.895 160.456 315.427 160.316 316.011 160.316C316.587 160.316 317.087 160.44 317.511 160.688C317.935 160.936 318.251 161.248 318.459 161.624V160.424H319.563V167H318.459V165.776C318.243 166.16 317.919 166.48 317.487 166.736C317.063 166.984 316.567 167.108 315.999 167.108C315.415 167.108 314.887 166.964 314.415 166.676C313.943 166.388 313.571 165.984 313.299 165.464C313.027 164.944 312.891 164.352 312.891 163.688ZM318.459 163.7C318.459 163.204 318.359 162.772 318.159 162.404C317.959 162.036 317.687 161.756 317.343 161.564C317.007 161.364 316.635 161.264 316.227 161.264C315.819 161.264 315.447 161.36 315.111 161.552C314.775 161.744 314.507 162.024 314.307 162.392C314.107 162.76 314.007 163.192 314.007 163.688C314.007 164.192 314.107 164.632 314.307 165.008C314.507 165.376 314.775 165.66 315.111 165.86C315.447 166.052 315.819 166.148 316.227 166.148C316.635 166.148 317.007 166.052 317.343 165.86C317.687 165.66 317.959 165.376 318.159 165.008C318.359 164.632 318.459 164.196 318.459 163.7ZM322.74 161.324V165.2C322.74 165.52 322.808 165.748 322.944 165.884C323.08 166.012 323.316 166.076 323.652 166.076H324.456V167H323.472C322.864 167 322.408 166.86 322.104 166.58C321.8 166.3 321.648 165.84 321.648 165.2V161.324H320.796V160.424H321.648V158.768H322.74V160.424H324.456V161.324H322.74ZM326.343 159.356C326.135 159.356 325.959 159.284 325.815 159.14C325.671 158.996 325.599 158.82 325.599 158.612C325.599 158.404 325.671 158.228 325.815 158.084C325.959 157.94 326.135 157.868 326.343 157.868C326.543 157.868 326.711 157.94 326.847 158.084C326.991 158.228 327.063 158.404 327.063 158.612C327.063 158.82 326.991 158.996 326.847 159.14C326.711 159.284 326.543 159.356 326.343 159.356ZM326.871 160.424V167H325.779V160.424H326.871ZM331.181 165.992L333.221 160.424H334.385L331.805 167H330.533L327.953 160.424H329.129L331.181 165.992ZM341.459 163.46C341.459 163.668 341.447 163.888 341.423 164.12H336.167C336.207 164.768 336.427 165.276 336.827 165.644C337.235 166.004 337.727 166.184 338.303 166.184C338.775 166.184 339.167 166.076 339.479 165.86C339.799 165.636 340.023 165.34 340.151 164.972H341.327C341.151 165.604 340.799 166.12 340.271 166.52C339.743 166.912 339.087 167.108 338.303 167.108C337.679 167.108 337.119 166.968 336.623 166.688C336.135 166.408 335.751 166.012 335.471 165.5C335.191 164.98 335.051 164.38 335.051 163.7C335.051 163.02 335.187 162.424 335.459 161.912C335.731 161.4 336.111 161.008 336.599 160.736C337.095 160.456 337.663 160.316 338.303 160.316C338.927 160.316 339.479 160.452 339.959 160.724C340.439 160.996 340.807 161.372 341.063 161.852C341.327 162.324 341.459 162.86 341.459 163.46ZM340.331 163.232C340.331 162.816 340.239 162.46 340.055 162.164C339.871 161.86 339.619 161.632 339.299 161.48C338.987 161.32 338.639 161.24 338.255 161.24C337.703 161.24 337.231 161.416 336.839 161.768C336.455 162.12 336.235 162.608 336.179 163.232H340.331ZM351.044 165.14H347.396L346.724 167H345.572L348.596 158.684H349.856L352.868 167H351.716L351.044 165.14ZM350.732 164.252L349.22 160.028L347.708 164.252H350.732ZM355.278 158.636V167H354.186V158.636H355.278ZM364.526 162.692C364.83 162.74 365.106 162.864 365.354 163.064C365.61 163.264 365.81 163.512 365.954 163.808C366.106 164.104 366.182 164.42 366.182 164.756C366.182 165.18 366.074 165.564 365.858 165.908C365.642 166.244 365.326 166.512 364.91 166.712C364.502 166.904 364.018 167 363.458 167H360.338V158.636H363.338C363.906 158.636 364.39 158.732 364.79 158.924C365.19 159.108 365.49 159.36 365.69 159.68C365.89 160 365.99 160.36 365.99 160.76C365.99 161.256 365.854 161.668 365.582 161.996C365.318 162.316 364.966 162.548 364.526 162.692ZM361.43 162.248H363.266C363.778 162.248 364.174 162.128 364.454 161.888C364.734 161.648 364.874 161.316 364.874 160.892C364.874 160.468 364.734 160.136 364.454 159.896C364.174 159.656 363.77 159.536 363.242 159.536H361.43V162.248ZM363.362 166.1C363.906 166.1 364.33 165.972 364.634 165.716C364.938 165.46 365.09 165.104 365.09 164.648C365.09 164.184 364.93 163.82 364.61 163.556C364.29 163.284 363.862 163.148 363.326 163.148H361.43V166.1H363.362ZM373.529 160.424V167H372.437V166.028C372.229 166.364 371.937 166.628 371.561 166.82C371.193 167.004 370.785 167.096 370.337 167.096C369.825 167.096 369.365 166.992 368.957 166.784C368.549 166.568 368.225 166.248 367.985 165.824C367.753 165.4 367.637 164.884 367.637 164.276V160.424H368.717V164.132C368.717 164.78 368.881 165.28 369.209 165.632C369.537 165.976 369.985 166.148 370.553 166.148C371.137 166.148 371.597 165.968 371.933 165.608C372.269 165.248 372.437 164.724 372.437 164.036V160.424H373.529ZM375.937 159.356C375.729 159.356 375.553 159.284 375.409 159.14C375.265 158.996 375.193 158.82 375.193 158.612C375.193 158.404 375.265 158.228 375.409 158.084C375.553 157.94 375.729 157.868 375.937 157.868C376.137 157.868 376.305 157.94 376.441 158.084C376.585 158.228 376.657 158.404 376.657 158.612C376.657 158.82 376.585 158.996 376.441 159.14C376.305 159.284 376.137 159.356 375.937 159.356ZM376.465 160.424V167H375.373V160.424H376.465ZM379.418 158.12V167H378.326V158.12H379.418ZM382.611 161.324V165.2C382.611 165.52 382.679 165.748 382.815 165.884C382.951 166.012 383.187 166.076 383.523 166.076H384.327V167H383.343C382.735 167 382.279 166.86 381.975 166.58C381.671 166.3 381.519 165.84 381.519 165.2V161.324H380.667V160.424H381.519V158.768H382.611V160.424H384.327V161.324H382.611ZM390.211 162.14V163.064H385.423V162.14H390.211ZM392.824 159.356C392.616 159.356 392.44 159.284 392.296 159.14C392.152 158.996 392.08 158.82 392.08 158.612C392.08 158.404 392.152 158.228 392.296 158.084C392.44 157.94 392.616 157.868 392.824 157.868C393.024 157.868 393.192 157.94 393.328 158.084C393.472 158.228 393.544 158.404 393.544 158.612C393.544 158.82 393.472 158.996 393.328 159.14C393.192 159.284 393.024 159.356 392.824 159.356ZM393.352 160.424V167H392.26V160.424H393.352ZM398.417 160.304C399.217 160.304 399.865 160.548 400.361 161.036C400.857 161.516 401.105 162.212 401.105 163.124V167H400.025V163.28C400.025 162.624 399.861 162.124 399.533 161.78C399.205 161.428 398.757 161.252 398.189 161.252C397.613 161.252 397.153 161.432 396.809 161.792C396.473 162.152 396.305 162.676 396.305 163.364V167H395.213V160.424H396.305V161.36C396.521 161.024 396.813 160.764 397.181 160.58C397.557 160.396 397.969 160.304 398.417 160.304Z" fill="#637381"/>
<g filter="url(#filter0_dd_4190_3785)">
<rect x="275" y="121.62" width="22" height="23" rx="11" fill="#707881" shape-rendering="crispEdges"/>
<circle cx="286" cy="133.12" r="8" fill="#707881"/>
<path d="M290.516 131.259C290.389 131.196 290.25 131.127 290.208 131.112C290.814 132.375 290.226 133.122 290.226 133.122L290.174 132.823C289.956 131.668 289.051 130.943 287.931 130.943C287.561 130.943 287.187 131.029 286.849 131.192L286.371 131.424L286.64 130.965C286.715 130.834 286.8 130.718 286.881 130.63C286.992 130.493 287.144 130.364 287.324 130.253C287.698 129.996 288.165 129.856 288.668 129.856C289.108 129.856 289.528 129.961 289.872 130.136C290.351 130.378 290.674 130.851 290.758 131.382C290.758 131.382 290.642 131.324 290.516 131.259V131.259Z" fill="white"/>
<path d="M294 133.122C294 135.81 292.673 138.189 290.639 139.639C289.495 137.665 290.639 135.667 290.639 135.667L291.109 136.666C291.991 135.553 292.824 133.857 292.454 131.631C292.264 130.485 291.675 129.501 290.701 128.706C290.059 128.179 289.301 127.912 288.448 127.912C287.521 127.912 286.673 128.221 286.118 128.452L286 128.502L285.881 128.452C285.325 128.221 284.478 127.912 283.55 127.912C282.699 127.912 281.942 128.179 281.297 128.706C280.324 129.501 279.734 130.485 279.545 131.631C279.175 133.857 280.008 135.553 280.891 136.666L281.359 135.667C281.359 135.667 282.503 137.665 281.359 139.639C279.325 138.189 278 135.81 278 133.122C278 128.703 281.58 125.12 285.999 125.12C290.418 125.12 294 128.703 294 133.122Z" fill="white"/>
<path d="M285.626 131.424L285.15 131.192C284.811 131.029 284.438 130.943 284.067 130.943C282.949 130.943 282.042 131.668 281.824 132.823L281.772 133.122C281.772 133.122 281.184 132.375 281.792 131.112C281.75 131.127 281.612 131.196 281.484 131.259C281.357 131.324 281.239 131.383 281.239 131.383C281.325 130.852 281.645 130.379 282.126 130.136C282.47 129.962 282.891 129.857 283.33 129.857C283.833 129.857 284.299 129.996 284.674 130.254C284.856 130.365 285.007 130.493 285.12 130.631C285.198 130.718 285.281 130.834 285.361 130.966L285.625 131.424L285.626 131.424Z" fill="white"/>
<path d="M289.171 135.31L289.009 137.363L288.491 137.027C288.486 137.022 288.48 137.019 288.473 137.014L288.186 136.827L287.889 136.634L287.134 136.142C286.653 135.826 286.36 135.273 286.36 134.673V134.299C286.591 134.196 286.75 133.999 286.75 133.771C286.75 133.554 286.61 133.365 286.401 133.26C286.383 133.252 286.367 133.244 286.35 133.237C286.247 133.193 286.127 133.167 286 133.167C285.873 133.167 285.752 133.193 285.649 133.237C285.631 133.244 285.615 133.252 285.6 133.26C285.388 133.366 285.249 133.555 285.249 133.771C285.249 133.999 285.408 134.196 285.639 134.299V134.673C285.639 135.273 285.346 135.826 284.865 136.142L284.111 136.634L283.814 136.827L283.526 137.014C283.52 137.019 283.515 137.022 283.508 137.027L282.99 137.363L282.829 135.31C282.819 134.815 282.918 134.352 283.116 133.944C283.116 133.941 283.118 133.939 283.118 133.939C283.295 133.577 283.548 133.258 283.881 132.997C284.543 132.476 285.323 132.391 286 132.554C286.676 132.392 287.456 132.476 288.118 132.997C288.451 133.258 288.705 133.577 288.882 133.939C288.882 133.939 288.884 133.941 288.884 133.944C289.082 134.352 289.18 134.815 289.172 135.31H289.171Z" fill="white"/>
</g>
<g filter="url(#filter1_dd_4190_3785)">
<path d="M304.5 132.12L310.5 127.79V136.45L304.5 132.12Z" fill="white"/>
<rect x="309.5" y="120.62" width="68" height="23" rx="11.5" fill="white"/>
<path opacity="0.24" d="M326.5 134.62C327.881 134.62 329 133.501 329 132.12C329 130.739 327.881 129.62 326.5 129.62C325.119 129.62 324 130.739 324 132.12C324 133.501 325.119 134.62 326.5 134.62Z" fill="#919EAB"/>
<path d="M337.5 134.62C338.881 134.62 340 133.501 340 132.12C340 130.739 338.881 129.62 337.5 129.62C336.119 129.62 335 130.739 335 132.12C335 133.501 336.119 134.62 337.5 134.62Z" fill="#919EAB"/>
<path opacity="0.24" d="M348.5 134.62C349.881 134.62 351 133.501 351 132.12C351 130.739 349.881 129.62 348.5 129.62C347.119 129.62 346 130.739 346 132.12C346 133.501 347.119 134.62 348.5 134.62Z" fill="#919EAB"/>
<path opacity="0.24" d="M359.5 134.62C360.881 134.62 362 133.501 362 132.12C362 130.739 360.881 129.62 359.5 129.62C358.119 129.62 357 130.739 357 132.12C357 133.501 358.119 134.62 359.5 134.62Z" fill="#919EAB"/>
</g>
</g>
<path d="M265 129.62C265 120.784 272.163 113.62 281 113.62H407C415.837 113.62 423 120.784 423 129.62V162.62C423 171.457 415.837 178.62 407 178.62H281C272.163 178.62 265 171.457 265 162.62V129.62Z" stroke="#DFE3E8" stroke-linecap="round" stroke-dasharray="4 4"/>
<g clip-path="url(#clip2_4190_3785)">
<rect x="83" y="51.6201" width="24" height="24" rx="12" fill="#DFE3E8"/>
<path d="M99.7033 57.9768C98.59 57.0501 97.21 56.4435 95.6833 56.3035V57.6435C96.8367 57.7701 97.89 58.2301 98.7567 58.9235L99.7033 57.9768Z" fill="#637381"/>
<path d="M94.35 57.6435V56.3035C92.8233 56.4368 91.4433 57.0501 90.33 57.9768L91.2767 58.9235C92.1433 58.2301 93.1967 57.7701 94.35 57.6435Z" fill="#637381"/>
<path d="M90.3367 59.8635L89.39 58.9168C88.4633 60.0301 87.8567 61.4101 87.7167 62.9368H89.0567C89.1833 61.7835 89.6433 60.7301 90.3367 59.8635Z" fill="#637381"/>
<path d="M100.977 62.9368H102.317C102.177 61.4101 101.57 60.0301 100.643 58.9168L99.6967 59.8635C100.39 60.7301 100.85 61.7835 100.977 62.9368Z" fill="#637381"/>
<path d="M91.6833 63.6035L93.9767 64.6435L95.0167 66.9368L96.0567 64.6435L98.35 63.6035L96.0567 62.5635L95.0167 60.2701L93.9767 62.5635L91.6833 63.6035Z" fill="#637381"/>
<path d="M95.0167 69.6035C92.9433 69.6035 91.1167 68.5435 90.0433 66.9368H91.6833V65.6035H87.6833V69.6035H89.0167V67.8035C90.3433 69.6968 92.53 70.9368 95.0167 70.9368C98.2633 70.9368 101.017 68.8235 101.977 65.8968L100.67 65.5968C99.85 67.9235 97.63 69.6035 95.0167 69.6035Z" fill="#637381"/>
<path d="M83.456 87.9401V86.9441H85.712V95.6201H84.608V87.9401H83.456ZM87.5878 91.1921C87.5878 89.8161 87.8118 88.7441 88.2598 87.9761C88.7078 87.2001 89.4918 86.8121 90.6118 86.8121C91.7238 86.8121 92.5038 87.2001 92.9518 87.9761C93.3997 88.7441 93.6237 89.8161 93.6237 91.1921C93.6237 92.5921 93.3997 93.6801 92.9518 94.4561C92.5038 95.2321 91.7238 95.6201 90.6118 95.6201C89.4918 95.6201 88.7078 95.2321 88.2598 94.4561C87.8118 93.6801 87.5878 92.5921 87.5878 91.1921ZM92.5438 91.1921C92.5438 90.4961 92.4958 89.9081 92.3998 89.4281C92.3118 88.9401 92.1238 88.5481 91.8358 88.2521C91.5558 87.9561 91.1478 87.8081 90.6118 87.8081C90.0678 87.8081 89.6518 87.9561 89.3638 88.2521C89.0838 88.5481 88.8958 88.9401 88.7998 89.4281C88.7118 89.9081 88.6678 90.4961 88.6678 91.1921C88.6678 91.9121 88.7118 92.5161 88.7998 93.0041C88.8958 93.4921 89.0838 93.8841 89.3638 94.1801C89.6518 94.4761 90.0678 94.6241 90.6118 94.6241C91.1478 94.6241 91.5558 94.4761 91.8358 94.1801C92.1238 93.8841 92.3118 93.4921 92.3998 93.0041C92.4958 92.5161 92.5438 91.9121 92.5438 91.1921ZM95.1229 91.1921C95.1229 89.8161 95.3469 88.7441 95.7949 87.9761C96.2429 87.2001 97.0269 86.8121 98.1469 86.8121C99.2589 86.8121 100.039 87.2001 100.487 87.9761C100.935 88.7441 101.159 89.8161 101.159 91.1921C101.159 92.5921 100.935 93.6801 100.487 94.4561C100.039 95.2321 99.2589 95.6201 98.1469 95.6201C97.0269 95.6201 96.2429 95.2321 95.7949 94.4561C95.3469 93.6801 95.1229 92.5921 95.1229 91.1921ZM100.079 91.1921C100.079 90.4961 100.031 89.9081 99.9349 89.4281C99.8469 88.9401 99.6589 88.5481 99.3709 88.2521C99.0909 87.9561 98.6829 87.8081 98.1469 87.8081C97.6029 87.8081 97.1869 87.9561 96.8989 88.2521C96.6189 88.5481 96.4309 88.9401 96.3349 89.4281C96.2469 89.9081 96.2029 90.4961 96.2029 91.1921C96.2029 91.9121 96.2469 92.5161 96.3349 93.0041C96.4309 93.4921 96.6189 93.8841 96.8989 94.1801C97.1869 94.4761 97.6029 94.6241 98.1469 94.6241C98.6829 94.6241 99.0909 94.4761 99.3709 94.1801C99.6589 93.8841 99.8469 93.4921 99.9349 93.0041C100.031 92.5161 100.079 91.9121 100.079 91.1921ZM109.078 91.6961H106.522V94.2881H105.502V91.6961H102.958V90.7721H105.502V88.1681H106.522V90.7721H109.078V91.6961ZM119.821 89.7041C119.821 90.4001 119.581 90.9801 119.101 91.4441C118.629 91.9001 117.905 92.1281 116.929 92.1281H115.321V95.6201H114.229V87.2561H116.929C117.873 87.2561 118.589 87.4841 119.077 87.9401C119.573 88.3961 119.821 88.9841 119.821 89.7041ZM116.929 91.2281C117.537 91.2281 117.985 91.0961 118.273 90.8321C118.561 90.5681 118.705 90.1921 118.705 89.7041C118.705 88.6721 118.113 88.1561 116.929 88.1561H115.321V91.2281H116.929ZM122.27 90.1121C122.462 89.7361 122.734 89.4441 123.086 89.2361C123.446 89.0281 123.882 88.9241 124.394 88.9241V90.0521H124.106C122.882 90.0521 122.27 90.7161 122.27 92.0441V95.6201H121.178V89.0441H122.27V90.1121ZM131.654 92.0801C131.654 92.2881 131.642 92.5081 131.618 92.7401H126.362C126.402 93.3881 126.622 93.8961 127.022 94.2641C127.43 94.6241 127.922 94.8041 128.498 94.8041C128.97 94.8041 129.362 94.6961 129.674 94.4801C129.994 94.2561 130.218 93.9601 130.346 93.5921H131.522C131.346 94.2241 130.994 94.7401 130.466 95.1401C129.938 95.5321 129.282 95.7281 128.498 95.7281C127.874 95.7281 127.314 95.5881 126.818 95.3081C126.33 95.0281 125.946 94.6321 125.666 94.1201C125.386 93.6001 125.246 93.0001 125.246 92.3201C125.246 91.6401 125.382 91.0441 125.654 90.5321C125.926 90.0201 126.306 89.6281 126.794 89.3561C127.29 89.0761 127.858 88.9361 128.498 88.9361C129.122 88.9361 129.674 89.0721 130.154 89.3441C130.634 89.6161 131.002 89.9921 131.258 90.4721C131.522 90.9441 131.654 91.4801 131.654 92.0801ZM130.526 91.8521C130.526 91.4361 130.434 91.0801 130.25 90.7841C130.066 90.4801 129.814 90.2521 129.494 90.1001C129.182 89.9401 128.834 89.8601 128.45 89.8601C127.898 89.8601 127.426 90.0361 127.034 90.3881C126.65 90.7401 126.43 91.2281 126.374 91.8521H130.526ZM137.656 90.7601V91.6841H132.868V90.7601H137.656ZM143.893 91.3121C144.197 91.3601 144.473 91.4841 144.721 91.6841C144.977 91.8841 145.177 92.1321 145.321 92.4281C145.473 92.7241 145.549 93.0401 145.549 93.3761C145.549 93.8001 145.441 94.1841 145.225 94.5281C145.009 94.8641 144.693 95.1321 144.277 95.3321C143.869 95.5241 143.385 95.6201 142.825 95.6201H139.705V87.2561H142.705C143.273 87.2561 143.757 87.3521 144.157 87.5441C144.557 87.7281 144.857 87.9801 145.057 88.3001C145.257 88.6201 145.357 88.9801 145.357 89.3801C145.357 89.8761 145.221 90.2881 144.949 90.6161C144.685 90.9361 144.333 91.1681 143.893 91.3121ZM140.797 90.8681H142.633C143.145 90.8681 143.541 90.7481 143.821 90.5081C144.101 90.2681 144.241 89.9361 144.241 89.5121C144.241 89.0881 144.101 88.7561 143.821 88.5161C143.541 88.2761 143.137 88.1561 142.609 88.1561H140.797V90.8681ZM142.729 94.7201C143.273 94.7201 143.697 94.5921 144.001 94.3361C144.305 94.0801 144.457 93.7241 144.457 93.2681C144.457 92.8041 144.297 92.4401 143.977 92.1761C143.657 91.9041 143.229 91.7681 142.693 91.7681H140.797V94.7201H142.729ZM152.897 89.0441V95.6201H151.805V94.6481C151.597 94.9841 151.305 95.2481 150.929 95.4401C150.561 95.6241 150.153 95.7161 149.705 95.7161C149.193 95.7161 148.733 95.6121 148.325 95.4041C147.917 95.1881 147.593 94.8681 147.353 94.4441C147.121 94.0201 147.005 93.5041 147.005 92.8961V89.0441H148.085V92.7521C148.085 93.4001 148.249 93.9001 148.577 94.2521C148.905 94.5961 149.353 94.7681 149.921 94.7681C150.505 94.7681 150.965 94.5881 151.301 94.2281C151.637 93.8681 151.805 93.3441 151.805 92.6561V89.0441H152.897ZM155.304 87.9761C155.096 87.9761 154.92 87.9041 154.776 87.7601C154.632 87.6161 154.56 87.4401 154.56 87.2321C154.56 87.0241 154.632 86.8481 154.776 86.7041C154.92 86.5601 155.096 86.4881 155.304 86.4881C155.504 86.4881 155.672 86.5601 155.808 86.7041C155.952 86.8481 156.024 87.0241 156.024 87.2321C156.024 87.4401 155.952 87.6161 155.808 87.7601C155.672 87.9041 155.504 87.9761 155.304 87.9761ZM155.832 89.0441V95.6201H154.74V89.0441H155.832ZM158.786 86.7401V95.6201H157.694V86.7401H158.786ZM161.979 89.9441V93.8201C161.979 94.1401 162.047 94.3681 162.183 94.5041C162.319 94.6321 162.555 94.6961 162.891 94.6961H163.695V95.6201H162.711C162.103 95.6201 161.647 95.4801 161.343 95.2001C161.039 94.9201 160.887 94.4601 160.887 93.8201V89.9441H160.035V89.0441H160.887V87.3881H161.979V89.0441H163.695V89.9441H161.979ZM170.869 95.7041C170.317 95.7041 169.821 95.6081 169.381 95.4161C168.949 95.2161 168.609 94.9441 168.361 94.6001C168.113 94.2481 167.985 93.8441 167.977 93.3881H169.141C169.181 93.7801 169.341 94.1121 169.621 94.3841C169.909 94.6481 170.325 94.7801 170.869 94.7801C171.389 94.7801 171.797 94.6521 172.093 94.3961C172.397 94.1321 172.549 93.7961 172.549 93.3881C172.549 93.0681 172.461 92.8081 172.285 92.6081C172.109 92.4081 171.889 92.2561 171.625 92.1521C171.361 92.0481 171.005 91.9361 170.557 91.8161C170.005 91.6721 169.561 91.5281 169.225 91.3841C168.897 91.2401 168.613 91.0161 168.373 90.7121C168.141 90.4001 168.025 89.9841 168.025 89.4641C168.025 89.0081 168.141 88.6041 168.373 88.2521C168.605 87.9001 168.929 87.6281 169.345 87.4361C169.769 87.2441 170.253 87.1481 170.797 87.1481C171.581 87.1481 172.221 87.3441 172.717 87.7361C173.221 88.1281 173.505 88.6481 173.569 89.2961H172.369C172.329 88.9761 172.161 88.6961 171.865 88.4561C171.569 88.2081 171.177 88.0841 170.689 88.0841C170.233 88.0841 169.861 88.2041 169.573 88.4441C169.285 88.6761 169.141 89.0041 169.141 89.4281C169.141 89.7321 169.225 89.9801 169.393 90.1721C169.569 90.3641 169.781 90.5121 170.029 90.6161C170.285 90.7121 170.641 90.8241 171.097 90.9521C171.649 91.1041 172.093 91.2561 172.429 91.4081C172.765 91.5521 173.053 91.7801 173.293 92.0921C173.533 92.3961 173.653 92.8121 173.653 93.3401C173.653 93.7481 173.545 94.1321 173.329 94.4921C173.113 94.8521 172.793 95.1441 172.369 95.3681C171.945 95.5921 171.445 95.7041 170.869 95.7041ZM181.26 92.0801C181.26 92.2881 181.248 92.5081 181.224 92.7401H175.968C176.008 93.3881 176.228 93.8961 176.628 94.2641C177.036 94.6241 177.528 94.8041 178.104 94.8041C178.576 94.8041 178.968 94.6961 179.28 94.4801C179.6 94.2561 179.824 93.9601 179.952 93.5921H181.128C180.952 94.2241 180.6 94.7401 180.072 95.1401C179.544 95.5321 178.888 95.7281 178.104 95.7281C177.48 95.7281 176.92 95.5881 176.424 95.3081C175.936 95.0281 175.552 94.6321 175.272 94.1201C174.992 93.6001 174.852 93.0001 174.852 92.3201C174.852 91.6401 174.988 91.0441 175.26 90.5321C175.532 90.0201 175.912 89.6281 176.4 89.3561C176.896 89.0761 177.464 88.9361 178.104 88.9361C178.728 88.9361 179.28 89.0721 179.76 89.3441C180.24 89.6161 180.608 89.9921 180.864 90.4721C181.128 90.9441 181.26 91.4801 181.26 92.0801ZM180.132 91.8521C180.132 91.4361 180.04 91.0801 179.856 90.7841C179.672 90.4801 179.42 90.2521 179.1 90.1001C178.788 89.9401 178.44 89.8601 178.056 89.8601C177.504 89.8601 177.032 90.0361 176.64 90.3881C176.256 90.7401 176.036 91.2281 175.98 91.8521H180.132ZM183.793 90.1121C183.985 89.7361 184.257 89.4441 184.609 89.2361C184.969 89.0281 185.405 88.9241 185.917 88.9241V90.0521H185.629C184.405 90.0521 183.793 90.7161 183.793 92.0441V95.6201H182.701V89.0441H183.793V90.1121ZM189.626 94.6121L191.666 89.0441H192.83L190.25 95.6201H188.978L186.398 89.0441H187.574L189.626 94.6121ZM194.468 87.9761C194.26 87.9761 194.084 87.9041 193.94 87.7601C193.796 87.6161 193.724 87.4401 193.724 87.2321C193.724 87.0241 193.796 86.8481 193.94 86.7041C194.084 86.5601 194.26 86.4881 194.468 86.4881C194.668 86.4881 194.836 86.5601 194.972 86.7041C195.116 86.8481 195.188 87.0241 195.188 87.2321C195.188 87.4401 195.116 87.6161 194.972 87.7601C194.836 87.9041 194.668 87.9761 194.468 87.9761ZM194.996 89.0441V95.6201H193.904V89.0441H194.996ZM196.45 92.3201C196.45 91.6401 196.586 91.0481 196.858 90.5441C197.13 90.0321 197.506 89.6361 197.986 89.3561C198.474 89.0761 199.03 88.9361 199.654 88.9361C200.462 88.9361 201.126 89.1321 201.646 89.5241C202.174 89.9161 202.522 90.4601 202.69 91.1561H201.514C201.402 90.7561 201.182 90.4401 200.854 90.2081C200.534 89.9761 200.134 89.8601 199.654 89.8601C199.03 89.8601 198.526 90.0761 198.142 90.5081C197.758 90.9321 197.566 91.5361 197.566 92.3201C197.566 93.1121 197.758 93.7241 198.142 94.1561C198.526 94.5881 199.03 94.8041 199.654 94.8041C200.134 94.8041 200.534 94.6921 200.854 94.4681C201.174 94.2441 201.394 93.9241 201.514 93.5081H202.69C202.514 94.1801 202.162 94.7201 201.634 95.1281C201.106 95.5281 200.446 95.7281 199.654 95.7281C199.03 95.7281 198.474 95.5881 197.986 95.3081C197.506 95.0281 197.13 94.6321 196.858 94.1201C196.586 93.6081 196.45 93.0081 196.45 92.3201ZM210.147 92.0801C210.147 92.2881 210.135 92.5081 210.111 92.7401H204.855C204.895 93.3881 205.115 93.8961 205.515 94.2641C205.923 94.6241 206.415 94.8041 206.991 94.8041C207.463 94.8041 207.855 94.6961 208.167 94.4801C208.487 94.2561 208.711 93.9601 208.839 93.5921H210.015C209.839 94.2241 209.487 94.7401 208.959 95.1401C208.431 95.5321 207.775 95.7281 206.991 95.7281C206.367 95.7281 205.807 95.5881 205.311 95.3081C204.823 95.0281 204.439 94.6321 204.159 94.1201C203.879 93.6001 203.739 93.0001 203.739 92.3201C203.739 91.6401 203.875 91.0441 204.147 90.5321C204.419 90.0201 204.799 89.6281 205.287 89.3561C205.783 89.0761 206.351 88.9361 206.991 88.9361C207.615 88.9361 208.167 89.0721 208.647 89.3441C209.127 89.6161 209.495 89.9921 209.751 90.4721C210.015 90.9441 210.147 91.4801 210.147 92.0801ZM209.019 91.8521C209.019 91.4361 208.927 91.0801 208.743 90.7841C208.559 90.4801 208.307 90.2521 207.987 90.1001C207.675 89.9401 207.327 89.8601 206.943 89.8601C206.391 89.8601 205.919 90.0361 205.527 90.3881C205.143 90.7401 204.923 91.2281 204.867 91.8521H209.019ZM213.916 95.7281C213.412 95.7281 212.96 95.6441 212.56 95.4761C212.16 95.3001 211.844 95.0601 211.612 94.7561C211.38 94.4441 211.252 94.0881 211.228 93.6881H212.356C212.388 94.0161 212.54 94.2841 212.812 94.4921C213.092 94.7001 213.456 94.8041 213.904 94.8041C214.32 94.8041 214.648 94.7121 214.888 94.5281C215.128 94.3441 215.248 94.1121 215.248 93.8321C215.248 93.5441 215.12 93.3321 214.864 93.1961C214.608 93.0521 214.212 92.9121 213.676 92.7761C213.188 92.6481 212.788 92.5201 212.476 92.3921C212.172 92.2561 211.908 92.0601 211.684 91.8041C211.468 91.5401 211.36 91.1961 211.36 90.7721C211.36 90.4361 211.46 90.1281 211.66 89.8481C211.86 89.5681 212.144 89.3481 212.512 89.1881C212.88 89.0201 213.3 88.9361 213.772 88.9361C214.5 88.9361 215.088 89.1201 215.536 89.4881C215.984 89.8561 216.224 90.3601 216.256 91.0001H215.164C215.14 90.6561 215 90.3801 214.744 90.1721C214.496 89.9641 214.16 89.8601 213.736 89.8601C213.344 89.8601 213.032 89.9441 212.8 90.1121C212.568 90.2801 212.452 90.5001 212.452 90.7721C212.452 90.9881 212.52 91.1681 212.656 91.3121C212.8 91.4481 212.976 91.5601 213.184 91.6481C213.4 91.7281 213.696 91.8201 214.072 91.9241C214.544 92.0521 214.928 92.1801 215.224 92.3081C215.52 92.4281 215.772 92.6121 215.98 92.8601C216.196 93.1081 216.308 93.4321 216.316 93.8321C216.316 94.1921 216.216 94.5161 216.016 94.8041C215.816 95.0921 215.532 95.3201 215.164 95.4881C214.804 95.6481 214.388 95.7281 213.916 95.7281Z" fill="#637381"/>
<g filter="url(#filter2_dd_4190_3785)">
<rect x="112" y="51.6201" width="121" height="23" rx="11.5" fill="white" shape-rendering="crispEdges"/>
<rect x="120" y="56.1201" width="84" height="4" rx="2" fill="#DFE3E8"/>
<rect x="120" y="61.1201" width="67" height="4" rx="2" fill="#F4F6F8"/>
<rect x="120" y="66.1201" width="52" height="4" rx="2" fill="#F9FAFB"/>
<path fill-rule="evenodd" clip-rule="evenodd" d="M212.917 61.6201C212.917 59.0888 214.969 57.0368 217.5 57.0368C218.716 57.0368 219.881 57.5197 220.741 58.3792C221.6 59.2388 222.083 60.4046 222.083 61.6201C222.083 64.1514 220.031 66.2035 217.5 66.2035C214.969 66.2035 212.917 64.1514 212.917 61.6201ZM217.376 63.2747L219.471 60.5247V60.511C219.571 60.38 219.593 60.2056 219.53 60.0536C219.466 59.9016 219.326 59.7951 219.163 59.7741C219 59.753 218.837 59.8208 218.737 59.9518L217.005 62.2435L216.258 61.2901C216.157 61.1608 215.995 61.095 215.833 61.1175C215.67 61.14 215.532 61.2475 215.471 61.3994C215.409 61.5513 215.433 61.7245 215.534 61.8539L216.652 63.2793C216.74 63.39 216.873 63.4542 217.014 63.4535C217.156 63.4531 217.29 63.3871 217.376 63.2747Z" fill="#032B68"/>
</g>
</g>
<path d="M74 59.6201C74 50.7836 81.1634 43.6201 90 43.6201H224C232.837 43.6201 240 50.7836 240 59.6201V94.6201C240 103.457 232.837 110.62 224 110.62H90C81.1634 110.62 74 103.457 74 94.6201V59.6201Z" stroke="#DFE3E8" stroke-linecap="round" stroke-dasharray="4 4"/>
<g clip-path="url(#clip3_4190_3785)">
<rect x="25" y="179.62" width="24" height="24" rx="12" fill="#DFE3E8"/>
<path d="M31.6667 188.287V189.62C31.6667 189.987 31.3667 190.287 31 190.287H30.3334V192.953H31C31.3667 192.953 31.6667 193.253 31.6667 193.62V194.953C31.6667 196.053 32.5667 196.953 33.6667 196.953H35.6667V195.62H33.6667C33.3 195.62 33 195.32 33 194.953V193.62C33 192.753 32.44 192.007 31.6667 191.733V191.507C32.44 191.233 33 190.487 33 189.62V188.287C33 187.92 33.3 187.62 33.6667 187.62H35.6667V186.287H33.6667C32.5667 186.287 31.6667 187.187 31.6667 188.287Z" fill="#637381"/>
<path d="M43 190.287C42.6334 190.287 42.3334 189.987 42.3334 189.62V188.287C42.3334 187.187 41.4334 186.287 40.3334 186.287H38.3334V187.62H40.3334C40.7 187.62 41 187.92 41 188.287V189.62C41 190.487 41.56 191.233 42.3334 191.507V191.733C41.56 192.007 41 192.747 41 193.62V194.953C41 195.32 40.7 195.62 40.3334 195.62H38.3334V196.953H40.3334C41.4334 196.953 42.3334 196.053 42.3334 194.953V193.62C42.3334 193.253 42.6334 192.953 43 192.953H43.6667V190.287H43Z" fill="#637381"/>
<rect x="25" y="179.62" width="24" height="24" rx="12" fill="#DFE3E8"/>
<path d="M31.6667 188.287V189.62C31.6667 189.987 31.3667 190.287 31 190.287H30.3334V192.953H31C31.3667 192.953 31.6667 193.253 31.6667 193.62V194.953C31.6667 196.053 32.5667 196.953 33.6667 196.953H35.6667V195.62H33.6667C33.3 195.62 33 195.32 33 194.953V193.62C33 192.753 32.44 192.007 31.6667 191.733V191.507C32.44 191.233 33 190.487 33 189.62V188.287C33 187.92 33.3 187.62 33.6667 187.62H35.6667V186.287H33.6667C32.5667 186.287 31.6667 187.187 31.6667 188.287Z" fill="#637381"/>
<path d="M43 190.287C42.6334 190.287 42.3334 189.987 42.3334 189.62V188.287C42.3334 187.187 41.4334 186.287 40.3334 186.287H38.3334V187.62H40.3334C40.7 187.62 41 187.92 41 188.287V189.62C41 190.487 41.56 191.233 42.3334 191.507V191.733C41.56 192.007 41 192.747 41 193.62V194.953C41 195.32 40.7 195.62 40.3334 195.62H38.3334V196.953H40.3334C41.4334 196.953 42.3334 196.053 42.3334 194.953V193.62C42.3334 193.253 42.6334 192.953 43 192.953H43.6667V190.287H43Z" fill="#637381"/>
<rect x="43.5" y="196.12" width="7" height="7" rx="3.5" fill="#01E67A"/>
<rect x="43.5" y="196.12" width="7" height="7" rx="3.5" stroke="white"/>
<g filter="url(#filter3_dd_4190_3785)">
<rect x="56" y="179.62" width="75" height="23" rx="11.5" fill="white" shape-rendering="crispEdges"/>
<path d="M69.328 195.12L67.336 191.7H66.016V195.12H64.924V186.756H67.624C68.256 186.756 68.788 186.864 69.22 187.08C69.66 187.296 69.988 187.588 70.204 187.956C70.42 188.324 70.528 188.744 70.528 189.216C70.528 189.792 70.36 190.3 70.024 190.74C69.696 191.18 69.2 191.472 68.536 191.616L70.636 195.12H69.328ZM66.016 190.824H67.624C68.216 190.824 68.66 190.68 68.956 190.392C69.252 190.096 69.4 189.704 69.4 189.216C69.4 188.72 69.252 188.336 68.956 188.064C68.668 187.792 68.224 187.656 67.624 187.656H66.016V190.824ZM73.3168 187.644V190.44H76.3648V191.34H73.3168V194.22H76.7248V195.12H72.2248V186.744H76.7248V187.644H73.3168ZM81.0291 195.204C80.4771 195.204 79.9811 195.108 79.5411 194.916C79.1091 194.716 78.7691 194.444 78.5211 194.1C78.2731 193.748 78.1451 193.344 78.1371 192.888H79.3011C79.3411 193.28 79.5011 193.612 79.7811 193.884C80.0691 194.148 80.4851 194.28 81.0291 194.28C81.5491 194.28 81.9571 194.152 82.2531 193.896C82.5571 193.632 82.7091 193.296 82.7091 192.888C82.7091 192.568 82.6211 192.308 82.4451 192.108C82.2691 191.908 82.0491 191.756 81.7851 191.652C81.5211 191.548 81.1651 191.436 80.7171 191.316C80.1651 191.172 79.7211 191.028 79.3851 190.884C79.0571 190.74 78.7731 190.516 78.5331 190.212C78.3011 189.9 78.1851 189.484 78.1851 188.964C78.1851 188.508 78.3011 188.104 78.5331 187.752C78.7651 187.4 79.0891 187.128 79.5051 186.936C79.9291 186.744 80.4131 186.648 80.9571 186.648C81.7411 186.648 82.3811 186.844 82.8771 187.236C83.3811 187.628 83.6651 188.148 83.7291 188.796H82.5291C82.4891 188.476 82.3211 188.196 82.0251 187.956C81.7291 187.708 81.3371 187.584 80.8491 187.584C80.3931 187.584 80.0211 187.704 79.7331 187.944C79.4451 188.176 79.3011 188.504 79.3011 188.928C79.3011 189.232 79.3851 189.48 79.5531 189.672C79.7291 189.864 79.9411 190.012 80.1891 190.116C80.4451 190.212 80.8011 190.324 81.2571 190.452C81.8091 190.604 82.2531 190.756 82.5891 190.908C82.9251 191.052 83.2131 191.28 83.4531 191.592C83.6931 191.896 83.8131 192.312 83.8131 192.84C83.8131 193.248 83.7051 193.632 83.4891 193.992C83.2731 194.352 82.9531 194.644 82.5291 194.868C82.1051 195.092 81.6051 195.204 81.0291 195.204ZM90.5681 186.756V187.644H88.2881V195.12H87.1961V187.644H84.9041V186.756H90.5681ZM100.056 193.26H96.4075L95.7355 195.12H94.5835L97.6075 186.804H98.8675L101.88 195.12H100.728L100.056 193.26ZM99.7435 192.372L98.2315 188.148L96.7195 192.372H99.7435ZM108.789 189.204C108.789 189.9 108.549 190.48 108.069 190.944C107.597 191.4 106.873 191.628 105.897 191.628H104.289V195.12H103.197V186.756H105.897C106.841 186.756 107.557 186.984 108.045 187.44C108.541 187.896 108.789 188.484 108.789 189.204ZM105.897 190.728C106.505 190.728 106.953 190.596 107.241 190.332C107.529 190.068 107.673 189.692 107.673 189.204C107.673 188.172 107.081 187.656 105.897 187.656H104.289V190.728H105.897ZM111.239 186.756V195.12H110.147V186.756H111.239Z" fill="#637381"/>
<path d="M121 187.62C121.928 187.62 122.818 187.989 123.475 188.646C124.131 189.302 124.5 190.192 124.5 191.12C124.5 193.053 122.933 194.62 121 194.62C119.067 194.62 117.5 193.053 117.5 191.12C117.5 189.187 119.067 187.62 121 187.62Z" fill="#EC1D23" stroke="white"/>
</g>
</g>
<path d="M16 182.62C16 173.784 23.1634 166.62 32 166.62H128C136.837 166.62 144 173.784 144 182.62V200.62C144 209.457 136.837 216.62 128 216.62H32C23.1634 216.62 16 209.457 16 200.62V182.62Z" stroke="#DFE3E8" stroke-linecap="round" stroke-dasharray="4 4"/>
<rect width="22.7664" height="62.0755" rx="11.2789" transform="matrix(0.966558 -0.256449 0.261208 0.965283 177 449.459)" fill="#637381"/>
<rect width="22.7639" height="62.0688" rx="11.2777" transform="matrix(-0.966558 -0.256449 -0.261208 0.965283 277 449.458)" fill="#637381"/>
<path d="M199.948 386.925C201.431 373.102 213.097 362.62 227 362.62C240.903 362.62 252.569 373.102 254.052 386.925L264.151 481.06C265.673 495.247 254.556 507.62 240.288 507.62H213.712C199.444 507.62 188.327 495.247 189.849 481.06L199.948 386.925Z" fill="#C4CDD5"/>
<path d="M201 435.558C211.802 431.728 223.583 416.167 227.929 404.62L228 507.62C219.406 486.586 201.604 435.318 201 435.558Z" fill="#F4F6F8"/>
<path d="M253 434.602C242.795 430.721 232.034 416.319 227.929 404.62L228 507.62C236.119 486.31 252.429 434.359 253 434.602Z" fill="#F4F6F8"/>
<path d="M185.894 332.707C190.052 314.518 206.231 301.62 224.888 301.62H227.625C246.953 301.62 263.516 315.44 266.978 334.455L268.009 340.116C268.545 343.06 268.245 346.095 267.143 348.876L250.665 390.461C247.04 399.611 238.195 405.62 228.353 405.62H223.647C213.805 405.62 204.961 399.611 201.335 390.461L185 349.238C183.809 346.23 183.557 342.932 184.278 339.778L185.894 332.707Z" fill="#C4CDD5"/>
<path d="M204.709 272.62C209.209 272.62 208.709 306.577 208.709 306.577C197.224 309.469 188.077 330.99 185.928 333.12C175.591 328.493 195.209 272.62 204.709 272.62Z" fill="#212B36"/>
<path d="M247.017 272.62C242.517 272.62 243.017 306.577 243.017 306.577C254.502 309.469 263.648 330.99 265.797 333.12C276.135 328.493 256.517 272.62 247.017 272.62Z" fill="#212B36"/>
<circle cx="213.5" cy="348.62" r="3" fill="black"/>
<circle cx="239.5" cy="348.62" r="3" fill="black"/>
<path d="M207.28 378.049C210.193 365.709 219.997 363.272 226.5 362.62V390.906C222.643 390.906 221.8 390.167 220.586 389.733C219.285 391.254 223.543 400.62 207.765 400.62C203.348 400.62 203.638 393.474 207.28 378.049Z" fill="white"/>
<path d="M245.72 378.049C242.807 365.709 233.003 363.272 226.5 362.62V390.906C230.357 390.906 231.2 390.167 232.414 389.733C233.715 391.254 229.457 400.62 245.235 400.62C249.652 400.62 249.362 393.474 245.72 378.049Z" fill="white"/>
<path d="M226.5 362.62C221.198 362.62 210.151 363.12 207.5 378.62" stroke="black"/>
<path d="M226.5 362.62C231.802 362.62 242.849 363.12 245.5 378.62" stroke="black"/>
<path d="M226.5 375.62C226.5 381.12 220.5 381.62 220.5 392.12C220.5 397.303 215.026 400.62 207.5 400.62C206 400.62 203.7 399.82 204.5 394.62" stroke="black"/>
<path d="M226.5 375.62C226.5 381.12 232.5 381.62 232.5 392.12C232.5 397.303 237.974 400.62 245.5 400.62C247 400.62 249.3 399.82 248.5 394.62" stroke="black"/>
<ellipse cx="226.5" cy="365.12" rx="8" ry="3.5" fill="black"/>
<path d="M326.55 367.503C327.137 359.121 334.108 352.62 342.511 352.62H361.489C369.892 352.62 376.863 359.121 377.45 367.503L394.802 615.503C395.45 624.757 388.118 632.62 378.841 632.62H325.159C315.882 632.62 308.55 624.757 309.198 615.503L326.55 367.503Z" fill="#C4CDD5"/>
<path d="M322 522.499C334.618 515.905 347.924 474.499 353 454.62V630.62C342.961 594.408 322.706 522.086 322 522.499Z" fill="#C4CDD5"/>
<path d="M383 522.499C370.789 515.905 357.912 474.499 353 454.62V630.62C362.715 594.408 382.317 522.086 383 522.499Z" fill="#C4CDD5"/>
<path d="M314.956 346.504C317.345 334.976 342 361.728 342 361.728C332.442 364.113 324.832 381.863 323.043 383.62C314.441 379.804 312.566 358.033 314.956 346.504Z" fill="#C4CDD5"/>
<path d="M387.044 346.504C384.655 334.976 360 361.728 360 361.728C369.558 364.113 377.168 381.863 378.957 383.62C387.559 379.804 389.434 358.033 387.044 346.504Z" fill="#C4CDD5"/>
<path d="M329 350.863C339.4 346.152 349.333 347.592 353 348.9V468.62C349 467.05 343.333 460.77 341 457.826C340.2 459.396 342 463.059 343 464.695C338.2 462.34 333.667 456.517 332 453.9C331.2 454.685 332.333 458.153 333 459.788C327.4 458.218 319.333 445.396 316 439.181C314.4 439.181 315.333 444.414 316 447.031C312 443.891 309.667 432.639 309 427.405C306.6 427.405 306 431.984 306 434.274C302.8 429.564 304 415.956 305 409.741C304.2 408.171 302 411.05 301 412.685C301 403.265 305.667 391.096 308 386.19C306.4 386.19 304 388.807 303 390.115C303 383.05 313 370.816 318 365.582L313 367.545C315.4 361.264 327.333 355.769 333 353.807L329 350.863Z" fill="#DFE3E8"/>
<path d="M376.077 350.863C366.077 346.152 356.526 347.592 353 348.9V468.62C356.846 467.05 362.295 460.77 364.538 457.826C365.308 459.396 363.577 463.059 362.615 464.695C367.231 462.34 371.59 456.517 373.192 453.9C373.962 454.685 372.872 458.153 372.231 459.788C377.615 458.218 385.372 445.396 388.577 439.181C390.115 439.181 389.218 444.414 388.577 447.031C392.423 443.891 394.667 432.639 395.308 427.405C397.615 427.405 398.192 431.984 398.192 434.274C401.269 429.564 400.115 415.956 399.154 409.741C399.923 408.171 402.038 411.05 403 412.685C403 403.265 398.513 391.096 396.269 386.19C397.808 386.19 400.115 388.807 401.077 390.115C401.077 383.05 391.462 370.816 386.654 365.582L391.462 367.545C389.154 361.264 377.679 355.769 372.231 353.807L376.077 350.863Z" fill="#DFE3E8"/>
<circle cx="352" cy="397.62" r="10" fill="#C4CDD5"/>
<path d="M352.756 396.747C352.357 397.208 351.643 397.208 351.244 396.747L345.639 390.275C345.078 389.627 345.538 388.62 346.395 388.62L357.605 388.62C358.462 388.62 358.922 389.627 358.361 390.275L352.756 396.747Z" fill="black"/>
<path d="M352 395.62V398.287C352 398.953 350.133 401.62 348 401.62" stroke="black"/>
<path d="M352 395.62V398.287C352 398.953 353.867 401.62 356 401.62" stroke="black"/>
<circle cx="339" cy="381.62" r="3" fill="black"/>
<circle cx="365" cy="381.62" r="3" fill="black"/>
<g opacity="0.6" clip-path="url(#clip4_4190_3785)">
<path d="M403.417 310.25L404.562 307.729L407.083 306.583L404.562 305.437L403.417 302.917L402.271 305.437L399.75 306.583L402.271 307.729L403.417 310.25Z" fill="#FFAB00"/>
<path d="M403.417 315.75L402.271 318.271L399.75 319.417L402.271 320.562L403.417 323.083L404.562 320.562L407.083 319.417L404.562 318.271L403.417 315.75Z" fill="#FFAB00"/>
<path d="M396.542 310.708L394.25 305.667L391.958 310.708L386.917 313L391.958 315.292L394.25 320.333L396.542 315.292L401.583 313L396.542 310.708ZM395.157 313.907L394.25 315.906L393.342 313.907L391.344 313L393.342 312.092L394.25 310.094L395.157 312.092L397.156 313L395.157 313.907Z" fill="#FFAB00"/>
</g>
<rect x="13" y="455" width="427" height="3" fill="#C4CDD5"/>
<path opacity="0.24" d="M370.976 308.951C377.904 308.951 383.52 303.955 383.52 297.791V278.26C383.52 272.097 377.904 267.1 370.976 267.1H349.024C342.096 267.1 336.48 272.097 336.48 278.26V297.791C336.48 303.955 342.096 308.951 349.024 308.951H352.16L359.02 313.834C359.58 314.233 360.371 314.242 360.941 313.861L360.979 313.834L367.84 308.951H370.976Z" fill="#919EAB"/>
<rect x="344.88" y="280.96" width="20.16" height="4.2" rx="2.1" fill="#919EAB"/>
<rect opacity="0.24" x="344.88" y="296.08" width="20.16" height="4.2" rx="2.1" fill="#919EAB"/>
<rect opacity="0.48" x="344.88" y="288.52" width="30.24" height="4.2" rx="2.1" fill="#919EAB"/>
<path opacity="0.24" d="M100.425 287.686C104.797 287.686 108.34 284.534 108.34 280.645V268.322C108.34 264.433 104.797 261.28 100.425 261.28H86.5747C82.2036 261.28 78.66 264.433 78.66 268.322V280.645C78.66 284.534 82.2036 287.686 86.5747 287.686H88.5534L92.882 290.767C93.2353 291.019 93.734 291.024 94.0938 290.784L94.1181 290.767L98.4467 287.686H100.425Z" fill="#919EAB"/>
<rect x="83.96" y="270.025" width="12.72" height="2.65" rx="1.325" fill="#919EAB"/>
<rect opacity="0.24" x="83.96" y="279.565" width="12.72" height="2.65" rx="1.325" fill="#919EAB"/>
<rect opacity="0.48" x="83.96" y="274.795" width="19.08" height="2.65" rx="1.325" fill="#919EAB"/>
<path d="M348 83L349.25 80.25L352 79L349.25 77.75L348 75L346.75 77.75L344 79L346.75 80.25L348 83Z" fill="#FFAB00"/>
<path d="M348 89L346.75 91.75L344 93L346.75 94.25L348 97L349.25 94.25L352 93L349.25 91.75L348 89Z" fill="#FFAB00"/>
<path d="M340.5 83.5L338 78L335.5 83.5L330 86L335.5 88.5L338 94L340.5 88.5L346 86L340.5 83.5ZM338.99 86.99L338 89.17L337.01 86.99L334.83 86L337.01 85.01L338 82.83L338.99 85.01L341.17 86L338.99 86.99Z" fill="#FFAB00"/>
<g clip-path="url(#clip5_4190_3785)">
<path d="M47.4166 242.25L48.5625 239.729L51.0833 238.583L48.5625 237.437L47.4166 234.917L46.2708 237.437L43.75 238.583L46.2708 239.729L47.4166 242.25Z" fill="#FFAB00"/>
<path d="M47.4166 247.75L46.2708 250.271L43.75 251.417L46.2708 252.562L47.4166 255.083L48.5625 252.562L51.0833 251.417L48.5625 250.271L47.4166 247.75Z" fill="#FFAB00"/>
<path d="M40.5416 242.708L38.25 237.667L35.9583 242.708L30.9166 245L35.9583 247.292L38.25 252.333L40.5416 247.292L45.5833 245L40.5416 242.708ZM39.1575 245.907L38.25 247.906L37.3425 245.907L35.3441 245L37.3425 244.092L38.25 242.094L39.1575 244.092L41.1558 245L39.1575 245.907Z" fill="#FFAB00"/>
</g>
<path d="M235.823 244.36C242.338 244.36 247.62 239.661 247.62 233.864V215.496C247.62 209.699 242.338 205 235.823 205H215.177C208.662 205 203.38 209.699 203.38 215.496V233.864C203.38 239.661 208.662 244.36 215.177 244.36H218.127L224.579 248.953C225.105 249.327 225.849 249.336 226.385 248.978L226.421 248.953L232.873 244.36H235.823Z" fill="#032B68"/>
<circle cx="224.951" cy="224.377" r="12.6181" fill="black"/>
<path d="M232.074 221.442C231.874 221.342 231.655 221.234 231.588 221.21C232.544 223.202 231.617 224.38 231.617 224.38L231.535 223.909C231.191 222.087 229.764 220.943 227.997 220.943C227.413 220.943 226.823 221.079 226.29 221.337L225.536 221.702L225.96 220.978C226.079 220.771 226.213 220.588 226.34 220.45C226.515 220.233 226.755 220.03 227.04 219.855C227.629 219.449 228.366 219.229 229.16 219.229C229.854 219.229 230.516 219.395 231.059 219.67C231.814 220.052 232.323 220.798 232.456 221.636C232.456 221.636 232.273 221.544 232.074 221.441V221.442Z" fill="white"/>
<path d="M237.569 224.38C237.569 228.62 235.477 232.372 232.268 234.66C230.464 231.546 232.268 228.394 232.268 228.394L233.01 229.97C234.4 228.215 235.714 225.539 235.131 222.028C234.832 220.22 233.903 218.668 232.366 217.414C231.353 216.584 230.157 216.163 228.812 216.163C227.35 216.163 226.013 216.649 225.138 217.014L224.951 217.093L224.763 217.014C223.887 216.649 222.551 216.163 221.087 216.163C219.745 216.163 218.551 216.584 217.533 217.414C215.999 218.668 215.068 220.22 214.77 222.028C214.186 225.539 215.5 228.214 216.893 229.97L217.63 228.394C217.63 228.394 219.435 231.546 217.63 234.66C214.423 232.372 212.333 228.62 212.333 224.38C212.333 217.41 217.98 211.759 224.95 211.759C231.92 211.759 237.569 217.41 237.569 224.38Z" fill="white"/>
<path d="M224.361 221.702L223.611 221.337C223.076 221.079 222.487 220.943 221.902 220.943C220.138 220.943 218.709 222.087 218.365 223.909L218.283 224.38C218.283 224.38 217.355 223.202 218.314 221.21C218.247 221.234 218.03 221.342 217.828 221.442C217.627 221.545 217.442 221.637 217.442 221.637C217.577 220.799 218.082 220.053 218.84 219.671C219.383 219.396 220.048 219.23 220.74 219.23C221.533 219.23 222.269 219.45 222.859 219.856C223.147 220.031 223.385 220.234 223.563 220.451C223.687 220.589 223.818 220.772 223.944 220.979L224.36 221.703L224.361 221.702Z" fill="white"/>
<path d="M229.953 227.831L229.698 231.069L228.88 230.54C228.872 230.532 228.862 230.527 228.851 230.519L228.399 230.223L227.931 229.92L226.74 229.144C225.981 228.644 225.519 227.773 225.519 226.827V226.237C225.884 226.075 226.135 225.763 226.135 225.403C226.135 225.062 225.914 224.764 225.584 224.597C225.556 224.584 225.53 224.572 225.503 224.562C225.341 224.493 225.151 224.451 224.951 224.451C224.751 224.451 224.56 224.493 224.397 224.562C224.369 224.572 224.344 224.584 224.32 224.597C223.987 224.765 223.767 225.063 223.767 225.403C223.767 225.763 224.017 226.074 224.382 226.237V226.827C224.382 227.773 223.919 228.644 223.161 229.144L221.971 229.92L221.504 230.223L221.049 230.519C221.039 230.527 221.031 230.532 221.021 230.54L220.203 231.069L219.95 227.831C219.935 227.051 220.09 226.32 220.403 225.677C220.403 225.672 220.406 225.669 220.406 225.669C220.684 225.098 221.084 224.594 221.609 224.183C222.652 223.361 223.884 223.227 224.951 223.484C226.017 223.228 227.248 223.361 228.292 224.183C228.816 224.594 229.218 225.098 229.497 225.669C229.497 225.669 229.499 225.672 229.499 225.677C229.812 226.32 229.967 227.05 229.954 227.831H229.953Z" fill="white"/>
</g>
<defs>
<filter id="filter0_dd_4190_3785" x="255" y="113.62" width="62" height="63" filterUnits="userSpaceOnUse" color-interpolation-filters="sRGB">
<feFlood flood-opacity="0" result="BackgroundImageFix"/>
<feColorMatrix in="SourceAlpha" type="matrix" values="0 0 0 0 0 0 0 0 0 0 0 0 0 0 0 0 0 0 127 0" result="hardAlpha"/>
<feMorphology radius="4" operator="erode" in="SourceAlpha" result="effect1_dropShadow_4190_3785"/>
<feOffset dy="12"/>
<feGaussianBlur stdDeviation="12"/>
<feColorMatrix type="matrix" values="0 0 0 0 0.568627 0 0 0 0 0.619608 0 0 0 0 0.670588 0 0 0 0.12 0"/>
<feBlend mode="normal" in2="BackgroundImageFix" result="effect1_dropShadow_4190_3785"/>
<feColorMatrix in="SourceAlpha" type="matrix" values="0 0 0 0 0 0 0 0 0 0 0 0 0 0 0 0 0 0 127 0" result="hardAlpha"/>
<feOffset/>
<feGaussianBlur stdDeviation="1"/>
<feComposite in2="hardAlpha" operator="out"/>
<feColorMatrix type="matrix" values="0 0 0 0 0.568627 0 0 0 0 0.619608 0 0 0 0 0.670588 0 0 0 0.2 0"/>
<feBlend mode="normal" in2="effect1_dropShadow_4190_3785" result="effect2_dropShadow_4190_3785"/>
<feBlend mode="normal" in="SourceGraphic" in2="effect2_dropShadow_4190_3785" result="shape"/>
</filter>
<filter id="filter1_dd_4190_3785" x="284.5" y="112.62" width="113" height="63" filterUnits="userSpaceOnUse" color-interpolation-filters="sRGB">
<feFlood flood-opacity="0" result="BackgroundImageFix"/>
<feColorMatrix in="SourceAlpha" type="matrix" values="0 0 0 0 0 0 0 0 0 0 0 0 0 0 0 0 0 0 127 0" result="hardAlpha"/>
<feMorphology radius="4" operator="erode" in="SourceAlpha" result="effect1_dropShadow_4190_3785"/>
<feOffset dy="12"/>
<feGaussianBlur stdDeviation="12"/>
<feColorMatrix type="matrix" values="0 0 0 0 0.568627 0 0 0 0 0.619608 0 0 0 0 0.670588 0 0 0 0.12 0"/>
<feBlend mode="normal" in2="BackgroundImageFix" result="effect1_dropShadow_4190_3785"/>
<feColorMatrix in="SourceAlpha" type="matrix" values="0 0 0 0 0 0 0 0 0 0 0 0 0 0 0 0 0 0 127 0" result="hardAlpha"/>
<feOffset/>
<feGaussianBlur stdDeviation="1"/>
<feComposite in2="hardAlpha" operator="out"/>
<feColorMatrix type="matrix" values="0 0 0 0 0.568627 0 0 0 0 0.619608 0 0 0 0 0.670588 0 0 0 0.2 0"/>
<feBlend mode="normal" in2="effect1_dropShadow_4190_3785" result="effect2_dropShadow_4190_3785"/>
<feBlend mode="normal" in="SourceGraphic" in2="effect2_dropShadow_4190_3785" result="shape"/>
</filter>
<filter id="filter2_dd_4190_3785" x="92" y="43.6201" width="161" height="63" filterUnits="userSpaceOnUse" color-interpolation-filters="sRGB">
<feFlood flood-opacity="0" result="BackgroundImageFix"/>
<feColorMatrix in="SourceAlpha" type="matrix" values="0 0 0 0 0 0 0 0 0 0 0 0 0 0 0 0 0 0 127 0" result="hardAlpha"/>
<feMorphology radius="4" operator="erode" in="SourceAlpha" result="effect1_dropShadow_4190_3785"/>
<feOffset dy="12"/>
<feGaussianBlur stdDeviation="12"/>
<feColorMatrix type="matrix" values="0 0 0 0 0.568627 0 0 0 0 0.619608 0 0 0 0 0.670588 0 0 0 0.12 0"/>
<feBlend mode="normal" in2="BackgroundImageFix" result="effect1_dropShadow_4190_3785"/>
<feColorMatrix in="SourceAlpha" type="matrix" values="0 0 0 0 0 0 0 0 0 0 0 0 0 0 0 0 0 0 127 0" result="hardAlpha"/>
<feOffset/>
<feGaussianBlur stdDeviation="1"/>
<feComposite in2="hardAlpha" operator="out"/>
<feColorMatrix type="matrix" values="0 0 0 0 0.568627 0 0 0 0 0.619608 0 0 0 0 0.670588 0 0 0 0.2 0"/>
<feBlend mode="normal" in2="effect1_dropShadow_4190_3785" result="effect2_dropShadow_4190_3785"/>
<feBlend mode="normal" in="SourceGraphic" in2="effect2_dropShadow_4190_3785" result="shape"/>
</filter>
<filter id="filter3_dd_4190_3785" x="36" y="171.62" width="115" height="63" filterUnits="userSpaceOnUse" color-interpolation-filters="sRGB">
<feFlood flood-opacity="0" result="BackgroundImageFix"/>
<feColorMatrix in="SourceAlpha" type="matrix" values="0 0 0 0 0 0 0 0 0 0 0 0 0 0 0 0 0 0 127 0" result="hardAlpha"/>
<feMorphology radius="4" operator="erode" in="SourceAlpha" result="effect1_dropShadow_4190_3785"/>
<feOffset dy="12"/>
<feGaussianBlur stdDeviation="12"/>
<feColorMatrix type="matrix" values="0 0 0 0 0.568627 0 0 0 0 0.619608 0 0 0 0 0.670588 0 0 0 0.12 0"/>
<feBlend mode="normal" in2="BackgroundImageFix" result="effect1_dropShadow_4190_3785"/>
<feColorMatrix in="SourceAlpha" type="matrix" values="0 0 0 0 0 0 0 0 0 0 0 0 0 0 0 0 0 0 127 0" result="hardAlpha"/>
<feOffset/>
<feGaussianBlur stdDeviation="1"/>
<feComposite in2="hardAlpha" operator="out"/>
<feColorMatrix type="matrix" values="0 0 0 0 0.568627 0 0 0 0 0.619608 0 0 0 0 0.670588 0 0 0 0.2 0"/>
<feBlend mode="normal" in2="effect1_dropShadow_4190_3785" result="effect2_dropShadow_4190_3785"/>
<feBlend mode="normal" in="SourceGraphic" in2="effect2_dropShadow_4190_3785" result="shape"/>
</filter>
<linearGradient id="paint0_linear_4190_3785" x1="225" y1="50.5098" x2="225" y2="407.62" gradientUnits="userSpaceOnUse">
<stop offset="0.572115" stop-color="white"/>
<stop offset="1" stop-color="white" stop-opacity="0"/>
</linearGradient>
<clipPath id="clip0_4190_3785">
<rect width="446" height="457" fill="white" transform="translate(0 0.560059)"/>
</clipPath>
<clipPath id="clip1_4190_3785">
<path d="M265 129.62C265 120.784 272.163 113.62 281 113.62H407C415.837 113.62 423 120.784 423 129.62V162.62C423 171.457 415.837 178.62 407 178.62H281C272.163 178.62 265 171.457 265 162.62V129.62Z" fill="white"/>
</clipPath>
<clipPath id="clip2_4190_3785">
<path d="M74 59.6201C74 50.7836 81.1634 43.6201 90 43.6201H224C232.837 43.6201 240 50.7836 240 59.6201V94.6201C240 103.457 232.837 110.62 224 110.62H90C81.1634 110.62 74 103.457 74 94.6201V59.6201Z" fill="white"/>
</clipPath>
<clipPath id="clip3_4190_3785">
<path d="M16 182.62C16 173.784 23.1634 166.62 32 166.62H128C136.837 166.62 144 173.784 144 182.62V200.62C144 209.457 136.837 216.62 128 216.62H32C23.1634 216.62 16 209.457 16 200.62V182.62Z" fill="white"/>
</clipPath>
<clipPath id="clip4_4190_3785">
<rect width="22" height="22" fill="white" transform="translate(386 302)"/>
</clipPath>
<clipPath id="clip5_4190_3785">
<rect width="22" height="22" fill="white" transform="translate(30 234)"/>
</clipPath>
</defs>
</svg>
