<svg width="708" height="206" viewBox="0 0 708 206" fill="none" xmlns="http://www.w3.org/2000/svg">
<g clip-path="url(#clip0_1224_21163)">
<path d="M277.55 52.8832C278.137 44.5005 285.108 38 293.511 38H312.489C320.892 38 327.863 44.5005 328.45 52.8832L345.802 300.883C346.45 310.137 339.118 318 329.841 318H276.159C266.882 318 259.55 310.137 260.198 300.883L277.55 52.8832Z" fill="#C4CDD5"/>
<path d="M273 207.879C285.618 201.285 298.924 159.879 304 140V316C293.961 279.787 273.706 207.466 273 207.879Z" fill="#F4F6F8"/>
<path d="M334 207.879C321.789 201.285 308.912 159.879 304 140V316C313.715 279.787 333.317 207.466 334 207.879Z" fill="#F4F6F8"/>
<path d="M280.63 57.5166C275.859 42.3988 287.147 27 303 27C318.853 27 330.141 42.3988 325.37 57.5166L315.072 90.151C313.409 95.4185 308.524 99 303 99C297.476 99 292.591 95.4185 290.928 90.151L280.63 57.5166Z" fill="#C4CDD5"/>
<path d="M289.184 38.5C286.591 42.4349 280.784 49.9034 281.006 58.2979C281.284 68.791 285.61 67.9837 286.999 67C288.914 65.6441 291.437 60.2653 289.499 60.2653C286.863 60.2653 288.368 67.6971 293.225 67.4793C297.671 67.28 300.635 60 297.999 60C295.776 60 297.442 67.8073 302.999 67.8073C308.557 67.8073 310.445 60.5932 307.673 60.5932C304.901 60.5932 308.896 67.8073 312.675 67.8073C316.558 67.8073 318.722 60.5932 316.499 60.5932C313.258 60.5932 315.451 69.4005 321.751 67.8073C326.937 66.4956 327.243 51.9067 316.499 38.5" stroke="black"/>
<ellipse cx="303" cy="92" rx="8" ry="4" fill="black"/>
<ellipse cx="284.649" cy="33.3717" rx="7.53545" ry="7.37174" fill="#212B36"/>
<ellipse cx="263.55" cy="59.9098" rx="10.5496" ry="10.3204" fill="#212B36"/>
<path d="M256.014 52.5383L278.621 28.9487L292 35L279.684 88.5L256.014 52.5383Z" fill="#212B36"/>
<path d="M253.184 85L253 59.9099L272.684 65L279.684 84.5L253.184 85Z" fill="#212B36"/>
<ellipse cx="266.685" cy="85" rx="13.5" ry="13" fill="#212B36"/>
<ellipse cx="7.53545" cy="7.37174" rx="7.53545" ry="7.37174" transform="matrix(-1 0 0 1 329.071 26)" fill="#212B36"/>
<ellipse cx="10.5496" cy="10.3204" rx="10.5496" ry="10.3204" transform="matrix(-1 0 0 1 353.184 49.5894)" fill="#212B36"/>
<path d="M350.17 52.5383L327.564 28.9487L314.184 35L326.5 88.5L350.17 52.5383Z" fill="#212B36"/>
<path d="M353 85L353.184 59.9099L333.5 65L326.5 84.5L353 85Z" fill="#212B36"/>
<ellipse cx="13.5" cy="13" rx="13.5" ry="13" transform="matrix(-1 0 0 1 353 72)" fill="#212B36"/>
<rect width="20.223" height="48.4798" rx="10.1115" transform="matrix(0.974853 -0.222847 0.299646 0.95405 359.047 208.507)" fill="#637381"/>
<rect width="20.223" height="48.4798" rx="10.1115" transform="matrix(-0.974853 -0.222847 -0.299646 0.95405 450.241 208.507)" fill="#637381"/>
<path d="M383.149 176.051C384.907 165.629 393.932 158 404.5 158C415.068 158 424.093 165.629 425.851 176.051L433.261 219.981C436.263 237.776 422.547 254 404.5 254C386.453 254 372.737 237.776 375.739 219.981L383.149 176.051Z" fill="#C4CDD5"/>
<path d="M383 206C392.14 203.471 401.109 193.623 404.786 186L404.846 254C397.574 240.114 383.511 205.842 383 206Z" fill="#F4F6F8"/>
<path d="M426 205C417.365 202.438 408.259 193.723 404.786 186L404.846 254C411.716 239.931 425.517 204.839 426 205Z" fill="#F4F6F8"/>
<path d="M362 147.968C365.633 126.395 381.222 124.275 388.034 123.05C390.658 122.578 392.576 125.5 389.17 130.404C386.445 134.326 378.274 149.194 377.896 159C372.597 157.366 362 152.871 362 147.968Z" fill="#212B36"/>
<path d="M448 147.968C444.216 126.395 428.184 124.275 421.089 123.05C418.356 122.578 416.359 125.5 419.906 130.404C422.744 134.326 431.051 149.194 431.445 159C436.964 157.366 448 152.871 448 147.968Z" fill="#212B36"/>
<path d="M405.174 122C382.845 122 369 136.68 369 154.788C372.369 161.192 384.321 174 405.174 174V122Z" fill="#C4CDD5"/>
<path d="M405.174 122C427.503 122 441.348 136.68 441.348 154.788C437.979 161.192 426.027 174 405.174 174V122Z" fill="#C4CDD5"/>
<path d="M385 155.802C390.413 150.148 401.578 151.759 405 154.487V162.938C399.773 163.534 394.022 172.528 392 176C391.253 175.702 390.133 171.921 390.133 170.681C388.827 170.681 387.411 173.409 386.867 174.773C386.307 170.309 387.722 164.977 388.5 162.869C387.567 162.274 386.4 164.109 385.933 165.101C385.187 163.316 386.711 159.645 387.567 158.034C387.007 156.546 385.622 155.926 385 155.802Z" fill="white"/>
<path d="M425 155.848C419.727 150.137 408.333 151.748 405 154.503V162.987C410.091 163.588 415.303 172.493 417.273 176C418 175.699 420 172.13 420 170.877C421.273 170.877 422.652 173.633 423.182 175.011C423.727 170.502 422.348 165.116 421.591 162.987C422.5 162.386 423.636 164.24 424.091 165.241C424.818 163.438 423.333 159.731 422.5 158.103C423.045 156.6 424.394 155.973 425 155.848Z" fill="white"/>
<path d="M405 163V166C404.667 167.333 402.8 170 398 170" stroke="black"/>
<path d="M405 163V166C405.333 167.333 407.2 170 412 170" stroke="black"/>
<ellipse cx="405" cy="159" rx="6" ry="4" fill="black"/>
<circle cx="392" cy="151" r="3" fill="black"/>
<circle cx="418" cy="151" r="3" fill="black"/>
<path d="M387 140.5C393.4 139.7 397 142.167 398 143.5C401.6 147.9 399.5 149.5 398 148C396.8 147.2 392.833 149.667 391 151V149.5C388.6 149.5 385.333 152.5 384 154C384 153.2 385 151.333 385.5 150.5C384.3 149.7 378.667 151.167 376 152C376.4 148.4 381.167 146.833 383.5 146.5L380.5 144.5C382.5 142.5 387.333 143 389.5 143.5L387 140.5Z" fill="white"/>
<path d="M422.988 140.5C416.588 139.7 412.988 142.167 411.988 143.5C408.388 147.9 410.488 149.5 411.988 148C413.188 147.2 417.154 149.667 418.988 151V149.5C421.388 149.5 424.654 152.5 425.988 154C425.988 153.2 424.988 151.333 424.488 150.5C425.688 149.7 431.321 151.167 433.988 152C433.588 148.4 428.821 146.833 426.488 146.5L429.488 144.5C427.488 142.5 422.654 143 420.488 143.5L422.988 140.5Z" fill="white"/>
</g>
<defs>
<clipPath id="clip0_1224_21163">
<rect width="708" height="206" fill="white"/>
</clipPath>
</defs>
</svg>
