<svg width="522" height="206" viewBox="0 0 522 206" fill="none" xmlns="http://www.w3.org/2000/svg">
<g clip-path="url(#clip0_3276_4807)">
<path d="M176.381 152.106C178.758 137.794 191.137 127.3 205.646 127.3C220.259 127.3 232.696 137.942 234.955 152.38L251.665 259.19C253.942 273.747 242.687 286.9 227.953 286.9H182.314C167.489 286.9 156.209 273.593 158.638 258.969L176.381 152.106Z" fill="#C4CDD5"/>
<path d="M177 212C188.632 208.014 201.32 191.818 206 179.8V287.003C196.745 265.111 177.651 211.75 177 212Z" fill="#F4F6F8"/>
<path d="M233 211.005C222.011 206.966 210.421 191.976 206 179.8V286.9C214.744 264.72 232.385 210.752 233 211.005Z" fill="#F4F6F8"/>
<path d="M170.184 108.531C166.931 87.2102 183.432 68 205 68C226.568 68 243.069 87.2102 239.816 108.531L234.768 141.62C232.98 153.341 222.9 162 211.042 162H198.958C187.1 162 177.02 153.341 175.232 141.62L170.184 108.531Z" fill="#C4CDD5"/>
<ellipse cx="181.649" cy="76.3717" rx="7.53545" ry="7.37174" fill="#212B36"/>
<ellipse cx="160.55" cy="102.91" rx="10.5496" ry="10.3204" fill="#212B36"/>
<path d="M153.014 95.5383L175.621 71.9487L189 78L176.684 131.5L153.014 95.5383Z" fill="#212B36"/>
<path d="M150.184 128L150 102.91L169.684 108L176.684 127.5L150.184 128Z" fill="#212B36"/>
<ellipse cx="163.685" cy="128" rx="13.5" ry="13" fill="#212B36"/>
<ellipse cx="7.53545" cy="7.37174" rx="7.53545" ry="7.37174" transform="matrix(-1 0 0 1 236.071 69)" fill="#212B36"/>
<ellipse cx="10.5496" cy="10.3204" rx="10.5496" ry="10.3204" transform="matrix(-1 0 0 1 260.184 92.5895)" fill="#212B36"/>
<path d="M257.17 95.5383L234.564 71.9487L221.184 78L233.5 131.5L257.17 95.5383Z" fill="#212B36"/>
<path d="M260 128L260.184 102.91L240.5 108L233.5 127.5L260 128Z" fill="#212B36"/>
<ellipse cx="13.5" cy="13" rx="13.5" ry="13" transform="matrix(-1 0 0 1 260 115)" fill="#212B36"/>
<circle cx="191.5" cy="115" r="3" fill="black"/>
<circle cx="217.5" cy="115" r="3" fill="black"/>
<path d="M204.5 145V153" stroke="black"/>
<path d="M193.5 149C193.5 154 201.145 156.143 204.5 153" stroke="black"/>
<path d="M215.5 149C215.5 154 208.113 156.143 204.5 153" stroke="black"/>
<ellipse cx="204.5" cy="144" rx="8" ry="5" fill="black"/>
<rect width="22.4501" height="48.4476" rx="11.2251" transform="matrix(0.980173 -0.198142 0.334683 0.942331 267 203.163)" fill="#637381"/>
<rect width="22.4477" height="48.4424" rx="11.2238" transform="matrix(-0.980173 -0.198142 -0.334683 0.942331 367 203.162)" fill="#637381"/>
<path d="M289.147 161.206C291.102 147.323 302.981 137 317 137C331.019 137 342.898 147.323 344.853 161.206L353.15 220.13C355.183 234.573 343.97 247.476 329.384 247.476H304.616C290.03 247.476 278.817 234.573 280.85 220.13L289.147 161.206Z" fill="#C4CDD5"/>
<path d="M291 192.571C301.802 189.653 313.583 177.797 317.929 169L318 247.476C309.406 231.45 291.604 192.389 291 192.571Z" fill="#F4F6F8"/>
<path d="M343 191.843C332.795 188.887 322.034 177.913 317.929 169L318 247.476C326.119 231.24 342.429 191.658 343 191.843Z" fill="#F4F6F8"/>
<path d="M275.894 113.086C280.052 94.8983 296.231 82 314.888 82H317.625C336.953 82 353.516 95.8197 356.978 114.835L358.009 120.496C358.545 123.44 358.245 126.475 357.143 129.256L340.665 170.841C337.04 179.991 328.195 186 318.353 186H313.647C303.805 186 294.961 179.991 291.335 170.841L275 129.618C273.809 126.61 273.557 123.312 274.278 120.158L275.894 113.086Z" fill="#C4CDD5"/>
<path d="M294.709 53C299.209 53 298.709 86.9572 298.709 86.9572C287.224 89.849 278.077 111.37 275.928 113.5C265.591 108.873 285.209 53 294.709 53Z" fill="#212B36"/>
<path d="M337.017 53C332.517 53 333.017 86.9572 333.017 86.9572C344.502 89.849 353.648 111.37 355.797 113.5C366.135 108.873 346.517 53 337.017 53Z" fill="#212B36"/>
<path d="M299.5 117C297.282 120.18 292.315 126.216 292.505 133" stroke="black"/>
<path d="M333.5 117C335.718 120.18 340.685 126.216 340.495 133" stroke="black"/>
<path d="M306.5 117C304.916 120.18 301.368 126.216 301.504 133" stroke="black"/>
<path d="M326.5 117C328.084 120.18 331.632 126.216 331.496 133" stroke="black"/>
<path d="M313.5 117C312.866 120.18 311.447 126.216 311.502 133" stroke="black"/>
<path d="M319.5 117C320.134 120.18 321.553 126.216 321.498 133" stroke="black"/>
<path d="M297.28 158.429C300.193 146.089 309.997 143.652 316.5 143V171.286C312.643 171.286 311.8 170.547 310.586 170.113C309.285 171.633 313.543 181 297.765 181C293.348 181 293.638 173.853 297.28 158.429Z" fill="white"/>
<path d="M335.72 158.429C332.807 146.089 323.003 143.652 316.5 143V171.286C320.357 171.286 321.2 170.547 322.414 170.113C323.715 171.633 319.457 181 335.235 181C339.652 181 339.362 173.853 335.72 158.429Z" fill="white"/>
<path d="M316.5 143C311.198 143 300.151 143.5 297.5 159" stroke="black"/>
<path d="M316.5 143C321.802 143 332.849 143.5 335.5 159" stroke="black"/>
<path d="M316.5 156C316.5 161.5 310.5 162 310.5 172.5C310.5 177.683 305.026 181 297.5 181C296 181 293.7 180.2 294.5 175" stroke="black"/>
<path d="M316.5 156C316.5 161.5 322.5 162 322.5 172.5C322.5 177.683 327.974 181 335.5 181C337 181 339.3 180.2 338.5 175" stroke="black"/>
<ellipse cx="316.5" cy="145.5" rx="8" ry="3.5" fill="black"/>
</g>
<defs>
<clipPath id="clip0_3276_4807">
<rect width="522" height="206" fill="white"/>
</clipPath>
</defs>
</svg>
