<svg width="608" height="385" viewBox="0 0 608 385" fill="none" xmlns="http://www.w3.org/2000/svg">
<g clip-path="url(#clip0_4157_17714)">
<rect y="0.560059" width="608" height="384" rx="24" fill="#F9FAFB"/>
<rect x="70" y="40.5601" width="585" height="48" rx="8" fill="#0018FF" fill-opacity="0.08"/>
<rect x="70.5" y="41.0601" width="584" height="47" rx="7.5" stroke="#0018FF" stroke-opacity="0.8"/>
<rect x="86" y="52.5601" width="41" height="24" rx="6" fill="#0018FF"/>
<path d="M98.7828 68.6801C97.9868 68.6801 97.2948 68.5001 96.7068 68.1401C96.1228 67.7761 95.6708 67.2621 95.3508 66.5981C95.0348 65.9341 94.8768 65.1501 94.8768 64.2461C94.8768 63.3261 95.0428 62.5321 95.3748 61.8641C95.7108 61.1921 96.1788 60.6741 96.7788 60.3101C97.3788 59.9461 98.0788 59.7641 98.8788 59.7641C99.3948 59.7641 99.8648 59.8461 100.289 60.0101C100.713 60.1741 101.081 60.3981 101.393 60.6821C101.709 60.9661 101.955 61.2881 102.131 61.6481C102.311 62.0041 102.409 62.3741 102.425 62.7581H100.577C100.525 62.4821 100.421 62.2301 100.265 62.0021C100.113 61.7741 99.9168 61.5921 99.6768 61.4561C99.4368 61.3161 99.1568 61.2461 98.8368 61.2461C98.4528 61.2461 98.1048 61.3461 97.7928 61.5461C97.4808 61.7421 97.2348 62.0561 97.0548 62.4881C96.8748 62.9201 96.7848 63.4901 96.7848 64.1981C96.7848 64.7701 96.8428 65.2461 96.9588 65.6261C97.0788 66.0061 97.2388 66.3081 97.4388 66.5321C97.6388 66.7521 97.8668 66.9081 98.1228 67.0001C98.3788 67.0921 98.6408 67.1381 98.9088 67.1381C99.1648 67.1381 99.3928 67.0961 99.5928 67.0121C99.7968 66.9241 99.9708 66.8121 100.115 66.6761C100.259 66.5401 100.373 66.3921 100.457 66.2321C100.541 66.0681 100.595 65.9081 100.619 65.7521L100.685 65.2241H98.8908V64.0121L102.521 64.0301V68.5601H101.327V67.4261C101.179 67.6221 100.995 67.8181 100.775 68.0141C100.559 68.2061 100.289 68.3661 99.9648 68.4941C99.6448 68.6181 99.2508 68.6801 98.7828 68.6801ZM104.378 68.5601V59.8841H110.336L110.33 61.3601H106.136V63.4661H109.778V64.9121H106.124V67.0661L110.396 67.0721V68.5601H104.378ZM114.155 68.5601V61.4441H111.533V59.8841H118.475V61.4441H115.913V68.5601H114.155Z" fill="white"/>
<path d="M148.356 57.2561L145.068 70.6001H143.988L147.264 57.2561H148.356ZM149.575 65.2481C149.575 64.5761 149.711 63.9881 149.983 63.4841C150.255 62.9721 150.627 62.5761 151.099 62.2961C151.579 62.0161 152.111 61.8761 152.695 61.8761C153.271 61.8761 153.771 62.0001 154.195 62.2481C154.619 62.4961 154.935 62.8081 155.143 63.1841V61.9841H156.247V68.5601H155.143V67.3361C154.927 67.7201 154.603 68.0401 154.171 68.2961C153.747 68.5441 153.251 68.6681 152.683 68.6681C152.099 68.6681 151.571 68.5241 151.099 68.2361C150.627 67.9481 150.255 67.5441 149.983 67.0241C149.711 66.5041 149.575 65.9121 149.575 65.2481ZM155.143 65.2601C155.143 64.7641 155.043 64.3321 154.843 63.9641C154.643 63.5961 154.371 63.3161 154.027 63.1241C153.691 62.9241 153.319 62.8241 152.911 62.8241C152.503 62.8241 152.131 62.9201 151.795 63.1121C151.459 63.3041 151.191 63.5841 150.991 63.9521C150.791 64.3201 150.691 64.7521 150.691 65.2481C150.691 65.7521 150.791 66.1921 150.991 66.5681C151.191 66.9361 151.459 67.2201 151.795 67.4201C152.131 67.6121 152.503 67.7081 152.911 67.7081C153.319 67.7081 153.691 67.6121 154.027 67.4201C154.371 67.2201 154.643 66.9361 154.843 66.5681C155.043 66.1921 155.143 65.7561 155.143 65.2601ZM159.184 63.1961C159.4 62.8201 159.72 62.5081 160.144 62.2601C160.576 62.0041 161.076 61.8761 161.644 61.8761C162.228 61.8761 162.756 62.0161 163.228 62.2961C163.708 62.5761 164.084 62.9721 164.356 63.4841C164.628 63.9881 164.764 64.5761 164.764 65.2481C164.764 65.9121 164.628 66.5041 164.356 67.0241C164.084 67.5441 163.708 67.9481 163.228 68.2361C162.756 68.5241 162.228 68.6681 161.644 68.6681C161.084 68.6681 160.588 68.5441 160.156 68.2961C159.732 68.0401 159.408 67.7241 159.184 67.3481V71.6801H158.092V61.9841H159.184V63.1961ZM163.648 65.2481C163.648 64.7521 163.548 64.3201 163.348 63.9521C163.148 63.5841 162.876 63.3041 162.532 63.1121C162.196 62.9201 161.824 62.8241 161.416 62.8241C161.016 62.8241 160.644 62.9241 160.3 63.1241C159.964 63.3161 159.692 63.6001 159.484 63.9761C159.284 64.3441 159.184 64.7721 159.184 65.2601C159.184 65.7561 159.284 66.1921 159.484 66.5681C159.692 66.9361 159.964 67.2201 160.3 67.4201C160.644 67.6121 161.016 67.7081 161.416 67.7081C161.824 67.7081 162.196 67.6121 162.532 67.4201C162.876 67.2201 163.148 66.9361 163.348 66.5681C163.548 66.1921 163.648 65.7521 163.648 65.2481ZM166.765 60.9161C166.557 60.9161 166.381 60.8441 166.237 60.7001C166.093 60.5561 166.021 60.3801 166.021 60.1721C166.021 59.9641 166.093 59.7881 166.237 59.6441C166.381 59.5001 166.557 59.4281 166.765 59.4281C166.965 59.4281 167.133 59.5001 167.269 59.6441C167.413 59.7881 167.485 59.9641 167.485 60.1721C167.485 60.3801 167.413 60.5561 167.269 60.7001C167.133 60.8441 166.965 60.9161 166.765 60.9161ZM167.293 61.9841V68.5601H166.201V61.9841H167.293ZM173.234 57.2561L169.946 70.6001H168.866L172.142 57.2561H173.234ZM177.31 67.5521L179.35 61.9841H180.514L177.934 68.5601H176.662L174.082 61.9841H175.258L177.31 67.5521ZM181.12 60.8801V59.8841H183.376V68.5601H182.272V60.8801H181.12ZM189.512 57.2561L186.224 70.6001H185.144L188.42 57.2561H189.512ZM190.731 65.2601C190.731 64.5801 190.867 63.9881 191.139 63.4841C191.411 62.9721 191.787 62.5761 192.267 62.2961C192.755 62.0161 193.311 61.8761 193.935 61.8761C194.743 61.8761 195.407 62.0721 195.927 62.4641C196.455 62.8561 196.803 63.4001 196.971 64.0961H195.795C195.683 63.6961 195.463 63.3801 195.135 63.1481C194.815 62.9161 194.415 62.8001 193.935 62.8001C193.311 62.8001 192.807 63.0161 192.423 63.4481C192.039 63.8721 191.847 64.4761 191.847 65.2601C191.847 66.0521 192.039 66.6641 192.423 67.0961C192.807 67.5281 193.311 67.7441 193.935 67.7441C194.415 67.7441 194.815 67.6321 195.135 67.4081C195.455 67.1841 195.675 66.8641 195.795 66.4481H196.971C196.795 67.1201 196.443 67.6601 195.915 68.0681C195.387 68.4681 194.727 68.6681 193.935 68.6681C193.311 68.6681 192.755 68.5281 192.267 68.2481C191.787 67.9681 191.411 67.5721 191.139 67.0601C190.867 66.5481 190.731 65.9481 190.731 65.2601ZM204.26 61.9841V68.5601H203.168V67.5881C202.96 67.9241 202.668 68.1881 202.292 68.3801C201.924 68.5641 201.516 68.6561 201.068 68.6561C200.556 68.6561 200.096 68.5521 199.688 68.3441C199.28 68.1281 198.956 67.8081 198.716 67.3841C198.484 66.9601 198.368 66.4441 198.368 65.8361V61.9841H199.448V65.6921C199.448 66.3401 199.612 66.8401 199.94 67.1921C200.268 67.5361 200.716 67.7081 201.284 67.7081C201.868 67.7081 202.328 67.5281 202.664 67.1681C203 66.8081 203.168 66.2841 203.168 65.5961V61.9841H204.26ZM208.432 68.6681C207.928 68.6681 207.476 68.5841 207.076 68.4161C206.676 68.2401 206.36 68.0001 206.128 67.6961C205.896 67.3841 205.768 67.0281 205.744 66.6281H206.872C206.904 66.9561 207.056 67.2241 207.328 67.4321C207.608 67.6401 207.972 67.7441 208.42 67.7441C208.836 67.7441 209.164 67.6521 209.404 67.4681C209.644 67.2841 209.764 67.0521 209.764 66.7721C209.764 66.4841 209.636 66.2721 209.38 66.1361C209.124 65.9921 208.728 65.8521 208.192 65.7161C207.704 65.5881 207.304 65.4601 206.992 65.3321C206.688 65.1961 206.424 65.0001 206.2 64.7441C205.984 64.4801 205.876 64.1361 205.876 63.7121C205.876 63.3761 205.976 63.0681 206.176 62.7881C206.376 62.5081 206.66 62.2881 207.028 62.1281C207.396 61.9601 207.816 61.8761 208.288 61.8761C209.016 61.8761 209.604 62.0601 210.052 62.4281C210.5 62.7961 210.74 63.3001 210.772 63.9401H209.68C209.656 63.5961 209.516 63.3201 209.26 63.1121C209.012 62.9041 208.676 62.8001 208.252 62.8001C207.86 62.8001 207.548 62.8841 207.316 63.0521C207.084 63.2201 206.968 63.4401 206.968 63.7121C206.968 63.9281 207.036 64.1081 207.172 64.2521C207.316 64.3881 207.492 64.5001 207.7 64.5881C207.916 64.6681 208.212 64.7601 208.588 64.8641C209.06 64.9921 209.444 65.1201 209.74 65.2481C210.036 65.3681 210.288 65.5521 210.496 65.8001C210.712 66.0481 210.824 66.3721 210.832 66.7721C210.832 67.1321 210.732 67.4561 210.532 67.7441C210.332 68.0321 210.048 68.2601 209.68 68.4281C209.32 68.5881 208.904 68.6681 208.432 68.6681ZM213.705 62.8841V66.7601C213.705 67.0801 213.773 67.3081 213.909 67.4441C214.045 67.5721 214.281 67.6361 214.617 67.6361H215.421V68.5601H214.437C213.829 68.5601 213.373 68.4201 213.069 68.1401C212.765 67.8601 212.613 67.4001 212.613 66.7601V62.8841H211.761V61.9841H212.613V60.3281H213.705V61.9841H215.421V62.8841H213.705ZM219.612 68.6681C218.996 68.6681 218.436 68.5281 217.932 68.2481C217.436 67.9681 217.044 67.5721 216.756 67.0601C216.476 66.5401 216.336 65.9401 216.336 65.2601C216.336 64.5881 216.48 63.9961 216.768 63.4841C217.064 62.9641 217.464 62.5681 217.968 62.2961C218.472 62.0161 219.036 61.8761 219.66 61.8761C220.284 61.8761 220.848 62.0161 221.352 62.2961C221.856 62.5681 222.252 62.9601 222.54 63.4721C222.836 63.9841 222.984 64.5801 222.984 65.2601C222.984 65.9401 222.832 66.5401 222.528 67.0601C222.232 67.5721 221.828 67.9681 221.316 68.2481C220.804 68.5281 220.236 68.6681 219.612 68.6681ZM219.612 67.7081C220.004 67.7081 220.372 67.6161 220.716 67.4321C221.06 67.2481 221.336 66.9721 221.544 66.6041C221.76 66.2361 221.868 65.7881 221.868 65.2601C221.868 64.7321 221.764 64.2841 221.556 63.9161C221.348 63.5481 221.076 63.2761 220.74 63.1001C220.404 62.9161 220.04 62.8241 219.648 62.8241C219.248 62.8241 218.88 62.9161 218.544 63.1001C218.216 63.2761 217.952 63.5481 217.752 63.9161C217.552 64.2841 217.452 64.7321 217.452 65.2601C217.452 65.7961 217.548 66.2481 217.74 66.6161C217.94 66.9841 218.204 67.2601 218.532 67.4441C218.86 67.6201 219.22 67.7081 219.612 67.7081ZM232.328 61.8641C232.84 61.8641 233.296 61.9721 233.696 62.1881C234.096 62.3961 234.412 62.7121 234.644 63.1361C234.876 63.5601 234.992 64.0761 234.992 64.6841V68.5601H233.912V64.8401C233.912 64.1841 233.748 63.6841 233.42 63.3401C233.1 62.9881 232.664 62.8121 232.112 62.8121C231.544 62.8121 231.092 62.9961 230.756 63.3641C230.42 63.7241 230.252 64.2481 230.252 64.9361V68.5601H229.172V64.8401C229.172 64.1841 229.008 63.6841 228.68 63.3401C228.36 62.9881 227.924 62.8121 227.372 62.8121C226.804 62.8121 226.352 62.9961 226.016 63.3641C225.68 63.7241 225.512 64.2481 225.512 64.9361V68.5601H224.42V61.9841H225.512V62.9321C225.728 62.5881 226.016 62.3241 226.376 62.1401C226.744 61.9561 227.148 61.8641 227.588 61.8641C228.14 61.8641 228.628 61.9881 229.052 62.2361C229.476 62.4841 229.792 62.8481 230 63.3281C230.184 62.8641 230.488 62.5041 230.912 62.2481C231.336 61.9921 231.808 61.8641 232.328 61.8641ZM242.783 65.0201C242.783 65.2281 242.771 65.4481 242.747 65.6801H237.491C237.531 66.3281 237.751 66.8361 238.151 67.2041C238.559 67.5641 239.051 67.7441 239.627 67.7441C240.099 67.7441 240.491 67.6361 240.803 67.4201C241.123 67.1961 241.347 66.9001 241.475 66.5321H242.651C242.475 67.1641 242.123 67.6801 241.595 68.0801C241.067 68.4721 240.411 68.6681 239.627 68.6681C239.003 68.6681 238.443 68.5281 237.947 68.2481C237.459 67.9681 237.075 67.5721 236.795 67.0601C236.515 66.5401 236.375 65.9401 236.375 65.2601C236.375 64.5801 236.511 63.9841 236.783 63.4721C237.055 62.9601 237.435 62.5681 237.923 62.2961C238.419 62.0161 238.987 61.8761 239.627 61.8761C240.251 61.8761 240.803 62.0121 241.283 62.2841C241.763 62.5561 242.131 62.9321 242.387 63.4121C242.651 63.8841 242.783 64.4201 242.783 65.0201ZM241.655 64.7921C241.655 64.3761 241.563 64.0201 241.379 63.7241C241.195 63.4201 240.943 63.1921 240.623 63.0401C240.311 62.8801 239.963 62.8001 239.579 62.8001C239.027 62.8001 238.555 62.9761 238.163 63.3281C237.779 63.6801 237.559 64.1681 237.503 64.7921H241.655ZM245.317 63.0521C245.509 62.6761 245.781 62.3841 246.133 62.1761C246.493 61.9681 246.929 61.8641 247.441 61.8641V62.9921H247.153C245.929 62.9921 245.317 63.6561 245.317 64.9841V68.5601H244.225V61.9841H245.317V63.0521ZM251.029 68.6681C250.525 68.6681 250.073 68.5841 249.673 68.4161C249.273 68.2401 248.957 68.0001 248.725 67.6961C248.493 67.3841 248.365 67.0281 248.341 66.6281H249.469C249.501 66.9561 249.653 67.2241 249.925 67.4321C250.205 67.6401 250.569 67.7441 251.017 67.7441C251.433 67.7441 251.761 67.6521 252.001 67.4681C252.241 67.2841 252.361 67.0521 252.361 66.7721C252.361 66.4841 252.233 66.2721 251.977 66.1361C251.721 65.9921 251.325 65.8521 250.789 65.7161C250.301 65.5881 249.901 65.4601 249.589 65.3321C249.285 65.1961 249.021 65.0001 248.797 64.7441C248.581 64.4801 248.473 64.1361 248.473 63.7121C248.473 63.3761 248.573 63.0681 248.773 62.7881C248.973 62.5081 249.257 62.2881 249.625 62.1281C249.993 61.9601 250.413 61.8761 250.885 61.8761C251.613 61.8761 252.201 62.0601 252.649 62.4281C253.097 62.7961 253.337 63.3001 253.369 63.9401H252.277C252.253 63.5961 252.113 63.3201 251.857 63.1121C251.609 62.9041 251.273 62.8001 250.849 62.8001C250.457 62.8001 250.145 62.8841 249.913 63.0521C249.681 63.2201 249.565 63.4401 249.565 63.7121C249.565 63.9281 249.633 64.1081 249.769 64.2521C249.913 64.3881 250.089 64.5001 250.297 64.5881C250.513 64.6681 250.809 64.7601 251.185 64.8641C251.657 64.9921 252.041 65.1201 252.337 65.2481C252.633 65.3681 252.885 65.5521 253.093 65.8001C253.309 66.0481 253.421 66.3721 253.429 66.7721C253.429 67.1321 253.329 67.4561 253.129 67.7441C252.929 68.0321 252.645 68.2601 252.277 68.4281C251.917 68.5881 251.501 68.6681 251.029 68.6681ZM259.051 57.2561L255.763 70.6001H254.683L257.959 57.2561H259.051ZM260.21 60.8801V59.8841H262.466V68.5601H261.362V60.8801H260.21ZM264.21 67.6841C265.226 66.8681 266.022 66.2001 266.598 65.6801C267.174 65.1521 267.658 64.6041 268.05 64.0361C268.45 63.4601 268.65 62.8961 268.65 62.3441C268.65 61.8241 268.522 61.4161 268.266 61.1201C268.018 60.8161 267.614 60.6641 267.054 60.6641C266.51 60.6641 266.086 60.8361 265.782 61.1801C265.486 61.5161 265.326 61.9681 265.302 62.5361H264.246C264.278 61.6401 264.55 60.9481 265.062 60.4601C265.574 59.9721 266.234 59.7281 267.042 59.7281C267.866 59.7281 268.518 59.9561 268.998 60.4121C269.486 60.8681 269.73 61.4961 269.73 62.2961C269.73 62.9601 269.53 63.6081 269.13 64.2401C268.738 64.8641 268.29 65.4161 267.786 65.8961C267.282 66.3681 266.638 66.9201 265.854 67.5521H269.982V68.4641H264.21V67.6841ZM271.22 62.0681C271.276 61.3321 271.56 60.7561 272.072 60.3401C272.584 59.9241 273.248 59.7161 274.064 59.7161C274.608 59.7161 275.076 59.8161 275.468 60.0161C275.868 60.2081 276.168 60.4721 276.368 60.8081C276.576 61.1441 276.68 61.5241 276.68 61.9481C276.68 62.4441 276.536 62.8721 276.248 63.2321C275.968 63.5921 275.6 63.8241 275.144 63.9281V63.9881C275.664 64.1161 276.076 64.3681 276.38 64.7441C276.684 65.1201 276.836 65.6121 276.836 66.2201C276.836 66.6761 276.732 67.0881 276.524 67.4561C276.316 67.8161 276.004 68.1001 275.588 68.3081C275.172 68.5161 274.672 68.6201 274.088 68.6201C273.24 68.6201 272.544 68.4001 272 67.9601C271.456 67.5121 271.152 66.8801 271.088 66.0641H272.144C272.2 66.5441 272.396 66.9361 272.732 67.2401C273.068 67.5441 273.516 67.6961 274.076 67.6961C274.636 67.6961 275.06 67.5521 275.348 67.2641C275.644 66.9681 275.792 66.5881 275.792 66.1241C275.792 65.5241 275.592 65.0921 275.192 64.8281C274.792 64.5641 274.188 64.4321 273.38 64.4321H273.104V63.5201H273.392C274.128 63.5121 274.684 63.3921 275.06 63.1601C275.436 62.9201 275.624 62.5521 275.624 62.0561C275.624 61.6321 275.484 61.2921 275.204 61.0361C274.932 60.7801 274.54 60.6521 274.028 60.6521C273.532 60.6521 273.132 60.7801 272.828 61.0361C272.524 61.2921 272.344 61.6361 272.288 62.0681H271.22ZM278.046 66.6281V65.8001L282.258 59.9681H283.566V65.6801H284.766V66.6281H283.566V68.5601H282.486V66.6281H278.046ZM282.534 61.1081L279.306 65.6801H282.534V61.1081ZM291.389 60.8321H287.177V63.5681C287.361 63.3121 287.633 63.1041 287.993 62.9441C288.353 62.7761 288.741 62.6921 289.157 62.6921C289.821 62.6921 290.361 62.8321 290.777 63.1121C291.193 63.3841 291.489 63.7401 291.665 64.1801C291.849 64.6121 291.941 65.0721 291.941 65.5601C291.941 66.1361 291.833 66.6521 291.617 67.1081C291.401 67.5641 291.069 67.9241 290.621 68.1881C290.181 68.4521 289.633 68.5841 288.977 68.5841C288.137 68.5841 287.457 68.3681 286.937 67.9361C286.417 67.5041 286.101 66.9281 285.989 66.2081H287.057C287.161 66.6641 287.381 67.0201 287.717 67.2761C288.053 67.5321 288.477 67.6601 288.989 67.6601C289.621 67.6601 290.097 67.4721 290.417 67.0961C290.737 66.7121 290.897 66.2081 290.897 65.5841C290.897 64.9601 290.737 64.4801 290.417 64.1441C290.097 63.8001 289.625 63.6281 289.001 63.6281C288.577 63.6281 288.205 63.7321 287.885 63.9401C287.573 64.1401 287.345 64.4161 287.201 64.7681H286.169V59.8721H291.389V60.8321Z" fill="black"/>
<g filter="url(#filter0_dd_4157_17714)">
<rect x="329" y="309.56" width="39" height="40" rx="19.5" fill="#001A41" shape-rendering="crispEdges"/>
<circle cx="348.5" cy="329.56" r="12" fill="black"/>
<path d="M355.274 326.769C355.084 326.673 354.876 326.571 354.812 326.548C355.721 328.442 354.839 329.562 354.839 329.562L354.761 329.115C354.434 327.382 353.077 326.295 351.396 326.295C350.841 326.295 350.281 326.424 349.773 326.669L349.056 327.016L349.459 326.328C349.572 326.13 349.7 325.957 349.821 325.825C349.987 325.619 350.216 325.426 350.487 325.26C351.046 324.874 351.748 324.664 352.502 324.664C353.162 324.664 353.793 324.822 354.309 325.083C355.027 325.447 355.51 326.156 355.638 326.953C355.638 326.953 355.463 326.865 355.274 326.768V326.769Z" fill="white"/>
<path d="M360.5 329.562C360.5 333.595 358.51 337.164 355.459 339.339C353.742 336.377 355.459 333.381 355.459 333.381L356.164 334.879C357.486 333.21 358.736 330.665 358.182 327.326C357.897 325.607 357.013 324.131 355.551 322.938C354.588 322.149 353.451 321.749 352.172 321.749C350.782 321.749 349.51 322.211 348.678 322.558L348.5 322.633L348.321 322.558C347.488 322.211 346.217 321.749 344.825 321.749C343.549 321.749 342.413 322.149 341.445 322.938C339.986 324.131 339.101 325.607 338.817 327.326C338.262 330.665 339.512 333.209 340.836 334.879L341.538 333.381C341.538 333.381 343.254 336.377 341.538 339.339C338.487 337.164 336.5 333.595 336.5 329.562C336.5 322.934 341.87 317.56 348.499 317.56C355.127 317.56 360.5 322.934 360.5 329.562Z" fill="white"/>
<path d="M347.939 327.016L347.225 326.669C346.717 326.424 346.157 326.294 345.6 326.294C343.923 326.294 342.563 327.382 342.237 329.115L342.159 329.562C342.159 329.562 341.276 328.442 342.187 326.548C342.124 326.571 341.918 326.673 341.725 326.769C341.535 326.866 341.359 326.954 341.359 326.954C341.487 326.157 341.967 325.448 342.689 325.084C343.205 324.823 343.837 324.665 344.495 324.665C345.249 324.665 345.949 324.874 346.511 325.261C346.784 325.427 347.011 325.62 347.18 325.826C347.298 325.958 347.422 326.131 347.542 326.329L347.938 327.017L347.939 327.016Z" fill="white"/>
<path d="M353.257 332.845L353.014 335.925L352.236 335.421C352.229 335.413 352.219 335.409 352.209 335.401L351.779 335.12L351.334 334.831L350.201 334.093C349.48 333.618 349.04 332.789 349.04 331.89V331.329C349.387 331.175 349.625 330.878 349.625 330.536C349.625 330.211 349.416 329.928 349.102 329.769C349.075 329.757 349.051 329.745 349.025 329.736C348.871 329.67 348.69 329.63 348.5 329.63C348.309 329.63 348.128 329.67 347.973 329.736C347.946 329.745 347.922 329.757 347.9 329.769C347.583 329.929 347.374 330.212 347.374 330.536C347.374 330.878 347.611 331.174 347.958 331.329V331.89C347.958 332.789 347.519 333.618 346.797 334.093L345.666 334.831L345.221 335.12L344.789 335.401C344.78 335.409 344.772 335.413 344.762 335.421L343.984 335.925L343.744 332.845C343.729 332.103 343.877 331.407 344.175 330.796C344.175 330.791 344.177 330.788 344.177 330.788C344.442 330.245 344.822 329.767 345.322 329.376C346.314 328.593 347.485 328.466 348.5 328.71C349.514 328.467 350.684 328.593 351.677 329.376C352.176 329.767 352.558 330.245 352.823 330.788C352.823 330.788 352.825 330.791 352.825 330.796C353.122 331.407 353.27 332.102 353.258 332.845H353.257Z" fill="white"/>
</g>
<path d="M42.7158 55.3744H35.4455L31.3797 52.3167C31.2323 52.2051 31.0488 52.144 30.8595 52.1434H19.0312C18.2273 52.1434 17.4563 52.4434 16.8878 52.9774C16.3194 53.5114 16 54.2357 16 54.9909V77.1035C15.9988 77.2987 16.0748 77.4874 16.2133 77.633C16.3517 77.7786 16.5428 77.8707 16.7494 77.8915H16.8389C17.0312 77.8908 17.2176 77.8285 17.3671 77.7148C17.5166 77.6011 17.6203 77.4429 17.661 77.2663L21.0893 62.0307C21.1578 61.747 21.3292 61.4944 21.574 61.3162C21.8188 61.138 22.1219 61.0451 22.4315 61.0536H44.9026C45.125 61.0536 45.3384 60.9705 45.4957 60.8228C45.6531 60.675 45.7414 60.4745 45.7414 60.2655V58.2218C45.7414 57.4676 45.4229 56.7441 44.8556 56.2102C44.2884 55.6764 43.5188 55.3758 42.7158 55.3744Z" fill="#DFE3E8"/>
<path d="M48.342 60.5545C48.0581 60.218 47.6968 59.9463 47.2851 59.7597C46.8734 59.5732 46.4222 59.4767 45.9651 59.4775H22.4315C21.7449 59.476 21.0783 59.6942 20.5416 60.0963C20.0048 60.4983 19.6298 61.0602 19.4786 61.6893L16.0447 76.9249C16.0155 77.0391 16.0138 77.1579 16.0398 77.2728C16.0658 77.3877 16.1188 77.4957 16.1949 77.5888C16.271 77.682 16.3684 77.758 16.4798 77.8113C16.5912 77.8646 16.7139 77.8938 16.8389 77.8968H43.1688C43.8558 77.8971 44.5225 77.6777 45.0592 77.2748C45.5959 76.8719 45.9706 76.3093 46.1217 75.6798L48.918 62.9764C49.024 62.5581 49.0273 62.1227 48.9274 61.703C48.8276 61.2834 48.6274 60.8906 48.342 60.5545Z" fill="#919EAB"/>
<g filter="url(#filter1_dd_4157_17714)">
<path d="M375 329.56L381 325.23V333.89L375 329.56Z" fill="white"/>
<rect x="380" y="309.56" width="83" height="40" rx="20" fill="white"/>
<path opacity="0.24" d="M398.5 333.56C400.985 333.56 403 331.545 403 329.06C403 326.575 400.985 324.56 398.5 324.56C396.015 324.56 394 326.575 394 329.06C394 331.545 396.015 333.56 398.5 333.56Z" fill="#919EAB"/>
<path d="M413.5 333.56C415.985 333.56 418 331.545 418 329.06C418 326.575 415.985 324.56 413.5 324.56C411.015 324.56 409 326.575 409 329.06C409 331.545 411.015 333.56 413.5 333.56Z" fill="#919EAB"/>
<path opacity="0.24" d="M428.5 333.56C430.985 333.56 433 331.545 433 329.06C433 326.575 430.985 324.56 428.5 324.56C426.015 324.56 424 326.575 424 329.06C424 331.545 426.015 333.56 428.5 333.56Z" fill="#919EAB"/>
<path opacity="0.24" d="M443.5 333.56C445.985 333.56 448 331.545 448 329.06C448 326.575 445.985 324.56 443.5 324.56C441.015 324.56 439 326.575 439 329.06C439 331.545 441.015 333.56 443.5 333.56Z" fill="#919EAB"/>
</g>
<g filter="url(#filter2_dd_4157_17714)">
<rect x="70" y="128.56" width="211" height="138" rx="16" fill="white" shape-rendering="crispEdges"/>
<path d="M98.0001 150.227H97.3334V148.893C97.3334 147.053 95.8401 145.56 94.0001 145.56C92.1601 145.56 90.6667 147.053 90.6667 148.893V150.227H90.0001C89.2667 150.227 88.6667 150.827 88.6667 151.56V158.227C88.6667 158.96 89.2667 159.56 90.0001 159.56H98.0001C98.7334 159.56 99.3334 158.96 99.3334 158.227V151.56C99.3334 150.827 98.7334 150.227 98.0001 150.227ZM92.0001 148.893C92.0001 147.787 92.8934 146.893 94.0001 146.893C95.1067 146.893 96.0001 147.787 96.0001 148.893V150.227H92.0001V148.893ZM98.0001 158.227H90.0001V151.56H98.0001V158.227ZM94.0001 156.227C94.7334 156.227 95.3334 155.627 95.3334 154.893C95.3334 154.16 94.7334 153.56 94.0001 153.56C93.2667 153.56 92.6667 154.16 92.6667 154.893C92.6667 155.627 93.2667 156.227 94.0001 156.227Z" fill="#637381"/>
<path d="M115.095 157.644C114.319 157.644 113.611 157.464 112.971 157.104C112.331 156.736 111.823 156.228 111.447 155.58C111.079 154.924 110.895 154.188 110.895 153.372C110.895 152.556 111.079 151.824 111.447 151.176C111.823 150.52 112.331 150.012 112.971 149.652C113.611 149.284 114.319 149.1 115.095 149.1C115.879 149.1 116.591 149.284 117.231 149.652C117.871 150.012 118.375 150.516 118.743 151.164C119.111 151.812 119.295 152.548 119.295 153.372C119.295 154.196 119.111 154.932 118.743 155.58C118.375 156.228 117.871 156.736 117.231 157.104C116.591 157.464 115.879 157.644 115.095 157.644ZM115.095 156.696C115.679 156.696 116.203 156.56 116.667 156.288C117.139 156.016 117.507 155.628 117.771 155.124C118.043 154.62 118.179 154.036 118.179 153.372C118.179 152.7 118.043 152.116 117.771 151.62C117.507 151.116 117.143 150.728 116.679 150.456C116.215 150.184 115.687 150.048 115.095 150.048C114.503 150.048 113.975 150.184 113.511 150.456C113.047 150.728 112.679 151.116 112.407 151.62C112.143 152.116 112.011 152.7 112.011 153.372C112.011 154.036 112.143 154.62 112.407 155.124C112.679 155.628 113.047 156.016 113.511 156.288C113.983 156.56 114.511 156.696 115.095 156.696ZM125.681 155.7H122.033L121.361 157.56H120.208L123.233 149.244H124.493L127.505 157.56H126.353L125.681 155.7ZM125.369 154.812L123.857 150.588L122.345 154.812H125.369ZM134.654 150.984V157.56H133.562V156.588C133.354 156.924 133.062 157.188 132.686 157.38C132.318 157.564 131.91 157.656 131.462 157.656C130.95 157.656 130.49 157.552 130.082 157.344C129.674 157.128 129.35 156.808 129.11 156.384C128.878 155.96 128.762 155.444 128.762 154.836V150.984H129.842V154.692C129.842 155.34 130.006 155.84 130.334 156.192C130.662 156.536 131.11 156.708 131.678 156.708C132.262 156.708 132.722 156.528 133.058 156.168C133.394 155.808 133.562 155.284 133.562 154.596V150.984H134.654ZM137.83 151.884V155.76C137.83 156.08 137.898 156.308 138.034 156.444C138.17 156.572 138.406 156.636 138.742 156.636H139.546V157.56H138.562C137.954 157.56 137.498 157.42 137.194 157.14C136.89 156.86 136.738 156.4 136.738 155.76V151.884H135.886V150.984H136.738V149.328H137.83V150.984H139.546V151.884H137.83ZM144.133 150.864C144.629 150.864 145.077 150.972 145.477 151.188C145.877 151.396 146.189 151.712 146.413 152.136C146.645 152.56 146.761 153.076 146.761 153.684V157.56H145.681V153.84C145.681 153.184 145.517 152.684 145.189 152.34C144.861 151.988 144.413 151.812 143.845 151.812C143.269 151.812 142.809 151.992 142.465 152.352C142.129 152.712 141.961 153.236 141.961 153.924V157.56H140.869V148.68H141.961V151.92C142.177 151.584 142.473 151.324 142.849 151.14C143.233 150.956 143.661 150.864 144.133 150.864Z" fill="#637381"/>
<rect x="86" y="170.56" width="111" height="14" rx="7" fill="#DFE3E8"/>
<rect x="86" y="192.56" width="179" height="14" rx="7" fill="#C4CDD5"/>
<rect x="86" y="214.56" width="144" height="14" rx="7" fill="#DFE3E8"/>
<rect x="86" y="236.56" width="111" height="14" rx="7" fill="#F4F6F8"/>
</g>
<rect x="329" y="221.56" width="111" height="14" rx="7" fill="#DFE3E8"/>
<rect x="329" y="243.56" width="179" height="14" rx="7" fill="#C4CDD5"/>
<rect x="329" y="265.56" width="144" height="14" rx="7" fill="#DFE3E8"/>
<g filter="url(#filter3_dd_4157_17714)">
<rect x="329" y="128.56" width="211" height="72" rx="16" fill="white" shape-rendering="crispEdges"/>
<rect x="344.5" y="144.06" width="17" height="17" rx="8.5" fill="#01E67A"/>
<rect x="344.5" y="144.06" width="17" height="17" rx="8.5" stroke="white"/>
<rect x="369" y="144.56" width="62" height="16" rx="8" fill="#DFE3E8"/>
<rect x="344.5" y="168.06" width="17" height="17" rx="8.5" fill="#EC1D23"/>
<rect x="344.5" y="168.06" width="17" height="17" rx="8.5" stroke="white"/>
<rect x="369" y="168.56" width="62" height="16" rx="8" fill="#DFE3E8"/>
</g>
<g filter="url(#filter4_dd_4157_17714)">
<rect x="70" y="306.56" width="211" height="138" rx="16" fill="white" shape-rendering="crispEdges"/>
<path d="M98.0001 328.227H97.3334V326.893C97.3334 325.053 95.8401 323.56 94.0001 323.56C92.1601 323.56 90.6667 325.053 90.6667 326.893V328.227H90.0001C89.2667 328.227 88.6667 328.827 88.6667 329.56V336.227C88.6667 336.96 89.2667 337.56 90.0001 337.56H98.0001C98.7334 337.56 99.3334 336.96 99.3334 336.227V329.56C99.3334 328.827 98.7334 328.227 98.0001 328.227ZM92.0001 326.893C92.0001 325.787 92.8934 324.893 94.0001 324.893C95.1067 324.893 96.0001 325.787 96.0001 326.893V328.227H92.0001V326.893ZM98.0001 336.227H90.0001V329.56H98.0001V336.227ZM94.0001 334.227C94.7334 334.227 95.3334 333.627 95.3334 332.893C95.3334 332.16 94.7334 331.56 94.0001 331.56C93.2667 331.56 92.6667 332.16 92.6667 332.893C92.6667 333.627 93.2667 334.227 94.0001 334.227Z" fill="#637381"/>
<path d="M116.081 333.7H112.433L111.761 335.56H110.609L113.633 327.244H114.893L117.905 335.56H116.753L116.081 333.7ZM115.769 332.812L114.257 328.588L112.745 332.812H115.769ZM124.815 329.644C124.815 330.34 124.575 330.92 124.095 331.384C123.623 331.84 122.899 332.068 121.923 332.068H120.315V335.56H119.223V327.196H121.923C122.867 327.196 123.583 327.424 124.071 327.88C124.567 328.336 124.815 328.924 124.815 329.644ZM121.923 331.168C122.531 331.168 122.979 331.036 123.267 330.772C123.555 330.508 123.699 330.132 123.699 329.644C123.699 328.612 123.107 328.096 121.923 328.096H120.315V331.168H121.923ZM127.264 327.196V335.56H126.172V327.196H127.264ZM136.86 335.56L133.416 331.744V335.56H132.324V327.196H133.416V331.072L136.872 327.196H138.252L134.46 331.384L138.288 335.56H136.86ZM145.508 332.02C145.508 332.228 145.496 332.448 145.472 332.68H140.216C140.256 333.328 140.476 333.836 140.876 334.204C141.284 334.564 141.776 334.744 142.352 334.744C142.824 334.744 143.216 334.636 143.528 334.42C143.848 334.196 144.072 333.9 144.2 333.532H145.376C145.2 334.164 144.848 334.68 144.32 335.08C143.792 335.472 143.136 335.668 142.352 335.668C141.728 335.668 141.168 335.528 140.672 335.248C140.184 334.968 139.8 334.572 139.52 334.06C139.24 333.54 139.1 332.94 139.1 332.26C139.1 331.58 139.236 330.984 139.508 330.472C139.78 329.96 140.16 329.568 140.648 329.296C141.144 329.016 141.712 328.876 142.352 328.876C142.976 328.876 143.528 329.012 144.008 329.284C144.488 329.556 144.856 329.932 145.112 330.412C145.376 330.884 145.508 331.42 145.508 332.02ZM144.38 331.792C144.38 331.376 144.288 331.02 144.104 330.724C143.92 330.42 143.668 330.192 143.348 330.04C143.036 329.88 142.688 329.8 142.304 329.8C141.752 329.8 141.28 329.976 140.888 330.328C140.504 330.68 140.284 331.168 140.228 331.792H144.38ZM152.613 328.984L148.653 338.656H147.525L148.821 335.488L146.169 328.984H147.381L149.445 334.312L151.485 328.984H152.613Z" fill="#637381"/>
<rect x="86" y="348.56" width="111" height="14" rx="7" fill="#DFE3E8"/>
<rect x="86" y="370.56" width="167" height="14" rx="7" fill="#C4CDD5"/>
</g>
<rect x="71" y="100.56" width="62" height="16" rx="8" fill="#DFE3E8"/>
<rect x="329" y="100.56" width="62" height="16" rx="8" fill="#DFE3E8"/>
<rect x="71" y="278.56" width="62" height="16" rx="8" fill="#DFE3E8"/>
</g>
<defs>
<filter id="filter0_dd_4157_17714" x="309" y="301.56" width="79" height="80" filterUnits="userSpaceOnUse" color-interpolation-filters="sRGB">
<feFlood flood-opacity="0" result="BackgroundImageFix"/>
<feColorMatrix in="SourceAlpha" type="matrix" values="0 0 0 0 0 0 0 0 0 0 0 0 0 0 0 0 0 0 127 0" result="hardAlpha"/>
<feMorphology radius="4" operator="erode" in="SourceAlpha" result="effect1_dropShadow_4157_17714"/>
<feOffset dy="12"/>
<feGaussianBlur stdDeviation="12"/>
<feColorMatrix type="matrix" values="0 0 0 0 0.568627 0 0 0 0 0.619608 0 0 0 0 0.670588 0 0 0 0.12 0"/>
<feBlend mode="normal" in2="BackgroundImageFix" result="effect1_dropShadow_4157_17714"/>
<feColorMatrix in="SourceAlpha" type="matrix" values="0 0 0 0 0 0 0 0 0 0 0 0 0 0 0 0 0 0 127 0" result="hardAlpha"/>
<feOffset/>
<feGaussianBlur stdDeviation="1"/>
<feComposite in2="hardAlpha" operator="out"/>
<feColorMatrix type="matrix" values="0 0 0 0 0.568627 0 0 0 0 0.619608 0 0 0 0 0.670588 0 0 0 0.2 0"/>
<feBlend mode="normal" in2="effect1_dropShadow_4157_17714" result="effect2_dropShadow_4157_17714"/>
<feBlend mode="normal" in="SourceGraphic" in2="effect2_dropShadow_4157_17714" result="shape"/>
</filter>
<filter id="filter1_dd_4157_17714" x="355" y="301.56" width="128" height="80" filterUnits="userSpaceOnUse" color-interpolation-filters="sRGB">
<feFlood flood-opacity="0" result="BackgroundImageFix"/>
<feColorMatrix in="SourceAlpha" type="matrix" values="0 0 0 0 0 0 0 0 0 0 0 0 0 0 0 0 0 0 127 0" result="hardAlpha"/>
<feMorphology radius="4" operator="erode" in="SourceAlpha" result="effect1_dropShadow_4157_17714"/>
<feOffset dy="12"/>
<feGaussianBlur stdDeviation="12"/>
<feColorMatrix type="matrix" values="0 0 0 0 0.568627 0 0 0 0 0.619608 0 0 0 0 0.670588 0 0 0 0.12 0"/>
<feBlend mode="normal" in2="BackgroundImageFix" result="effect1_dropShadow_4157_17714"/>
<feColorMatrix in="SourceAlpha" type="matrix" values="0 0 0 0 0 0 0 0 0 0 0 0 0 0 0 0 0 0 127 0" result="hardAlpha"/>
<feOffset/>
<feGaussianBlur stdDeviation="1"/>
<feComposite in2="hardAlpha" operator="out"/>
<feColorMatrix type="matrix" values="0 0 0 0 0.568627 0 0 0 0 0.619608 0 0 0 0 0.670588 0 0 0 0.2 0"/>
<feBlend mode="normal" in2="effect1_dropShadow_4157_17714" result="effect2_dropShadow_4157_17714"/>
<feBlend mode="normal" in="SourceGraphic" in2="effect2_dropShadow_4157_17714" result="shape"/>
</filter>
<filter id="filter2_dd_4157_17714" x="50" y="120.56" width="251" height="178" filterUnits="userSpaceOnUse" color-interpolation-filters="sRGB">
<feFlood flood-opacity="0" result="BackgroundImageFix"/>
<feColorMatrix in="SourceAlpha" type="matrix" values="0 0 0 0 0 0 0 0 0 0 0 0 0 0 0 0 0 0 127 0" result="hardAlpha"/>
<feMorphology radius="4" operator="erode" in="SourceAlpha" result="effect1_dropShadow_4157_17714"/>
<feOffset dy="12"/>
<feGaussianBlur stdDeviation="12"/>
<feColorMatrix type="matrix" values="0 0 0 0 0.568627 0 0 0 0 0.619608 0 0 0 0 0.670588 0 0 0 0.12 0"/>
<feBlend mode="normal" in2="BackgroundImageFix" result="effect1_dropShadow_4157_17714"/>
<feColorMatrix in="SourceAlpha" type="matrix" values="0 0 0 0 0 0 0 0 0 0 0 0 0 0 0 0 0 0 127 0" result="hardAlpha"/>
<feOffset/>
<feGaussianBlur stdDeviation="1"/>
<feComposite in2="hardAlpha" operator="out"/>
<feColorMatrix type="matrix" values="0 0 0 0 0.568627 0 0 0 0 0.619608 0 0 0 0 0.670588 0 0 0 0.2 0"/>
<feBlend mode="normal" in2="effect1_dropShadow_4157_17714" result="effect2_dropShadow_4157_17714"/>
<feBlend mode="normal" in="SourceGraphic" in2="effect2_dropShadow_4157_17714" result="shape"/>
</filter>
<filter id="filter3_dd_4157_17714" x="309" y="120.56" width="251" height="112" filterUnits="userSpaceOnUse" color-interpolation-filters="sRGB">
<feFlood flood-opacity="0" result="BackgroundImageFix"/>
<feColorMatrix in="SourceAlpha" type="matrix" values="0 0 0 0 0 0 0 0 0 0 0 0 0 0 0 0 0 0 127 0" result="hardAlpha"/>
<feMorphology radius="4" operator="erode" in="SourceAlpha" result="effect1_dropShadow_4157_17714"/>
<feOffset dy="12"/>
<feGaussianBlur stdDeviation="12"/>
<feColorMatrix type="matrix" values="0 0 0 0 0.568627 0 0 0 0 0.619608 0 0 0 0 0.670588 0 0 0 0.12 0"/>
<feBlend mode="normal" in2="BackgroundImageFix" result="effect1_dropShadow_4157_17714"/>
<feColorMatrix in="SourceAlpha" type="matrix" values="0 0 0 0 0 0 0 0 0 0 0 0 0 0 0 0 0 0 127 0" result="hardAlpha"/>
<feOffset/>
<feGaussianBlur stdDeviation="1"/>
<feComposite in2="hardAlpha" operator="out"/>
<feColorMatrix type="matrix" values="0 0 0 0 0.568627 0 0 0 0 0.619608 0 0 0 0 0.670588 0 0 0 0.2 0"/>
<feBlend mode="normal" in2="effect1_dropShadow_4157_17714" result="effect2_dropShadow_4157_17714"/>
<feBlend mode="normal" in="SourceGraphic" in2="effect2_dropShadow_4157_17714" result="shape"/>
</filter>
<filter id="filter4_dd_4157_17714" x="50" y="298.56" width="251" height="178" filterUnits="userSpaceOnUse" color-interpolation-filters="sRGB">
<feFlood flood-opacity="0" result="BackgroundImageFix"/>
<feColorMatrix in="SourceAlpha" type="matrix" values="0 0 0 0 0 0 0 0 0 0 0 0 0 0 0 0 0 0 127 0" result="hardAlpha"/>
<feMorphology radius="4" operator="erode" in="SourceAlpha" result="effect1_dropShadow_4157_17714"/>
<feOffset dy="12"/>
<feGaussianBlur stdDeviation="12"/>
<feColorMatrix type="matrix" values="0 0 0 0 0.568627 0 0 0 0 0.619608 0 0 0 0 0.670588 0 0 0 0.12 0"/>
<feBlend mode="normal" in2="BackgroundImageFix" result="effect1_dropShadow_4157_17714"/>
<feColorMatrix in="SourceAlpha" type="matrix" values="0 0 0 0 0 0 0 0 0 0 0 0 0 0 0 0 0 0 127 0" result="hardAlpha"/>
<feOffset/>
<feGaussianBlur stdDeviation="1"/>
<feComposite in2="hardAlpha" operator="out"/>
<feColorMatrix type="matrix" values="0 0 0 0 0.568627 0 0 0 0 0.619608 0 0 0 0 0.670588 0 0 0 0.2 0"/>
<feBlend mode="normal" in2="effect1_dropShadow_4157_17714" result="effect2_dropShadow_4157_17714"/>
<feBlend mode="normal" in="SourceGraphic" in2="effect2_dropShadow_4157_17714" result="shape"/>
</filter>
<clipPath id="clip0_4157_17714">
<rect y="0.560059" width="608" height="384" rx="24" fill="white"/>
</clipPath>
</defs>
</svg>
