<svg width="608" height="385" viewBox="0 0 608 385" fill="none" xmlns="http://www.w3.org/2000/svg">
<g clip-path="url(#clip0_4157_17273)">
<rect y="0.560059" width="608" height="384" rx="24" fill="#F9FAFB"/>
<circle opacity="0.2" cx="304" cy="396.56" r="190" fill="#C4CDD5"/>
<circle cx="304" cy="396.56" r="226" stroke="#DFE3E8" stroke-width="2" stroke-dasharray="10 10"/>
<g filter="url(#filter0_dd_4157_17273)">
<g clip-path="url(#clip1_4157_17273)">
<mask id="path-5-inside-1_4157_17273" fill="white">
<path d="M206 353.56H402V415.56H206V353.56Z"/>
</mask>
<path d="M206 353.56H402V415.56H206V353.56Z" fill="white"/>
<path d="M402 415.56V414.56H206V415.56V416.56H402V415.56Z" fill="#919EAB" fill-opacity="0.24" mask="url(#path-5-inside-1_4157_17273)"/>
<rect x="222" y="372.56" width="24" height="24" rx="12" fill="#919EAB" fill-opacity="0.24"/>
<path d="M232 390.56C232 390.927 232.3 391.227 232.667 391.227H235.333C235.7 391.227 236 390.927 236 390.56V389.893H232V390.56ZM234 377.893C231.427 377.893 229.333 379.987 229.333 382.56C229.333 384.147 230.127 385.54 231.333 386.387V387.893C231.333 388.26 231.633 388.56 232 388.56H236C236.367 388.56 236.667 388.26 236.667 387.893V386.387C237.873 385.54 238.667 384.147 238.667 382.56C238.667 379.987 236.573 377.893 234 377.893ZM235.9 385.293L235.333 385.693V387.227H232.667V385.693L232.1 385.293C231.2 384.667 230.667 383.647 230.667 382.56C230.667 380.72 232.16 379.227 234 379.227C235.84 379.227 237.333 380.72 237.333 382.56C237.333 383.647 236.8 384.667 235.9 385.293Z" fill="#637381"/>
<path d="M271.324 389.56H269.364L264.926 382.854V389.56H262.966V379.774H264.926L269.364 386.494V379.774H271.324V389.56ZM280.471 385.514C280.471 385.794 280.452 386.046 280.415 386.27H274.745C274.792 386.83 274.988 387.269 275.333 387.586C275.678 387.903 276.103 388.062 276.607 388.062C277.335 388.062 277.853 387.749 278.161 387.124H280.275C280.051 387.871 279.622 388.487 278.987 388.972C278.352 389.448 277.573 389.686 276.649 389.686C275.902 389.686 275.23 389.523 274.633 389.196C274.045 388.86 273.583 388.389 273.247 387.782C272.92 387.175 272.757 386.475 272.757 385.682C272.757 384.879 272.92 384.175 273.247 383.568C273.574 382.961 274.031 382.495 274.619 382.168C275.207 381.841 275.884 381.678 276.649 381.678C277.386 381.678 278.044 381.837 278.623 382.154C279.211 382.471 279.664 382.924 279.981 383.512C280.308 384.091 280.471 384.758 280.471 385.514ZM278.441 384.954C278.432 384.45 278.25 384.049 277.895 383.75C277.54 383.442 277.106 383.288 276.593 383.288C276.108 383.288 275.697 383.437 275.361 383.736C275.034 384.025 274.834 384.431 274.759 384.954H278.441ZM292.654 381.804L290.386 389.56H288.272L286.858 384.142L285.444 389.56H283.316L281.034 381.804H283.022L284.394 387.712L285.878 381.804H287.95L289.406 387.698L290.778 381.804H292.654ZM303.084 379.788V381.37H299.01V383.876H302.132V385.43H299.01V389.56H297.05V379.788H303.084ZM311.684 385.514C311.684 385.794 311.665 386.046 311.628 386.27H305.958C306.004 386.83 306.2 387.269 306.546 387.586C306.891 387.903 307.316 388.062 307.82 388.062C308.548 388.062 309.066 387.749 309.374 387.124H311.488C311.264 387.871 310.834 388.487 310.2 388.972C309.565 389.448 308.786 389.686 307.862 389.686C307.115 389.686 306.443 389.523 305.846 389.196C305.258 388.86 304.796 388.389 304.46 387.782C304.133 387.175 303.97 386.475 303.97 385.682C303.97 384.879 304.133 384.175 304.46 383.568C304.786 382.961 305.244 382.495 305.832 382.168C306.42 381.841 307.096 381.678 307.862 381.678C308.599 381.678 309.257 381.837 309.836 382.154C310.424 382.471 310.876 382.924 311.194 383.512C311.52 384.091 311.684 384.758 311.684 385.514ZM309.654 384.954C309.644 384.45 309.462 384.049 309.108 383.75C308.753 383.442 308.319 383.288 307.806 383.288C307.32 383.288 306.91 383.437 306.574 383.736C306.247 384.025 306.046 384.431 305.972 384.954H309.654ZM312.61 385.654C312.61 384.87 312.764 384.175 313.072 383.568C313.39 382.961 313.814 382.495 314.346 382.168C314.888 381.841 315.49 381.678 316.152 381.678C316.731 381.678 317.235 381.795 317.664 382.028C318.103 382.261 318.453 382.555 318.714 382.91V381.804H320.688V389.56H318.714V388.426C318.462 388.79 318.112 389.093 317.664 389.336C317.226 389.569 316.717 389.686 316.138 389.686C315.485 389.686 314.888 389.518 314.346 389.182C313.814 388.846 313.39 388.375 313.072 387.768C312.764 387.152 312.61 386.447 312.61 385.654ZM318.714 385.682C318.714 385.206 318.621 384.8 318.434 384.464C318.248 384.119 317.996 383.857 317.678 383.68C317.361 383.493 317.02 383.4 316.656 383.4C316.292 383.4 315.956 383.489 315.648 383.666C315.34 383.843 315.088 384.105 314.892 384.45C314.706 384.786 314.612 385.187 314.612 385.654C314.612 386.121 314.706 386.531 314.892 386.886C315.088 387.231 315.34 387.497 315.648 387.684C315.966 387.871 316.302 387.964 316.656 387.964C317.02 387.964 317.361 387.875 317.678 387.698C317.996 387.511 318.248 387.25 318.434 386.914C318.621 386.569 318.714 386.158 318.714 385.682ZM324.885 383.414V387.166C324.885 387.427 324.945 387.619 325.067 387.74C325.197 387.852 325.412 387.908 325.711 387.908H326.621V389.56H325.389C323.737 389.56 322.911 388.757 322.911 387.152V383.414H321.987V381.804H322.911V379.886H324.885V381.804H326.621V383.414H324.885ZM335.352 381.804V389.56H333.378V388.58C333.126 388.916 332.795 389.182 332.384 389.378C331.983 389.565 331.544 389.658 331.068 389.658C330.462 389.658 329.925 389.532 329.458 389.28C328.992 389.019 328.623 388.641 328.352 388.146C328.091 387.642 327.96 387.045 327.96 386.354V381.804H329.92V386.074C329.92 386.69 330.074 387.166 330.382 387.502C330.69 387.829 331.11 387.992 331.642 387.992C332.184 387.992 332.608 387.829 332.916 387.502C333.224 387.166 333.378 386.69 333.378 386.074V381.804H335.352ZM339.246 383.008C339.498 382.597 339.825 382.275 340.226 382.042C340.637 381.809 341.104 381.692 341.626 381.692V383.75H341.108C340.492 383.75 340.026 383.895 339.708 384.184C339.4 384.473 339.246 384.977 339.246 385.696V389.56H337.286V381.804H339.246V383.008ZM350.156 385.514C350.156 385.794 350.138 386.046 350.1 386.27H344.43C344.477 386.83 344.673 387.269 345.018 387.586C345.364 387.903 345.788 388.062 346.292 388.062C347.02 388.062 347.538 387.749 347.846 387.124H349.96C349.736 387.871 349.307 388.487 348.672 388.972C348.038 389.448 347.258 389.686 346.334 389.686C345.588 389.686 344.916 389.523 344.318 389.196C343.73 388.86 343.268 388.389 342.932 387.782C342.606 387.175 342.442 386.475 342.442 385.682C342.442 384.879 342.606 384.175 342.932 383.568C343.259 382.961 343.716 382.495 344.304 382.168C344.892 381.841 345.569 381.678 346.334 381.678C347.072 381.678 347.73 381.837 348.308 382.154C348.896 382.471 349.349 382.924 349.666 383.512C349.993 384.091 350.156 384.758 350.156 385.514ZM348.126 384.954C348.117 384.45 347.935 384.049 347.58 383.75C347.226 383.442 346.792 383.288 346.278 383.288C345.793 383.288 345.382 383.437 345.046 383.736C344.72 384.025 344.519 384.431 344.444 384.954H348.126ZM356.883 379.788V389.56H354.923V379.788H356.883ZM358.316 385.654C358.316 384.87 358.47 384.175 358.778 383.568C359.095 382.961 359.524 382.495 360.066 382.168C360.607 381.841 361.209 381.678 361.872 381.678C362.376 381.678 362.856 381.79 363.314 382.014C363.771 382.229 364.135 382.518 364.406 382.882V379.2H366.394V389.56H364.406V388.412C364.163 388.795 363.822 389.103 363.384 389.336C362.945 389.569 362.436 389.686 361.858 389.686C361.204 389.686 360.607 389.518 360.066 389.182C359.524 388.846 359.095 388.375 358.778 387.768C358.47 387.152 358.316 386.447 358.316 385.654ZM364.42 385.682C364.42 385.206 364.326 384.8 364.14 384.464C363.953 384.119 363.701 383.857 363.384 383.68C363.066 383.493 362.726 383.4 362.362 383.4C361.998 383.4 361.662 383.489 361.354 383.666C361.046 383.843 360.794 384.105 360.598 384.45C360.411 384.786 360.318 385.187 360.318 385.654C360.318 386.121 360.411 386.531 360.598 386.886C360.794 387.231 361.046 387.497 361.354 387.684C361.671 387.871 362.007 387.964 362.362 387.964C362.726 387.964 363.066 387.875 363.384 387.698C363.701 387.511 363.953 387.25 364.14 386.914C364.326 386.569 364.42 386.158 364.42 385.682ZM375.518 385.514C375.518 385.794 375.499 386.046 375.462 386.27H369.792C369.838 386.83 370.034 387.269 370.38 387.586C370.725 387.903 371.15 388.062 371.654 388.062C372.382 388.062 372.9 387.749 373.208 387.124H375.322C375.098 387.871 374.668 388.487 374.034 388.972C373.399 389.448 372.62 389.686 371.696 389.686C370.949 389.686 370.277 389.523 369.68 389.196C369.092 388.86 368.63 388.389 368.294 387.782C367.967 387.175 367.804 386.475 367.804 385.682C367.804 384.879 367.967 384.175 368.294 383.568C368.62 382.961 369.078 382.495 369.666 382.168C370.254 381.841 370.93 381.678 371.696 381.678C372.433 381.678 373.091 381.837 373.67 382.154C374.258 382.471 374.71 382.924 375.028 383.512C375.354 384.091 375.518 384.758 375.518 385.514ZM373.488 384.954C373.478 384.45 373.296 384.049 372.942 383.75C372.587 383.442 372.153 383.288 371.64 383.288C371.154 383.288 370.744 383.437 370.408 383.736C370.081 384.025 369.88 384.431 369.806 384.954H373.488ZM376.444 385.654C376.444 384.87 376.598 384.175 376.906 383.568C377.224 382.961 377.648 382.495 378.18 382.168C378.722 381.841 379.324 381.678 379.986 381.678C380.565 381.678 381.069 381.795 381.498 382.028C381.937 382.261 382.287 382.555 382.548 382.91V381.804H384.522V389.56H382.548V388.426C382.296 388.79 381.946 389.093 381.498 389.336C381.06 389.569 380.551 389.686 379.972 389.686C379.319 389.686 378.722 389.518 378.18 389.182C377.648 388.846 377.224 388.375 376.906 387.768C376.598 387.152 376.444 386.447 376.444 385.654ZM382.548 385.682C382.548 385.206 382.455 384.8 382.268 384.464C382.082 384.119 381.83 383.857 381.512 383.68C381.195 383.493 380.854 383.4 380.49 383.4C380.126 383.4 379.79 383.489 379.482 383.666C379.174 383.843 378.922 384.105 378.726 384.45C378.54 384.786 378.446 385.187 378.446 385.654C378.446 386.121 378.54 386.531 378.726 386.886C378.922 387.231 379.174 387.497 379.482 387.684C379.8 387.871 380.136 387.964 380.49 387.964C380.854 387.964 381.195 387.875 381.512 387.698C381.83 387.511 382.082 387.25 382.268 386.914C382.455 386.569 382.548 386.158 382.548 385.682Z" fill="#637381"/>
</g>
</g>
<g filter="url(#filter1_dd_4157_17273)">
<g clip-path="url(#clip2_4157_17273)">
<mask id="path-11-inside-2_4157_17273" fill="white">
<path d="M217 271.56H390V333.56H217V271.56Z"/>
</mask>
<path d="M217 271.56H390V333.56H217V271.56Z" fill="white"/>
<path d="M390 333.56V332.56H217V333.56V334.56H390V333.56Z" fill="#919EAB" fill-opacity="0.24" mask="url(#path-11-inside-2_4157_17273)"/>
<rect x="233" y="290.56" width="24" height="24" rx="12" fill="#919EAB" fill-opacity="0.24"/>
<path d="M247.667 298.56L249.193 300.087L245.94 303.34L243.273 300.673L238.333 305.62L239.273 306.56L243.273 302.56L245.94 305.227L250.14 301.033L251.667 302.56V298.56H247.667Z" fill="#637381"/>
<path d="M280.616 297.788V299.37H278.012V307.56H276.052V299.37H273.448V297.788H280.616ZM284.006 301.008C284.258 300.597 284.585 300.275 284.986 300.042C285.397 299.809 285.863 299.692 286.386 299.692V301.75H285.868C285.252 301.75 284.785 301.895 284.468 302.184C284.16 302.473 284.006 302.977 284.006 303.696V307.56H282.046V299.804H284.006V301.008ZM287.202 303.654C287.202 302.87 287.356 302.175 287.664 301.568C287.982 300.961 288.406 300.495 288.938 300.168C289.48 299.841 290.082 299.678 290.744 299.678C291.323 299.678 291.827 299.795 292.256 300.028C292.695 300.261 293.045 300.555 293.306 300.91V299.804H295.28V307.56H293.306V306.426C293.054 306.79 292.704 307.093 292.256 307.336C291.818 307.569 291.309 307.686 290.73 307.686C290.077 307.686 289.48 307.518 288.938 307.182C288.406 306.846 287.982 306.375 287.664 305.768C287.356 305.152 287.202 304.447 287.202 303.654ZM293.306 303.682C293.306 303.206 293.213 302.8 293.026 302.464C292.84 302.119 292.588 301.857 292.27 301.68C291.953 301.493 291.612 301.4 291.248 301.4C290.884 301.4 290.548 301.489 290.24 301.666C289.932 301.843 289.68 302.105 289.484 302.45C289.298 302.786 289.204 303.187 289.204 303.654C289.204 304.121 289.298 304.531 289.484 304.886C289.68 305.231 289.932 305.497 290.24 305.684C290.558 305.871 290.894 305.964 291.248 305.964C291.612 305.964 291.953 305.875 292.27 305.698C292.588 305.511 292.84 305.25 293.026 304.914C293.213 304.569 293.306 304.158 293.306 303.682ZM300.751 301.414H299.393V307.56H297.405V301.414H296.523V299.804H297.405V299.412C297.405 298.46 297.675 297.76 298.217 297.312C298.758 296.864 299.575 296.654 300.667 296.682V298.334C300.191 298.325 299.859 298.404 299.673 298.572C299.486 298.74 299.393 299.043 299.393 299.482V299.804H300.751V301.414ZM305.577 301.414H304.219V307.56H302.231V301.414H301.349V299.804H302.231V299.412C302.231 298.46 302.501 297.76 303.043 297.312C303.584 296.864 304.401 296.654 305.493 296.682V298.334C305.017 298.325 304.685 298.404 304.499 298.572C304.312 298.74 304.219 299.043 304.219 299.482V299.804H305.577V301.414ZM307.841 298.88C307.496 298.88 307.206 298.773 306.973 298.558C306.749 298.334 306.637 298.059 306.637 297.732C306.637 297.405 306.749 297.135 306.973 296.92C307.206 296.696 307.496 296.584 307.841 296.584C308.186 296.584 308.471 296.696 308.695 296.92C308.928 297.135 309.045 297.405 309.045 297.732C309.045 298.059 308.928 298.334 308.695 298.558C308.471 298.773 308.186 298.88 307.841 298.88ZM308.807 299.804V307.56H306.847V299.804H308.807ZM310.239 303.682C310.239 302.879 310.403 302.179 310.729 301.582C311.056 300.975 311.509 300.509 312.087 300.182C312.666 299.846 313.329 299.678 314.075 299.678C315.037 299.678 315.83 299.921 316.455 300.406C317.09 300.882 317.515 301.554 317.729 302.422H315.615C315.503 302.086 315.312 301.825 315.041 301.638C314.78 301.442 314.453 301.344 314.061 301.344C313.501 301.344 313.058 301.549 312.731 301.96C312.405 302.361 312.241 302.935 312.241 303.682C312.241 304.419 312.405 304.993 312.731 305.404C313.058 305.805 313.501 306.006 314.061 306.006C314.855 306.006 315.373 305.651 315.615 304.942H317.729C317.515 305.782 317.09 306.449 316.455 306.944C315.821 307.439 315.027 307.686 314.075 307.686C313.329 307.686 312.666 307.523 312.087 307.196C311.509 306.86 311.056 306.393 310.729 305.796C310.403 305.189 310.239 304.485 310.239 303.682ZM329.305 300.728C329.081 300.317 328.773 300.005 328.381 299.79C327.989 299.575 327.532 299.468 327.009 299.468C326.43 299.468 325.917 299.599 325.469 299.86C325.021 300.121 324.671 300.495 324.419 300.98C324.167 301.465 324.041 302.025 324.041 302.66C324.041 303.313 324.167 303.883 324.419 304.368C324.68 304.853 325.04 305.227 325.497 305.488C325.954 305.749 326.486 305.88 327.093 305.88C327.84 305.88 328.451 305.684 328.927 305.292C329.403 304.891 329.716 304.335 329.865 303.626H326.505V302.128H331.797V303.836C331.666 304.517 331.386 305.147 330.957 305.726C330.528 306.305 329.972 306.771 329.291 307.126C328.619 307.471 327.863 307.644 327.023 307.644C326.08 307.644 325.226 307.434 324.461 307.014C323.705 306.585 323.108 305.992 322.669 305.236C322.24 304.48 322.025 303.621 322.025 302.66C322.025 301.699 322.24 300.84 322.669 300.084C323.108 299.319 323.705 298.726 324.461 298.306C325.226 297.877 326.076 297.662 327.009 297.662C328.11 297.662 329.067 297.933 329.879 298.474C330.691 299.006 331.251 299.757 331.559 300.728H329.305ZM335.207 301.008C335.459 300.597 335.786 300.275 336.187 300.042C336.598 299.809 337.065 299.692 337.587 299.692V301.75H337.069C336.453 301.75 335.987 301.895 335.669 302.184C335.361 302.473 335.207 302.977 335.207 303.696V307.56H333.247V299.804H335.207V301.008ZM342.351 307.686C341.605 307.686 340.933 307.523 340.335 307.196C339.738 306.86 339.267 306.389 338.921 305.782C338.585 305.175 338.417 304.475 338.417 303.682C338.417 302.889 338.59 302.189 338.935 301.582C339.29 300.975 339.771 300.509 340.377 300.182C340.984 299.846 341.661 299.678 342.407 299.678C343.154 299.678 343.831 299.846 344.437 300.182C345.044 300.509 345.52 300.975 345.865 301.582C346.22 302.189 346.397 302.889 346.397 303.682C346.397 304.475 346.215 305.175 345.851 305.782C345.497 306.389 345.011 306.86 344.395 307.196C343.789 307.523 343.107 307.686 342.351 307.686ZM342.351 305.978C342.706 305.978 343.037 305.894 343.345 305.726C343.663 305.549 343.915 305.287 344.101 304.942C344.288 304.597 344.381 304.177 344.381 303.682C344.381 302.945 344.185 302.38 343.793 301.988C343.411 301.587 342.939 301.386 342.379 301.386C341.819 301.386 341.348 301.587 340.965 301.988C340.592 302.38 340.405 302.945 340.405 303.682C340.405 304.419 340.587 304.989 340.951 305.39C341.325 305.782 341.791 305.978 342.351 305.978ZM358.587 299.804L356.319 307.56H354.205L352.791 302.142L351.377 307.56H349.249L346.967 299.804H348.955L350.327 305.712L351.811 299.804H353.883L355.339 305.698L356.711 299.804H358.587ZM361.93 301.414V305.166C361.93 305.427 361.99 305.619 362.112 305.74C362.242 305.852 362.457 305.908 362.756 305.908H363.666V307.56H362.434C360.782 307.56 359.956 306.757 359.956 305.152V301.414H359.032V299.804H359.956V297.886H361.93V299.804H363.666V301.414H361.93ZM369.443 299.692C370.031 299.692 370.554 299.823 371.011 300.084C371.469 300.336 371.823 300.714 372.075 301.218C372.337 301.713 372.467 302.31 372.467 303.01V307.56H370.507V303.276C370.507 302.66 370.353 302.189 370.045 301.862C369.737 301.526 369.317 301.358 368.785 301.358C368.244 301.358 367.815 301.526 367.497 301.862C367.189 302.189 367.035 302.66 367.035 303.276V307.56H365.075V297.2H367.035V300.77C367.287 300.434 367.623 300.173 368.043 299.986C368.463 299.79 368.93 299.692 369.443 299.692Z" fill="#637381"/>
</g>
</g>
<g filter="url(#filter2_dd_4157_17273)">
<g clip-path="url(#clip3_4157_17273)">
<mask id="path-17-inside-3_4157_17273" fill="white">
<path d="M183 25.5601H424V87.5601H183V25.5601Z"/>
</mask>
<path d="M183 25.5601H424V87.5601H183V25.5601Z" fill="white"/>
<path d="M424 87.5601V86.5601H183V87.5601V88.5601H424V87.5601Z" fill="#919EAB" fill-opacity="0.24" mask="url(#path-17-inside-3_4157_17273)"/>
<rect x="199" y="44.5601" width="24" height="24" rx="12" fill="#919EAB" fill-opacity="0.24"/>
<path d="M207 58.5598C206.447 58.5598 205.947 58.7865 205.587 59.1465C204.8 59.9331 204.333 63.2265 204.333 63.2265C204.333 63.2265 207.627 62.7598 208.413 61.9731C208.773 61.6131 209 61.1131 209 60.5598C209 59.4531 208.107 58.5598 207 58.5598ZM207.473 61.0331C207.287 61.2198 206.027 61.5398 206.027 61.5398C206.027 61.5398 206.34 60.2865 206.533 60.0931C206.647 59.9665 206.813 59.8931 207 59.8931C207.367 59.8931 207.667 60.1931 207.667 60.5598C207.667 60.7465 207.593 60.9131 207.473 61.0331ZM214.613 57.6598C218.853 53.4198 217.44 50.1198 217.44 50.1198C217.44 50.1198 214.14 48.7065 209.9 52.9465L208.24 52.6131C207.807 52.5265 207.353 52.6665 207.033 52.9798L204.333 55.6865L207.667 57.1131L210.447 59.8931L211.873 63.2265L214.573 60.5265C214.887 60.2131 215.027 59.7598 214.94 59.3198L214.613 57.6598ZM207.94 55.7798L206.667 55.2331L207.98 53.9198L208.94 54.1131C208.56 54.6665 208.22 55.2465 207.94 55.7798ZM212.327 60.8931L211.78 59.6198C212.313 59.3398 212.893 58.9998 213.44 58.6198L213.633 59.5798L212.327 60.8931ZM213.667 56.7198C212.787 57.5998 211.413 58.3198 210.973 58.5398L209.02 56.5865C209.233 56.1531 209.953 54.7798 210.84 53.8931C213.96 50.7731 216.327 51.2331 216.327 51.2331C216.327 51.2331 216.787 53.5998 213.667 56.7198ZM213 55.8931C213.733 55.8931 214.333 55.2931 214.333 54.5598C214.333 53.8265 213.733 53.2265 213 53.2265C212.267 53.2265 211.667 53.8265 211.667 54.5598C211.667 55.2931 212.267 55.8931 213 55.8931Z" fill="#637381"/>
<path d="M247.092 54.8121C247.092 55.3347 246.966 55.8247 246.714 56.2821C246.471 56.7394 246.084 57.1081 245.552 57.3881C245.029 57.6681 244.367 57.8081 243.564 57.8081H241.926V61.5601H239.966V51.7881H243.564C244.32 51.7881 244.964 51.9187 245.496 52.1801C246.028 52.4414 246.425 52.8007 246.686 53.2581C246.957 53.7154 247.092 54.2334 247.092 54.8121ZM243.48 56.2261C244.021 56.2261 244.423 56.1047 244.684 55.8621C244.945 55.6101 245.076 55.2601 245.076 54.8121C245.076 53.8601 244.544 53.3841 243.48 53.3841H241.926V56.2261H243.48ZM250.444 55.0081C250.696 54.5974 251.022 54.2754 251.424 54.0421C251.834 53.8087 252.301 53.6921 252.824 53.6921V55.7501H252.306C251.69 55.7501 251.223 55.8947 250.906 56.1841C250.598 56.4734 250.444 56.9774 250.444 57.6961V61.5601H248.484V53.8041H250.444V55.0081ZM257.588 61.6861C256.841 61.6861 256.169 61.5227 255.572 61.1961C254.974 60.8601 254.503 60.3887 254.158 59.7821C253.822 59.1754 253.654 58.4754 253.654 57.6821C253.654 56.8887 253.826 56.1887 254.172 55.5821C254.526 54.9754 255.007 54.5087 255.614 54.1821C256.22 53.8461 256.897 53.6781 257.644 53.6781C258.39 53.6781 259.067 53.8461 259.674 54.1821C260.28 54.5087 260.756 54.9754 261.102 55.5821C261.456 56.1887 261.634 56.8887 261.634 57.6821C261.634 58.4754 261.452 59.1754 261.088 59.7821C260.733 60.3887 260.248 60.8601 259.632 61.1961C259.025 61.5227 258.344 61.6861 257.588 61.6861ZM257.588 59.9781C257.942 59.9781 258.274 59.8941 258.582 59.7261C258.899 59.5487 259.151 59.2874 259.338 58.9421C259.524 58.5967 259.618 58.1767 259.618 57.6821C259.618 56.9447 259.422 56.3801 259.03 55.9881C258.647 55.5867 258.176 55.3861 257.616 55.3861C257.056 55.3861 256.584 55.5867 256.202 55.9881C255.828 56.3801 255.642 56.9447 255.642 57.6821C255.642 58.4194 255.824 58.9887 256.188 59.3901C256.561 59.7821 257.028 59.9781 257.588 59.9781ZM262.567 57.6541C262.567 56.8701 262.721 56.1747 263.029 55.5681C263.347 54.9614 263.776 54.4947 264.317 54.1681C264.859 53.8414 265.461 53.6781 266.123 53.6781C266.627 53.6781 267.108 53.7901 267.565 54.0141C268.023 54.2287 268.387 54.5181 268.657 54.8821V51.2001H270.645V61.5601H268.657V60.4121C268.415 60.7947 268.074 61.1027 267.635 61.3361C267.197 61.5694 266.688 61.6861 266.109 61.6861C265.456 61.6861 264.859 61.5181 264.317 61.1821C263.776 60.8461 263.347 60.3747 263.029 59.7681C262.721 59.1521 262.567 58.4474 262.567 57.6541ZM268.671 57.6821C268.671 57.2061 268.578 56.8001 268.391 56.4641C268.205 56.1187 267.953 55.8574 267.635 55.6801C267.318 55.4934 266.977 55.4001 266.613 55.4001C266.249 55.4001 265.913 55.4887 265.605 55.6661C265.297 55.8434 265.045 56.1047 264.849 56.4501C264.663 56.7861 264.569 57.1874 264.569 57.6541C264.569 58.1207 264.663 58.5314 264.849 58.8861C265.045 59.2314 265.297 59.4974 265.605 59.6841C265.923 59.8707 266.259 59.9641 266.613 59.9641C266.977 59.9641 267.318 59.8754 267.635 59.6981C267.953 59.5114 268.205 59.2501 268.391 58.9141C268.578 58.5687 268.671 58.1581 268.671 57.6821ZM279.882 53.8041V61.5601H277.908V60.5801C277.656 60.9161 277.324 61.1821 276.914 61.3781C276.512 61.5647 276.074 61.6581 275.598 61.6581C274.991 61.6581 274.454 61.5321 273.988 61.2801C273.521 61.0187 273.152 60.6407 272.882 60.1461C272.62 59.6421 272.49 59.0447 272.49 58.3541V53.8041H274.45V58.0741C274.45 58.6901 274.604 59.1661 274.912 59.5021C275.22 59.8287 275.64 59.9921 276.172 59.9921C276.713 59.9921 277.138 59.8287 277.446 59.5021C277.754 59.1661 277.908 58.6901 277.908 58.0741V53.8041H279.882ZM281.312 57.6821C281.312 56.8794 281.475 56.1794 281.802 55.5821C282.128 54.9754 282.581 54.5087 283.16 54.1821C283.738 53.8461 284.401 53.6781 285.148 53.6781C286.109 53.6781 286.902 53.9207 287.528 54.4061C288.162 54.8821 288.587 55.5541 288.802 56.4221H286.688C286.576 56.0861 286.384 55.8247 286.114 55.6381C285.852 55.4421 285.526 55.3441 285.134 55.3441C284.574 55.3441 284.13 55.5494 283.804 55.9601C283.477 56.3614 283.314 56.9354 283.314 57.6821C283.314 58.4194 283.477 58.9934 283.804 59.4041C284.13 59.8054 284.574 60.0061 285.134 60.0061C285.927 60.0061 286.445 59.6514 286.688 58.9421H288.802C288.587 59.7821 288.162 60.4494 287.528 60.9441C286.893 61.4387 286.1 61.6861 285.148 61.6861C284.401 61.6861 283.738 61.5227 283.16 61.1961C282.581 60.8601 282.128 60.3934 281.802 59.7961C281.475 59.1894 281.312 58.4847 281.312 57.6821ZM292.519 55.4141V59.1661C292.519 59.4274 292.58 59.6187 292.701 59.7401C292.832 59.8521 293.047 59.9081 293.345 59.9081H294.255V61.5601H293.023C291.371 61.5601 290.545 60.7574 290.545 59.1521V55.4141H289.621V53.8041H290.545V51.8861H292.519V53.8041H294.255V55.4141H292.519ZM296.659 52.8801C296.314 52.8801 296.025 52.7727 295.791 52.5581C295.567 52.3341 295.455 52.0587 295.455 51.7321C295.455 51.4054 295.567 51.1347 295.791 50.9201C296.025 50.6961 296.314 50.5841 296.659 50.5841C297.005 50.5841 297.289 50.6961 297.513 50.9201C297.747 51.1347 297.863 51.4054 297.863 51.7321C297.863 52.0587 297.747 52.3341 297.513 52.5581C297.289 52.7727 297.005 52.8801 296.659 52.8801ZM297.625 53.8041V61.5601H295.665V53.8041H297.625ZM303.006 61.6861C302.259 61.6861 301.587 61.5227 300.99 61.1961C300.392 60.8601 299.921 60.3887 299.576 59.7821C299.24 59.1754 299.072 58.4754 299.072 57.6821C299.072 56.8887 299.244 56.1887 299.59 55.5821C299.944 54.9754 300.425 54.5087 301.032 54.1821C301.638 53.8461 302.315 53.6781 303.062 53.6781C303.808 53.6781 304.485 53.8461 305.092 54.1821C305.698 54.5087 306.174 54.9754 306.52 55.5821C306.874 56.1887 307.052 56.8887 307.052 57.6821C307.052 58.4754 306.87 59.1754 306.506 59.7821C306.151 60.3887 305.666 60.8601 305.05 61.1961C304.443 61.5227 303.762 61.6861 303.006 61.6861ZM303.006 59.9781C303.36 59.9781 303.692 59.8941 304 59.7261C304.317 59.5487 304.569 59.2874 304.756 58.9421C304.942 58.5967 305.036 58.1767 305.036 57.6821C305.036 56.9447 304.84 56.3801 304.448 55.9881C304.065 55.5867 303.594 55.3861 303.034 55.3861C302.474 55.3861 302.002 55.5867 301.62 55.9881C301.246 56.3801 301.06 56.9447 301.06 57.6821C301.06 58.4194 301.242 58.9887 301.606 59.3901C301.979 59.7821 302.446 59.9781 303.006 59.9781ZM312.787 53.6921C313.711 53.6921 314.458 53.9861 315.027 54.5741C315.597 55.1527 315.881 55.9647 315.881 57.0101V61.5601H313.921V57.2761C313.921 56.6601 313.767 56.1887 313.459 55.8621C313.151 55.5261 312.731 55.3581 312.199 55.3581C311.658 55.3581 311.229 55.5261 310.911 55.8621C310.603 56.1887 310.449 56.6601 310.449 57.2761V61.5601H308.489V53.8041H310.449V54.7701C310.711 54.4341 311.042 54.1727 311.443 53.9861C311.854 53.7901 312.302 53.6921 312.787 53.6921ZM324.497 51.7881C325.524 51.7881 326.425 51.9887 327.199 52.3901C327.983 52.7914 328.585 53.3654 329.005 54.1121C329.435 54.8494 329.649 55.7081 329.649 56.6881C329.649 57.6681 329.435 58.5267 329.005 59.2641C328.585 59.9921 327.983 60.5567 327.199 60.9581C326.425 61.3594 325.524 61.5601 324.497 61.5601H321.081V51.7881H324.497ZM324.427 59.8941C325.454 59.8941 326.247 59.6141 326.807 59.0541C327.367 58.4941 327.647 57.7054 327.647 56.6881C327.647 55.6707 327.367 54.8774 326.807 54.3081C326.247 53.7294 325.454 53.4401 324.427 53.4401H323.041V59.8941H324.427ZM338.326 57.5141C338.326 57.7941 338.308 58.0461 338.27 58.2701H332.6C332.647 58.8301 332.843 59.2687 333.188 59.5861C333.534 59.9034 333.958 60.0621 334.462 60.0621C335.19 60.0621 335.708 59.7494 336.016 59.1241H338.13C337.906 59.8707 337.477 60.4867 336.842 60.9721C336.208 61.4481 335.428 61.6861 334.504 61.6861C333.758 61.6861 333.086 61.5227 332.488 61.1961C331.9 60.8601 331.438 60.3887 331.102 59.7821C330.776 59.1754 330.612 58.4754 330.612 57.6821C330.612 56.8794 330.776 56.1747 331.102 55.5681C331.429 54.9614 331.886 54.4947 332.474 54.1681C333.062 53.8414 333.739 53.6781 334.504 53.6781C335.242 53.6781 335.9 53.8367 336.478 54.1541C337.066 54.4714 337.519 54.9241 337.836 55.5121C338.163 56.0907 338.326 56.7581 338.326 57.5141ZM336.296 56.9541C336.287 56.4501 336.105 56.0487 335.75 55.7501C335.396 55.4421 334.962 55.2881 334.448 55.2881C333.963 55.2881 333.552 55.4374 333.216 55.7361C332.89 56.0254 332.689 56.4314 332.614 56.9541H336.296ZM341.717 54.9241C341.969 54.5694 342.314 54.2754 342.753 54.0421C343.201 53.7994 343.71 53.6781 344.279 53.6781C344.942 53.6781 345.539 53.8414 346.071 54.1681C346.612 54.4947 347.037 54.9614 347.345 55.5681C347.662 56.1654 347.821 56.8607 347.821 57.6541C347.821 58.4474 347.662 59.1521 347.345 59.7681C347.037 60.3747 346.612 60.8461 346.071 61.1821C345.539 61.5181 344.942 61.6861 344.279 61.6861C343.71 61.6861 343.206 61.5694 342.767 61.3361C342.338 61.1027 341.988 60.8087 341.717 60.4541V65.2561H339.757V53.8041H341.717V54.9241ZM345.819 57.6541C345.819 57.1874 345.721 56.7861 345.525 56.4501C345.338 56.1047 345.086 55.8434 344.769 55.6661C344.461 55.4887 344.125 55.4001 343.761 55.4001C343.406 55.4001 343.07 55.4934 342.753 55.6801C342.445 55.8574 342.193 56.1187 341.997 56.4641C341.81 56.8094 341.717 57.2154 341.717 57.6821C341.717 58.1487 341.81 58.5547 341.997 58.9001C342.193 59.2454 342.445 59.5114 342.753 59.6981C343.07 59.8754 343.406 59.9641 343.761 59.9641C344.125 59.9641 344.461 59.8707 344.769 59.6841C345.086 59.4974 345.338 59.2314 345.525 58.8861C345.721 58.5407 345.819 58.1301 345.819 57.6541ZM351.205 51.2001V61.5601H349.245V51.2001H351.205ZM356.586 61.6861C355.839 61.6861 355.167 61.5227 354.57 61.1961C353.972 60.8601 353.501 60.3887 353.156 59.7821C352.82 59.1754 352.652 58.4754 352.652 57.6821C352.652 56.8887 352.824 56.1887 353.17 55.5821C353.524 54.9754 354.005 54.5087 354.612 54.1821C355.218 53.8461 355.895 53.6781 356.642 53.6781C357.388 53.6781 358.065 53.8461 358.672 54.1821C359.278 54.5087 359.754 54.9754 360.1 55.5821C360.454 56.1887 360.632 56.8887 360.632 57.6821C360.632 58.4754 360.45 59.1754 360.086 59.7821C359.731 60.3887 359.246 60.8601 358.63 61.1961C358.023 61.5227 357.342 61.6861 356.586 61.6861ZM356.586 59.9781C356.94 59.9781 357.272 59.8941 357.58 59.7261C357.897 59.5487 358.149 59.2874 358.336 58.9421C358.522 58.5967 358.616 58.1767 358.616 57.6821C358.616 56.9447 358.42 56.3801 358.028 55.9881C357.645 55.5867 357.174 55.3861 356.614 55.3861C356.054 55.3861 355.582 55.5867 355.2 55.9881C354.826 56.3801 354.64 56.9447 354.64 57.6821C354.64 58.4194 354.822 58.9887 355.186 59.3901C355.559 59.7821 356.026 59.9781 356.586 59.9781ZM369.49 53.8041L364.688 65.2281H362.602L364.282 61.3641L361.174 53.8041H363.372L365.374 59.2221L367.404 53.8041H369.49ZM380.178 53.6921C381.13 53.6921 381.895 53.9861 382.474 54.5741C383.062 55.1527 383.356 55.9647 383.356 57.0101V61.5601H381.396V57.2761C381.396 56.6694 381.242 56.2074 380.934 55.8901C380.626 55.5634 380.206 55.4001 379.674 55.4001C379.142 55.4001 378.717 55.5634 378.4 55.8901C378.092 56.2074 377.938 56.6694 377.938 57.2761V61.5601H375.978V57.2761C375.978 56.6694 375.824 56.2074 375.516 55.8901C375.208 55.5634 374.788 55.4001 374.256 55.4001C373.715 55.4001 373.285 55.5634 372.968 55.8901C372.66 56.2074 372.506 56.6694 372.506 57.2761V61.5601H370.546V53.8041H372.506V54.7421C372.758 54.4154 373.08 54.1587 373.472 53.9721C373.873 53.7854 374.312 53.6921 374.788 53.6921C375.395 53.6921 375.936 53.8227 376.412 54.0841C376.888 54.3361 377.257 54.7001 377.518 55.1761C377.77 54.7281 378.134 54.3687 378.61 54.0981C379.095 53.8274 379.618 53.6921 380.178 53.6921ZM392.426 57.5141C392.426 57.7941 392.407 58.0461 392.37 58.2701H386.7C386.747 58.8301 386.943 59.2687 387.288 59.5861C387.633 59.9034 388.058 60.0621 388.562 60.0621C389.29 60.0621 389.808 59.7494 390.116 59.1241H392.23C392.006 59.8707 391.577 60.4867 390.942 60.9721C390.307 61.4481 389.528 61.6861 388.604 61.6861C387.857 61.6861 387.185 61.5227 386.588 61.1961C386 60.8601 385.538 60.3887 385.202 59.7821C384.875 59.1754 384.712 58.4754 384.712 57.6821C384.712 56.8794 384.875 56.1747 385.202 55.5681C385.529 54.9614 385.986 54.4947 386.574 54.1681C387.162 53.8414 387.839 53.6781 388.604 53.6781C389.341 53.6781 389.999 53.8367 390.578 54.1541C391.166 54.4714 391.619 54.9241 391.936 55.5121C392.263 56.0907 392.426 56.7581 392.426 57.5141ZM390.396 56.9541C390.387 56.4501 390.205 56.0487 389.85 55.7501C389.495 55.4421 389.061 55.2881 388.548 55.2881C388.063 55.2881 387.652 55.4374 387.316 55.7361C386.989 56.0254 386.789 56.4314 386.714 56.9541H390.396ZM398.155 53.6921C399.079 53.6921 399.825 53.9861 400.395 54.5741C400.964 55.1527 401.249 55.9647 401.249 57.0101V61.5601H399.289V57.2761C399.289 56.6601 399.135 56.1887 398.827 55.8621C398.519 55.5261 398.099 55.3581 397.567 55.3581C397.025 55.3581 396.596 55.5261 396.279 55.8621C395.971 56.1887 395.817 56.6601 395.817 57.2761V61.5601H393.857V53.8041H395.817V54.7701C396.078 54.4341 396.409 54.1727 396.811 53.9861C397.221 53.7901 397.669 53.6921 398.155 53.6921ZM405.394 55.4141V59.1661C405.394 59.4274 405.455 59.6187 405.576 59.7401C405.707 59.8521 405.922 59.9081 406.22 59.9081H407.13V61.5601H405.898C404.246 61.5601 403.42 60.7574 403.42 59.1521V55.4141H402.496V53.8041H403.42V51.8861H405.394V53.8041H407.13V55.4141H405.394Z" fill="#637381"/>
</g>
</g>
<g filter="url(#filter3_dd_4157_17273)">
<g clip-path="url(#clip4_4157_17273)">
<mask id="path-23-inside-4_4157_17273" fill="white">
<path d="M197 189.56H411V251.56H197V189.56Z"/>
</mask>
<path d="M197 189.56H411V251.56H197V189.56Z" fill="white"/>
<path d="M411 251.56V250.56H197V251.56V252.56H411V251.56Z" fill="#919EAB" fill-opacity="0.24" mask="url(#path-23-inside-4_4157_17273)"/>
<rect x="213" y="208.56" width="24" height="24" rx="12" fill="#919EAB" fill-opacity="0.24"/>
<path d="M225 222.56H221V223.893H225V222.56Z" fill="#637381"/>
<path d="M229 217.227H225V218.56H229V217.227Z" fill="#637381"/>
<path d="M227 219.893H223V221.227H227V219.893Z" fill="#637381"/>
<path d="M229.667 214.56H220.333C219.6 214.56 219 215.16 219 215.893V225.227C219 225.96 219.6 226.56 220.333 226.56H229.667C230.4 226.56 231 225.96 231 225.227V215.893C231 215.16 230.4 214.56 229.667 214.56ZM229.667 225.227H220.333V215.893H229.667V225.227Z" fill="#637381"/>
<path d="M257.382 215.788C258.409 215.788 259.309 215.989 260.084 216.39C260.868 216.791 261.47 217.365 261.89 218.112C262.319 218.849 262.534 219.708 262.534 220.688C262.534 221.668 262.319 222.527 261.89 223.264C261.47 223.992 260.868 224.557 260.084 224.958C259.309 225.359 258.409 225.56 257.382 225.56H253.966V215.788H257.382ZM257.312 223.894C258.339 223.894 259.132 223.614 259.692 223.054C260.252 222.494 260.532 221.705 260.532 220.688C260.532 219.671 260.252 218.877 259.692 218.308C259.132 217.729 258.339 217.44 257.312 217.44H255.926V223.894H257.312ZM271.211 221.514C271.211 221.794 271.192 222.046 271.155 222.27H265.485C265.532 222.83 265.728 223.269 266.073 223.586C266.418 223.903 266.843 224.062 267.347 224.062C268.075 224.062 268.593 223.749 268.901 223.124H271.015C270.791 223.871 270.362 224.487 269.727 224.972C269.092 225.448 268.313 225.686 267.389 225.686C266.642 225.686 265.97 225.523 265.373 225.196C264.785 224.86 264.323 224.389 263.987 223.782C263.66 223.175 263.497 222.475 263.497 221.682C263.497 220.879 263.66 220.175 263.987 219.568C264.314 218.961 264.771 218.495 265.359 218.168C265.947 217.841 266.624 217.678 267.389 217.678C268.126 217.678 268.784 217.837 269.363 218.154C269.951 218.471 270.404 218.924 270.721 219.512C271.048 220.091 271.211 220.758 271.211 221.514ZM269.181 220.954C269.172 220.45 268.99 220.049 268.635 219.75C268.28 219.442 267.846 219.288 267.333 219.288C266.848 219.288 266.437 219.437 266.101 219.736C265.774 220.025 265.574 220.431 265.499 220.954H269.181ZM275.876 223.754L277.836 217.804H279.922L277.052 225.56H274.672L271.816 217.804H273.916L275.876 223.754ZM288.233 221.514C288.233 221.794 288.214 222.046 288.177 222.27H282.507C282.553 222.83 282.749 223.269 283.095 223.586C283.44 223.903 283.865 224.062 284.369 224.062C285.097 224.062 285.615 223.749 285.923 223.124H288.037C287.813 223.871 287.383 224.487 286.749 224.972C286.114 225.448 285.335 225.686 284.411 225.686C283.664 225.686 282.992 225.523 282.395 225.196C281.807 224.86 281.345 224.389 281.009 223.782C280.682 223.175 280.519 222.475 280.519 221.682C280.519 220.879 280.682 220.175 281.009 219.568C281.335 218.961 281.793 218.495 282.381 218.168C282.969 217.841 283.645 217.678 284.411 217.678C285.148 217.678 285.806 217.837 286.385 218.154C286.973 218.471 287.425 218.924 287.743 219.512C288.069 220.091 288.233 220.758 288.233 221.514ZM286.203 220.954C286.193 220.45 286.011 220.049 285.657 219.75C285.302 219.442 284.868 219.288 284.355 219.288C283.869 219.288 283.459 219.437 283.123 219.736C282.796 220.025 282.595 220.431 282.521 220.954H286.203ZM291.623 215.2V225.56H289.663V215.2H291.623ZM297.004 225.686C296.257 225.686 295.585 225.523 294.988 225.196C294.39 224.86 293.919 224.389 293.574 223.782C293.238 223.175 293.07 222.475 293.07 221.682C293.07 220.889 293.242 220.189 293.588 219.582C293.942 218.975 294.423 218.509 295.03 218.182C295.636 217.846 296.313 217.678 297.06 217.678C297.806 217.678 298.483 217.846 299.09 218.182C299.696 218.509 300.172 218.975 300.518 219.582C300.872 220.189 301.05 220.889 301.05 221.682C301.05 222.475 300.868 223.175 300.504 223.782C300.149 224.389 299.664 224.86 299.048 225.196C298.441 225.523 297.76 225.686 297.004 225.686ZM297.004 223.978C297.358 223.978 297.69 223.894 297.998 223.726C298.315 223.549 298.567 223.287 298.754 222.942C298.94 222.597 299.034 222.177 299.034 221.682C299.034 220.945 298.838 220.38 298.446 219.988C298.063 219.587 297.592 219.386 297.032 219.386C296.472 219.386 296 219.587 295.618 219.988C295.244 220.38 295.058 220.945 295.058 221.682C295.058 222.419 295.24 222.989 295.604 223.39C295.977 223.782 296.444 223.978 297.004 223.978ZM304.447 218.924C304.699 218.569 305.045 218.275 305.483 218.042C305.931 217.799 306.44 217.678 307.009 217.678C307.672 217.678 308.269 217.841 308.801 218.168C309.343 218.495 309.767 218.961 310.075 219.568C310.393 220.165 310.551 220.861 310.551 221.654C310.551 222.447 310.393 223.152 310.075 223.768C309.767 224.375 309.343 224.846 308.801 225.182C308.269 225.518 307.672 225.686 307.009 225.686C306.44 225.686 305.936 225.569 305.497 225.336C305.068 225.103 304.718 224.809 304.447 224.454V229.256H302.487V217.804H304.447V218.924ZM308.549 221.654C308.549 221.187 308.451 220.786 308.255 220.45C308.069 220.105 307.817 219.843 307.499 219.666C307.191 219.489 306.855 219.4 306.491 219.4C306.137 219.4 305.801 219.493 305.483 219.68C305.175 219.857 304.923 220.119 304.727 220.464C304.541 220.809 304.447 221.215 304.447 221.682C304.447 222.149 304.541 222.555 304.727 222.9C304.923 223.245 305.175 223.511 305.483 223.698C305.801 223.875 306.137 223.964 306.491 223.964C306.855 223.964 307.191 223.871 307.499 223.684C307.817 223.497 308.069 223.231 308.255 222.886C308.451 222.541 308.549 222.13 308.549 221.654ZM321.608 217.692C322.56 217.692 323.325 217.986 323.904 218.574C324.492 219.153 324.786 219.965 324.786 221.01V225.56H322.826V221.276C322.826 220.669 322.672 220.207 322.364 219.89C322.056 219.563 321.636 219.4 321.104 219.4C320.572 219.4 320.147 219.563 319.83 219.89C319.522 220.207 319.368 220.669 319.368 221.276V225.56H317.408V221.276C317.408 220.669 317.254 220.207 316.946 219.89C316.638 219.563 316.218 219.4 315.686 219.4C315.144 219.4 314.715 219.563 314.398 219.89C314.09 220.207 313.936 220.669 313.936 221.276V225.56H311.976V217.804H313.936V218.742C314.188 218.415 314.51 218.159 314.902 217.972C315.303 217.785 315.742 217.692 316.218 217.692C316.824 217.692 317.366 217.823 317.842 218.084C318.318 218.336 318.686 218.7 318.948 219.176C319.2 218.728 319.564 218.369 320.04 218.098C320.525 217.827 321.048 217.692 321.608 217.692ZM333.856 221.514C333.856 221.794 333.837 222.046 333.8 222.27H328.13C328.176 222.83 328.372 223.269 328.718 223.586C329.063 223.903 329.488 224.062 329.992 224.062C330.72 224.062 331.238 223.749 331.546 223.124H333.66C333.436 223.871 333.006 224.487 332.372 224.972C331.737 225.448 330.958 225.686 330.034 225.686C329.287 225.686 328.615 225.523 328.018 225.196C327.43 224.86 326.968 224.389 326.632 223.782C326.305 223.175 326.142 222.475 326.142 221.682C326.142 220.879 326.305 220.175 326.632 219.568C326.958 218.961 327.416 218.495 328.004 218.168C328.592 217.841 329.268 217.678 330.034 217.678C330.771 217.678 331.429 217.837 332.008 218.154C332.596 218.471 333.048 218.924 333.366 219.512C333.692 220.091 333.856 220.758 333.856 221.514ZM331.826 220.954C331.816 220.45 331.634 220.049 331.28 219.75C330.925 219.442 330.491 219.288 329.978 219.288C329.492 219.288 329.082 219.437 328.746 219.736C328.419 220.025 328.218 220.431 328.144 220.954H331.826ZM339.584 217.692C340.508 217.692 341.255 217.986 341.824 218.574C342.394 219.153 342.678 219.965 342.678 221.01V225.56H340.718V221.276C340.718 220.66 340.564 220.189 340.256 219.862C339.948 219.526 339.528 219.358 338.996 219.358C338.455 219.358 338.026 219.526 337.708 219.862C337.4 220.189 337.246 220.66 337.246 221.276V225.56H335.286V217.804H337.246V218.77C337.508 218.434 337.839 218.173 338.24 217.986C338.651 217.79 339.099 217.692 339.584 217.692ZM346.824 219.414V223.166C346.824 223.427 346.885 223.619 347.006 223.74C347.137 223.852 347.352 223.908 347.65 223.908H348.56V225.56H347.328C345.676 225.56 344.85 224.757 344.85 223.152V219.414H343.926V217.804H344.85V215.886H346.824V217.804H348.56V219.414H346.824ZM356.68 225.658C355.999 225.658 355.383 225.541 354.832 225.308C354.291 225.075 353.861 224.739 353.544 224.3C353.227 223.861 353.063 223.343 353.054 222.746H355.154C355.182 223.147 355.322 223.465 355.574 223.698C355.835 223.931 356.19 224.048 356.638 224.048C357.095 224.048 357.455 223.941 357.716 223.726C357.977 223.502 358.108 223.213 358.108 222.858C358.108 222.569 358.019 222.331 357.842 222.144C357.665 221.957 357.441 221.813 357.17 221.71C356.909 221.598 356.545 221.477 356.078 221.346C355.443 221.159 354.925 220.977 354.524 220.8C354.132 220.613 353.791 220.338 353.502 219.974C353.222 219.601 353.082 219.106 353.082 218.49C353.082 217.911 353.227 217.407 353.516 216.978C353.805 216.549 354.211 216.222 354.734 215.998C355.257 215.765 355.854 215.648 356.526 215.648C357.534 215.648 358.351 215.895 358.976 216.39C359.611 216.875 359.961 217.557 360.026 218.434H357.87C357.851 218.098 357.707 217.823 357.436 217.608C357.175 217.384 356.825 217.272 356.386 217.272C356.003 217.272 355.695 217.37 355.462 217.566C355.238 217.762 355.126 218.047 355.126 218.42C355.126 218.681 355.21 218.901 355.378 219.078C355.555 219.246 355.77 219.386 356.022 219.498C356.283 219.601 356.647 219.722 357.114 219.862C357.749 220.049 358.267 220.235 358.668 220.422C359.069 220.609 359.415 220.889 359.704 221.262C359.993 221.635 360.138 222.125 360.138 222.732C360.138 223.255 360.003 223.74 359.732 224.188C359.461 224.636 359.065 224.995 358.542 225.266C358.019 225.527 357.399 225.658 356.68 225.658ZM363.797 218.924C364.049 218.569 364.394 218.275 364.833 218.042C365.281 217.799 365.79 217.678 366.359 217.678C367.022 217.678 367.619 217.841 368.151 218.168C368.692 218.495 369.117 218.961 369.425 219.568C369.742 220.165 369.901 220.861 369.901 221.654C369.901 222.447 369.742 223.152 369.425 223.768C369.117 224.375 368.692 224.846 368.151 225.182C367.619 225.518 367.022 225.686 366.359 225.686C365.79 225.686 365.286 225.569 364.847 225.336C364.418 225.103 364.068 224.809 363.797 224.454V229.256H361.837V217.804H363.797V218.924ZM367.899 221.654C367.899 221.187 367.801 220.786 367.605 220.45C367.418 220.105 367.166 219.843 366.849 219.666C366.541 219.489 366.205 219.4 365.841 219.4C365.486 219.4 365.15 219.493 364.833 219.68C364.525 219.857 364.273 220.119 364.077 220.464C363.89 220.809 363.797 221.215 363.797 221.682C363.797 222.149 363.89 222.555 364.077 222.9C364.273 223.245 364.525 223.511 364.833 223.698C365.15 223.875 365.486 223.964 365.841 223.964C366.205 223.964 366.541 223.871 366.849 223.684C367.166 223.497 367.418 223.231 367.605 222.886C367.801 222.541 367.899 222.13 367.899 221.654ZM373.285 219.008C373.537 218.597 373.864 218.275 374.265 218.042C374.676 217.809 375.143 217.692 375.665 217.692V219.75H375.147C374.531 219.75 374.065 219.895 373.747 220.184C373.439 220.473 373.285 220.977 373.285 221.696V225.56H371.325V217.804H373.285V219.008ZM377.98 216.88C377.634 216.88 377.345 216.773 377.112 216.558C376.888 216.334 376.776 216.059 376.776 215.732C376.776 215.405 376.888 215.135 377.112 214.92C377.345 214.696 377.634 214.584 377.98 214.584C378.325 214.584 378.61 214.696 378.834 214.92C379.067 215.135 379.184 215.405 379.184 215.732C379.184 216.059 379.067 216.334 378.834 216.558C378.61 216.773 378.325 216.88 377.98 216.88ZM378.946 217.804V225.56H376.986V217.804H378.946ZM385.18 217.692C386.104 217.692 386.851 217.986 387.42 218.574C387.989 219.153 388.274 219.965 388.274 221.01V225.56H386.314V221.276C386.314 220.66 386.16 220.189 385.852 219.862C385.544 219.526 385.124 219.358 384.592 219.358C384.051 219.358 383.621 219.526 383.304 219.862C382.996 220.189 382.842 220.66 382.842 221.276V225.56H380.882V217.804H382.842V218.77C383.103 218.434 383.435 218.173 383.836 217.986C384.247 217.79 384.695 217.692 385.18 217.692ZM392.42 219.414V223.166C392.42 223.427 392.481 223.619 392.602 223.74C392.733 223.852 392.947 223.908 393.246 223.908H394.156V225.56H392.924C391.272 225.56 390.446 224.757 390.446 223.152V219.414H389.522V217.804H390.446V215.886H392.42V217.804H394.156V219.414H392.42Z" fill="#637381"/>
</g>
</g>
<g filter="url(#filter4_dd_4157_17273)">
<g clip-path="url(#clip5_4157_17273)">
<mask id="path-29-inside-5_4157_17273" fill="white">
<path d="M135 107.56H472V169.56H135V107.56Z"/>
</mask>
<path d="M135 107.56H472V169.56H135V107.56Z" fill="white"/>
<path d="M472 169.56V168.56H135V169.56V170.56H472V169.56Z" fill="#919EAB" fill-opacity="0.24" mask="url(#path-29-inside-5_4157_17273)"/>
<rect x="151" y="126.56" width="24" height="24" rx="12" fill="#0018FF" fill-opacity="0.12"/>
<path d="M170.104 143.22L164.05 137.167C164.67 135.607 164.35 133.767 163.09 132.5C161.557 130.967 159.17 130.827 157.47 132.067L160.03 134.633L159.084 135.573L156.53 133.02C155.29 134.713 155.43 137.107 156.964 138.633C158.204 139.873 160.01 140.2 161.557 139.62L167.63 145.693C167.89 145.953 168.31 145.953 168.57 145.693L170.104 144.16C170.37 143.907 170.37 143.487 170.104 143.22ZM168.104 144.287L161.797 137.98C161.39 138.28 160.937 138.46 160.464 138.527C159.557 138.66 158.604 138.387 157.91 137.693C157.277 137.067 156.984 136.227 157.03 135.4L159.09 137.46L161.917 134.633L159.857 132.573C160.684 132.527 161.517 132.82 162.15 133.447C162.87 134.167 163.144 135.16 162.977 136.087C162.897 136.56 162.697 137 162.39 137.393L168.69 143.693L168.104 144.287Z" fill="#032B68"/>
<path d="M193.926 133.788V143.56H191.966V133.788H193.926ZM200.16 135.692C201.084 135.692 201.831 135.986 202.4 136.574C202.97 137.153 203.254 137.965 203.254 139.01V143.56H201.294V139.276C201.294 138.66 201.14 138.189 200.832 137.862C200.524 137.526 200.104 137.358 199.572 137.358C199.031 137.358 198.602 137.526 198.284 137.862C197.976 138.189 197.822 138.66 197.822 139.276V143.56H195.862V135.804H197.822V136.77C198.084 136.434 198.415 136.173 198.816 135.986C199.227 135.79 199.675 135.692 200.16 135.692ZM208.674 137.414H207.316V143.56H205.328V137.414H204.446V135.804H205.328V135.412C205.328 134.46 205.599 133.76 206.14 133.312C206.682 132.864 207.498 132.654 208.59 132.682V134.334C208.114 134.325 207.783 134.404 207.596 134.572C207.41 134.74 207.316 135.043 207.316 135.482V135.804H208.674V137.414ZM211.905 137.008C212.157 136.597 212.483 136.275 212.885 136.042C213.295 135.809 213.762 135.692 214.285 135.692V137.75H213.767C213.151 137.75 212.684 137.895 212.367 138.184C212.059 138.473 211.905 138.977 211.905 139.696V143.56H209.945V135.804H211.905V137.008ZM222.927 135.804V143.56H220.953V142.58C220.701 142.916 220.369 143.182 219.959 143.378C219.557 143.565 219.119 143.658 218.643 143.658C218.036 143.658 217.499 143.532 217.033 143.28C216.566 143.019 216.197 142.641 215.927 142.146C215.665 141.642 215.535 141.045 215.535 140.354V135.804H217.495V140.074C217.495 140.69 217.649 141.166 217.957 141.502C218.265 141.829 218.685 141.992 219.217 141.992C219.758 141.992 220.183 141.829 220.491 141.502C220.799 141.166 220.953 140.69 220.953 140.074V135.804H222.927ZM227.829 143.686C227.194 143.686 226.625 143.574 226.121 143.35C225.617 143.117 225.215 142.804 224.917 142.412C224.627 142.02 224.469 141.586 224.441 141.11H226.415C226.452 141.409 226.597 141.656 226.849 141.852C227.11 142.048 227.432 142.146 227.815 142.146C228.188 142.146 228.477 142.071 228.683 141.922C228.897 141.773 229.005 141.581 229.005 141.348C229.005 141.096 228.874 140.909 228.613 140.788C228.361 140.657 227.955 140.517 227.395 140.368C226.816 140.228 226.34 140.083 225.967 139.934C225.603 139.785 225.285 139.556 225.015 139.248C224.753 138.94 224.623 138.525 224.623 138.002C224.623 137.573 224.744 137.181 224.987 136.826C225.239 136.471 225.593 136.191 226.051 135.986C226.517 135.781 227.063 135.678 227.689 135.678C228.613 135.678 229.35 135.911 229.901 136.378C230.451 136.835 230.755 137.456 230.811 138.24H228.935C228.907 137.932 228.776 137.689 228.543 137.512C228.319 137.325 228.015 137.232 227.633 137.232C227.278 137.232 227.003 137.297 226.807 137.428C226.62 137.559 226.527 137.741 226.527 137.974C226.527 138.235 226.657 138.436 226.919 138.576C227.18 138.707 227.586 138.842 228.137 138.982C228.697 139.122 229.159 139.267 229.523 139.416C229.887 139.565 230.199 139.799 230.461 140.116C230.731 140.424 230.871 140.835 230.881 141.348C230.881 141.796 230.755 142.197 230.503 142.552C230.26 142.907 229.905 143.187 229.439 143.392C228.981 143.588 228.445 143.686 227.829 143.686ZM234.771 137.414V141.166C234.771 141.427 234.832 141.619 234.953 141.74C235.084 141.852 235.299 141.908 235.597 141.908H236.507V143.56H235.275C233.623 143.56 232.797 142.757 232.797 141.152V137.414H231.873V135.804H232.797V133.886H234.771V135.804H236.507V137.414H234.771ZM239.877 137.008C240.129 136.597 240.456 136.275 240.857 136.042C241.268 135.809 241.735 135.692 242.257 135.692V137.75H241.739C241.123 137.75 240.657 137.895 240.339 138.184C240.031 138.473 239.877 138.977 239.877 139.696V143.56H237.917V135.804H239.877V137.008ZM243.073 139.654C243.073 138.87 243.227 138.175 243.535 137.568C243.853 136.961 244.277 136.495 244.809 136.168C245.351 135.841 245.953 135.678 246.615 135.678C247.194 135.678 247.698 135.795 248.127 136.028C248.566 136.261 248.916 136.555 249.177 136.91V135.804H251.151V143.56H249.177V142.426C248.925 142.79 248.575 143.093 248.127 143.336C247.689 143.569 247.18 143.686 246.601 143.686C245.948 143.686 245.351 143.518 244.809 143.182C244.277 142.846 243.853 142.375 243.535 141.768C243.227 141.152 243.073 140.447 243.073 139.654ZM249.177 139.682C249.177 139.206 249.084 138.8 248.897 138.464C248.711 138.119 248.459 137.857 248.141 137.68C247.824 137.493 247.483 137.4 247.119 137.4C246.755 137.4 246.419 137.489 246.111 137.666C245.803 137.843 245.551 138.105 245.355 138.45C245.169 138.786 245.075 139.187 245.075 139.654C245.075 140.121 245.169 140.531 245.355 140.886C245.551 141.231 245.803 141.497 246.111 141.684C246.429 141.871 246.765 141.964 247.119 141.964C247.483 141.964 247.824 141.875 248.141 141.698C248.459 141.511 248.711 141.25 248.897 140.914C249.084 140.569 249.177 140.158 249.177 139.682ZM255.348 137.414V141.166C255.348 141.427 255.408 141.619 255.53 141.74C255.66 141.852 255.875 141.908 256.174 141.908H257.084V143.56H255.852C254.2 143.56 253.374 142.757 253.374 141.152V137.414H252.45V135.804H253.374V133.886H255.348V135.804H257.084V137.414H255.348ZM259.487 134.88C259.142 134.88 258.853 134.773 258.619 134.558C258.395 134.334 258.283 134.059 258.283 133.732C258.283 133.405 258.395 133.135 258.619 132.92C258.853 132.696 259.142 132.584 259.487 132.584C259.833 132.584 260.117 132.696 260.341 132.92C260.575 133.135 260.691 133.405 260.691 133.732C260.691 134.059 260.575 134.334 260.341 134.558C260.117 134.773 259.833 134.88 259.487 134.88ZM260.453 135.804V143.56H258.493V135.804H260.453ZM265.834 143.686C265.087 143.686 264.415 143.523 263.818 143.196C263.22 142.86 262.749 142.389 262.404 141.782C262.068 141.175 261.9 140.475 261.9 139.682C261.9 138.889 262.072 138.189 262.418 137.582C262.772 136.975 263.253 136.509 263.86 136.182C264.466 135.846 265.143 135.678 265.89 135.678C266.636 135.678 267.313 135.846 267.92 136.182C268.526 136.509 269.002 136.975 269.348 137.582C269.702 138.189 269.88 138.889 269.88 139.682C269.88 140.475 269.698 141.175 269.334 141.782C268.979 142.389 268.494 142.86 267.878 143.196C267.271 143.523 266.59 143.686 265.834 143.686ZM265.834 141.978C266.188 141.978 266.52 141.894 266.828 141.726C267.145 141.549 267.397 141.287 267.584 140.942C267.77 140.597 267.864 140.177 267.864 139.682C267.864 138.945 267.668 138.38 267.276 137.988C266.893 137.587 266.422 137.386 265.862 137.386C265.302 137.386 264.83 137.587 264.448 137.988C264.074 138.38 263.888 138.945 263.888 139.682C263.888 140.419 264.07 140.989 264.434 141.39C264.807 141.782 265.274 141.978 265.834 141.978ZM275.616 135.692C276.54 135.692 277.286 135.986 277.856 136.574C278.425 137.153 278.71 137.965 278.71 139.01V143.56H276.75V139.276C276.75 138.66 276.596 138.189 276.288 137.862C275.98 137.526 275.56 137.358 275.028 137.358C274.486 137.358 274.057 137.526 273.74 137.862C273.432 138.189 273.278 138.66 273.278 139.276V143.56H271.318V135.804H273.278V136.77C273.539 136.434 273.87 136.173 274.272 135.986C274.682 135.79 275.13 135.692 275.616 135.692ZM287.283 143.658C286.602 143.658 285.986 143.541 285.435 143.308C284.894 143.075 284.465 142.739 284.147 142.3C283.83 141.861 283.667 141.343 283.657 140.746H285.757C285.785 141.147 285.925 141.465 286.177 141.698C286.439 141.931 286.793 142.048 287.241 142.048C287.699 142.048 288.058 141.941 288.319 141.726C288.581 141.502 288.711 141.213 288.711 140.858C288.711 140.569 288.623 140.331 288.445 140.144C288.268 139.957 288.044 139.813 287.773 139.71C287.512 139.598 287.148 139.477 286.681 139.346C286.047 139.159 285.529 138.977 285.127 138.8C284.735 138.613 284.395 138.338 284.105 137.974C283.825 137.601 283.685 137.106 283.685 136.49C283.685 135.911 283.83 135.407 284.119 134.978C284.409 134.549 284.815 134.222 285.337 133.998C285.86 133.765 286.457 133.648 287.129 133.648C288.137 133.648 288.954 133.895 289.579 134.39C290.214 134.875 290.564 135.557 290.629 136.434H288.473C288.455 136.098 288.31 135.823 288.039 135.608C287.778 135.384 287.428 135.272 286.989 135.272C286.607 135.272 286.299 135.37 286.065 135.566C285.841 135.762 285.729 136.047 285.729 136.42C285.729 136.681 285.813 136.901 285.981 137.078C286.159 137.246 286.373 137.386 286.625 137.498C286.887 137.601 287.251 137.722 287.717 137.862C288.352 138.049 288.87 138.235 289.271 138.422C289.673 138.609 290.018 138.889 290.307 139.262C290.597 139.635 290.741 140.125 290.741 140.732C290.741 141.255 290.606 141.74 290.335 142.188C290.065 142.636 289.668 142.995 289.145 143.266C288.623 143.527 288.002 143.658 287.283 143.658ZM291.937 139.682C291.937 138.879 292.1 138.179 292.427 137.582C292.753 136.975 293.206 136.509 293.785 136.182C294.363 135.846 295.026 135.678 295.773 135.678C296.734 135.678 297.527 135.921 298.153 136.406C298.787 136.882 299.212 137.554 299.427 138.422H297.313C297.201 138.086 297.009 137.825 296.739 137.638C296.477 137.442 296.151 137.344 295.759 137.344C295.199 137.344 294.755 137.549 294.429 137.96C294.102 138.361 293.939 138.935 293.939 139.682C293.939 140.419 294.102 140.993 294.429 141.404C294.755 141.805 295.199 142.006 295.759 142.006C296.552 142.006 297.07 141.651 297.313 140.942H299.427C299.212 141.782 298.787 142.449 298.153 142.944C297.518 143.439 296.725 143.686 295.773 143.686C295.026 143.686 294.363 143.523 293.785 143.196C293.206 142.86 292.753 142.393 292.427 141.796C292.1 141.189 291.937 140.485 291.937 139.682ZM300.358 139.654C300.358 138.87 300.512 138.175 300.82 137.568C301.138 136.961 301.562 136.495 302.094 136.168C302.636 135.841 303.238 135.678 303.9 135.678C304.479 135.678 304.983 135.795 305.412 136.028C305.851 136.261 306.201 136.555 306.462 136.91V135.804H308.436V143.56H306.462V142.426C306.21 142.79 305.86 143.093 305.412 143.336C304.974 143.569 304.465 143.686 303.886 143.686C303.233 143.686 302.636 143.518 302.094 143.182C301.562 142.846 301.138 142.375 300.82 141.768C300.512 141.152 300.358 140.447 300.358 139.654ZM306.462 139.682C306.462 139.206 306.369 138.8 306.182 138.464C305.996 138.119 305.744 137.857 305.426 137.68C305.109 137.493 304.768 137.4 304.404 137.4C304.04 137.4 303.704 137.489 303.396 137.666C303.088 137.843 302.836 138.105 302.64 138.45C302.454 138.786 302.36 139.187 302.36 139.654C302.36 140.121 302.454 140.531 302.64 140.886C302.836 141.231 303.088 141.497 303.396 141.684C303.714 141.871 304.05 141.964 304.404 141.964C304.768 141.964 305.109 141.875 305.426 141.698C305.744 141.511 305.996 141.25 306.182 140.914C306.369 140.569 306.462 140.158 306.462 139.682ZM312.311 133.2V143.56H310.351V133.2H312.311ZM315.241 134.88C314.896 134.88 314.607 134.773 314.373 134.558C314.149 134.334 314.037 134.059 314.037 133.732C314.037 133.405 314.149 133.135 314.373 132.92C314.607 132.696 314.896 132.584 315.241 132.584C315.587 132.584 315.871 132.696 316.095 132.92C316.329 133.135 316.445 133.405 316.445 133.732C316.445 134.059 316.329 134.334 316.095 134.558C315.871 134.773 315.587 134.88 315.241 134.88ZM316.207 135.804V143.56H314.247V135.804H316.207ZM322.442 135.692C323.366 135.692 324.112 135.986 324.682 136.574C325.251 137.153 325.536 137.965 325.536 139.01V143.56H323.576V139.276C323.576 138.66 323.422 138.189 323.114 137.862C322.806 137.526 322.386 137.358 321.854 137.358C321.312 137.358 320.883 137.526 320.566 137.862C320.258 138.189 320.104 138.66 320.104 139.276V143.56H318.144V135.804H320.104V136.77C320.365 136.434 320.696 136.173 321.098 135.986C321.508 135.79 321.956 135.692 322.442 135.692ZM330.438 135.678C331.016 135.678 331.525 135.795 331.964 136.028C332.402 136.252 332.748 136.546 333 136.91V135.804H334.974V143.616C334.974 144.335 334.829 144.974 334.54 145.534C334.25 146.103 333.816 146.551 333.238 146.878C332.659 147.214 331.959 147.382 331.138 147.382C330.036 147.382 329.131 147.125 328.422 146.612C327.722 146.099 327.325 145.399 327.232 144.512H329.178C329.28 144.867 329.5 145.147 329.836 145.352C330.181 145.567 330.596 145.674 331.082 145.674C331.651 145.674 332.113 145.501 332.468 145.156C332.822 144.82 333 144.307 333 143.616V142.412C332.748 142.776 332.398 143.079 331.95 143.322C331.511 143.565 331.007 143.686 330.438 143.686C329.784 143.686 329.187 143.518 328.646 143.182C328.104 142.846 327.675 142.375 327.358 141.768C327.05 141.152 326.896 140.447 326.896 139.654C326.896 138.87 327.05 138.175 327.358 137.568C327.675 136.961 328.1 136.495 328.632 136.168C329.173 135.841 329.775 135.678 330.438 135.678ZM333 139.682C333 139.206 332.906 138.8 332.72 138.464C332.533 138.119 332.281 137.857 331.964 137.68C331.646 137.493 331.306 137.4 330.942 137.4C330.578 137.4 330.242 137.489 329.934 137.666C329.626 137.843 329.374 138.105 329.178 138.45C328.991 138.786 328.898 139.187 328.898 139.654C328.898 140.121 328.991 140.531 329.178 140.886C329.374 141.231 329.626 141.497 329.934 141.684C330.251 141.871 330.587 141.964 330.942 141.964C331.306 141.964 331.646 141.875 331.964 141.698C332.281 141.511 332.533 141.25 332.72 140.914C332.906 140.569 333 140.158 333 139.682Z" fill="#212B36"/>
<rect x="352" y="126.56" width="104" height="24" rx="6" fill="#0018FF" fill-opacity="0.16"/>
<ellipse cx="368" cy="138.558" rx="8" ry="7.99763" fill="white"/>
<path d="M375.99 138.148C375.776 133.922 372.281 130.56 367.999 130.56C367.833 130.56 367.668 130.567 367.504 130.577C367.497 130.577 367.492 130.579 367.485 130.579C367.334 130.588 367.185 130.602 367.037 130.621C367.014 130.622 366.993 130.626 366.969 130.628C366.832 130.647 366.697 130.667 366.563 130.692C366.541 130.694 366.521 130.699 366.5 130.702C366.04 130.789 365.592 130.916 365.162 131.079C365.138 131.089 365.114 131.099 365.088 131.108C364.973 131.153 364.862 131.201 364.75 131.25C364.718 131.264 364.687 131.279 364.654 131.293C364.546 131.343 364.437 131.396 364.332 131.45C364.305 131.464 364.278 131.477 364.251 131.492C363.988 131.631 363.732 131.786 363.489 131.952C363.464 131.969 363.441 131.986 363.416 132.003C363.322 132.069 363.23 132.136 363.137 132.207C363.101 132.235 363.067 132.262 363.032 132.29C362.951 132.354 362.873 132.418 362.795 132.485C362.759 132.516 362.726 132.545 362.689 132.576C362.61 132.649 362.531 132.721 362.452 132.797C362.425 132.821 362.399 132.848 362.371 132.874C362.268 132.976 362.167 133.081 362.068 133.189C362.063 133.197 362.056 133.205 362.049 133.21C361.959 133.311 361.873 133.414 361.788 133.516C361.761 133.551 361.734 133.586 361.707 133.62C361.644 133.701 361.581 133.781 361.521 133.863C361.509 133.882 361.494 133.901 361.48 133.92C361.48 133.92 361.482 133.92 361.482 133.921C360.551 135.229 360 136.83 360 138.56C360 140.291 360.551 141.89 361.484 143.199L361.483 143.2C361.511 143.241 361.542 143.278 361.571 143.319C361.623 143.386 361.674 143.455 361.726 143.521C361.77 143.58 361.819 143.635 361.866 143.69C361.917 143.754 361.97 143.816 362.023 143.876C362.074 143.936 362.129 143.991 362.181 144.046C362.233 144.104 362.286 144.159 362.341 144.213C362.399 144.272 362.459 144.327 362.519 144.384C362.572 144.434 362.624 144.483 362.677 144.53C362.743 144.59 362.81 144.645 362.877 144.7C362.928 144.743 362.98 144.788 363.031 144.83C363.105 144.886 363.18 144.941 363.255 145C363.29 145.024 363.322 145.052 363.358 145.076C363.358 145.076 363.358 145.075 363.36 145.075C364.668 146.009 366.268 146.56 367.999 146.56C369.731 146.56 371.33 146.009 372.64 145.075V145.076C372.652 145.068 372.663 145.059 372.674 145.05C372.777 144.978 372.874 144.901 372.973 144.825C372.992 144.81 373.011 144.795 373.03 144.781C373.263 144.592 373.484 144.392 373.694 144.18C373.71 144.163 373.727 144.144 373.745 144.126C373.828 144.042 373.909 143.951 373.99 143.861C374.017 143.832 374.042 143.802 374.069 143.771C374.138 143.689 374.206 143.607 374.273 143.522C374.299 143.49 374.325 143.456 374.351 143.423C374.421 143.332 374.487 143.241 374.554 143.147C374.572 143.12 374.591 143.095 374.609 143.068C374.693 142.945 374.773 142.823 374.85 142.696C374.855 142.686 374.86 142.677 374.865 142.667C374.935 142.553 375 142.436 375.063 142.319C375.083 142.278 375.104 142.238 375.124 142.2C375.169 142.109 375.214 142.017 375.258 141.924C375.28 141.879 375.301 141.833 375.321 141.785C375.36 141.695 375.399 141.603 375.434 141.511C375.453 141.465 375.472 141.419 375.49 141.374C375.531 141.266 375.569 141.154 375.605 141.042C375.613 141.014 375.624 140.985 375.634 140.956C375.68 140.816 375.719 140.675 375.755 140.531C375.764 140.493 375.771 140.455 375.781 140.417C375.807 140.31 375.831 140.203 375.852 140.093C375.862 140.043 375.871 139.99 375.881 139.938C375.897 139.84 375.913 139.742 375.925 139.643C375.933 139.588 375.939 139.534 375.946 139.479C375.958 139.376 375.968 139.272 375.976 139.167C375.978 139.119 375.984 139.07 375.986 139.023C375.994 138.869 376 138.714 376 138.561C376 138.424 375.997 138.286 375.989 138.149L375.99 138.148ZM364.167 136.962C364.059 137.017 363.959 137.067 363.959 137.067C364.032 136.616 364.304 136.215 364.712 136.009C365.004 135.861 365.362 135.772 365.735 135.772C366.161 135.772 366.557 135.89 366.875 136.108C367.03 136.202 367.158 136.312 367.253 136.429C367.321 136.503 367.391 136.601 367.458 136.713L367.683 137.102L367.279 136.905C366.99 136.766 366.674 136.694 366.359 136.694C365.409 136.694 364.641 137.309 364.456 138.289L364.412 138.542C364.412 138.542 363.912 137.908 364.428 136.836C364.393 136.85 364.276 136.908 364.167 136.961V136.962ZM370.554 142.142L370.114 141.856C370.11 141.852 370.104 141.849 370.099 141.845L369.856 141.687L369.604 141.524L368.963 141.106C368.555 140.837 368.306 140.368 368.306 139.859V139.542C368.502 139.454 368.637 139.287 368.637 139.094C368.637 138.911 368.519 138.75 368.341 138.66C368.326 138.653 368.313 138.647 368.298 138.641C368.21 138.603 368.108 138.581 368 138.581C367.892 138.581 367.79 138.604 367.702 138.641C367.687 138.647 367.674 138.653 367.661 138.66C367.482 138.751 367.363 138.911 367.363 139.094C367.363 139.288 367.498 139.454 367.694 139.542V139.859C367.694 140.369 367.445 140.837 367.037 141.106L366.397 141.524L366.145 141.687L365.9 141.845C365.895 141.85 365.891 141.852 365.886 141.856L365.445 142.142L365.309 140.4C365.301 139.979 365.384 139.586 365.553 139.24C365.553 139.238 365.554 139.236 365.554 139.236C365.704 138.929 365.919 138.659 366.202 138.438C366.763 137.995 367.426 137.923 367.999 138.061C368.573 137.923 369.236 137.995 369.797 138.438C370.079 138.659 370.295 138.929 370.445 139.236C370.445 139.236 370.446 139.238 370.446 139.24C370.615 139.586 370.698 139.979 370.692 140.4L370.554 142.142ZM369.639 136.694C369.325 136.694 369.007 136.767 368.72 136.906L368.315 137.102L368.542 136.713C368.607 136.602 368.679 136.503 368.747 136.429C368.841 136.312 368.971 136.203 369.124 136.109C369.441 135.891 369.838 135.772 370.265 135.772C370.638 135.772 370.995 135.861 371.287 136.009C371.694 136.216 371.967 136.616 372.038 137.068C372.038 137.068 371.94 137.018 371.832 136.962C371.724 136.909 371.608 136.851 371.571 136.837C372.085 137.909 371.587 138.543 371.587 138.543L371.543 138.29C371.357 137.31 370.59 136.695 369.638 136.695L369.639 136.694ZM371.937 144.072C370.966 142.397 371.937 140.702 371.937 140.702L372.336 141.549C373.085 140.605 373.792 139.166 373.478 137.277C373.317 136.305 372.817 135.47 371.99 134.796C371.444 134.348 370.801 134.122 370.078 134.122C369.291 134.122 368.572 134.384 368.1 134.58L367.999 134.621L367.898 134.58C367.427 134.383 366.708 134.122 365.92 134.122C365.198 134.122 364.556 134.348 364.008 134.796C363.182 135.47 362.682 136.305 362.521 137.277C362.208 139.166 362.914 140.605 363.663 141.549L364.061 140.702C364.061 140.702 365.032 142.397 364.061 144.072C362.335 142.841 361.211 140.823 361.211 138.542C361.211 134.793 364.249 131.753 367.999 131.753C371.75 131.753 374.79 134.793 374.79 138.542C374.79 140.823 373.664 142.842 371.937 144.072Z" fill="#0C0C0C"/>
<path d="M383.429 142.56V133.884H385.175V142.56H383.429ZM386.898 142.56V136.356H388.62V137.232C388.716 137.08 388.84 136.934 388.992 136.794C389.148 136.65 389.344 136.532 389.58 136.44C389.816 136.348 390.096 136.302 390.42 136.302C390.8 136.302 391.154 136.376 391.482 136.524C391.814 136.672 392.082 136.906 392.286 137.226C392.49 137.542 392.592 137.956 392.592 138.468V142.56H390.84V138.684C390.84 138.348 390.74 138.096 390.54 137.928C390.34 137.76 390.096 137.676 389.808 137.676C389.616 137.676 389.43 137.71 389.25 137.778C389.074 137.846 388.93 137.948 388.818 138.084C388.706 138.22 388.65 138.388 388.65 138.588V142.56H386.898ZM396.941 142.56V133.884H400.133C400.765 133.884 401.331 133.994 401.831 134.214C402.331 134.43 402.725 134.75 403.013 135.174C403.305 135.598 403.451 136.116 403.451 136.728C403.451 137.304 403.323 137.796 403.067 138.204C402.811 138.612 402.451 138.924 401.987 139.14C401.527 139.356 400.985 139.464 400.361 139.464H398.705V142.56H396.941ZM398.687 138.108H400.313C400.753 138.108 401.113 137.968 401.393 137.688C401.673 137.404 401.813 137.054 401.813 136.638C401.813 136.206 401.665 135.864 401.369 135.612C401.073 135.356 400.713 135.228 400.289 135.228H398.687V138.108ZM404.547 142.56V136.356H406.233V137.826C406.333 137.51 406.473 137.234 406.653 136.998C406.837 136.758 407.059 136.572 407.319 136.44C407.579 136.304 407.873 136.236 408.201 136.236C408.257 136.236 408.309 136.24 408.357 136.248C408.409 136.252 408.447 136.26 408.471 136.272V137.94C408.435 137.924 408.391 137.914 408.339 137.91C408.291 137.906 408.247 137.902 408.207 137.898C407.863 137.87 407.569 137.88 407.325 137.928C407.081 137.976 406.883 138.058 406.731 138.174C406.579 138.29 406.469 138.432 406.401 138.6C406.333 138.768 406.299 138.956 406.299 139.164V142.56H404.547ZM412.186 142.68C411.578 142.68 411.048 142.55 410.596 142.29C410.148 142.03 409.8 141.662 409.552 141.186C409.308 140.71 409.186 140.146 409.186 139.494C409.186 138.842 409.308 138.272 409.552 137.784C409.8 137.296 410.148 136.916 410.596 136.644C411.048 136.372 411.58 136.236 412.192 136.236C412.804 136.236 413.334 136.37 413.782 136.638C414.23 136.902 414.576 137.278 414.82 137.766C415.064 138.254 415.186 138.83 415.186 139.494C415.186 140.118 415.066 140.67 414.826 141.15C414.59 141.626 414.248 142 413.8 142.272C413.356 142.544 412.818 142.68 412.186 142.68ZM412.192 141.378C412.5 141.378 412.748 141.288 412.936 141.108C413.124 140.928 413.26 140.692 413.344 140.4C413.428 140.104 413.47 139.782 413.47 139.434C413.47 139.106 413.432 138.796 413.356 138.504C413.28 138.212 413.148 137.976 412.96 137.796C412.772 137.616 412.516 137.526 412.192 137.526C411.884 137.526 411.634 137.612 411.442 137.784C411.254 137.952 411.116 138.182 411.028 138.474C410.94 138.762 410.896 139.082 410.896 139.434C410.896 139.758 410.936 140.07 411.016 140.37C411.096 140.666 411.23 140.908 411.418 141.096C411.606 141.284 411.864 141.378 412.192 141.378ZM419.181 144.612C418.077 144.612 417.237 144.472 416.661 144.192C416.089 143.912 415.803 143.544 415.803 143.088C415.803 142.876 415.857 142.698 415.965 142.554C416.077 142.41 416.207 142.296 416.355 142.212C416.507 142.124 416.645 142.058 416.769 142.014C416.897 141.966 416.977 141.934 417.009 141.918C416.945 141.882 416.851 141.83 416.727 141.762C416.607 141.69 416.497 141.594 416.397 141.474C416.297 141.35 416.247 141.19 416.247 140.994C416.247 140.774 416.351 140.57 416.559 140.382C416.771 140.194 417.091 140.064 417.519 139.992C417.111 139.8 416.799 139.54 416.583 139.212C416.371 138.884 416.265 138.548 416.265 138.204C416.265 137.796 416.393 137.446 416.649 137.154C416.905 136.862 417.255 136.64 417.699 136.488C418.143 136.336 418.645 136.26 419.205 136.26C419.629 136.26 419.977 136.306 420.249 136.398C420.525 136.486 420.779 136.602 421.011 136.746C421.103 136.71 421.223 136.664 421.371 136.608C421.523 136.548 421.687 136.484 421.863 136.416C422.043 136.344 422.217 136.274 422.385 136.206C422.553 136.134 422.703 136.07 422.835 136.014L422.823 137.37L421.755 137.544C421.795 137.652 421.827 137.768 421.851 137.892C421.875 138.016 421.887 138.118 421.887 138.198C421.887 138.558 421.781 138.894 421.569 139.206C421.361 139.518 421.049 139.77 420.633 139.962C420.217 140.154 419.699 140.25 419.079 140.25C419.007 140.25 418.907 140.248 418.779 140.244C418.651 140.24 418.547 140.234 418.467 140.226C418.235 140.238 418.073 140.268 417.981 140.316C417.893 140.364 417.849 140.42 417.849 140.484C417.849 140.58 417.939 140.644 418.119 140.676C418.299 140.704 418.571 140.73 418.935 140.754C419.067 140.762 419.247 140.772 419.475 140.784C419.703 140.796 419.953 140.812 420.225 140.832C420.985 140.884 421.551 141.072 421.923 141.396C422.299 141.716 422.487 142.12 422.487 142.608C422.487 143.188 422.211 143.666 421.659 144.042C421.111 144.422 420.285 144.612 419.181 144.612ZM419.463 143.634C419.947 143.634 420.293 143.574 420.501 143.454C420.713 143.334 420.819 143.162 420.819 142.938C420.819 142.75 420.737 142.598 420.573 142.482C420.413 142.362 420.181 142.292 419.877 142.272L418.455 142.176C418.267 142.168 418.103 142.196 417.963 142.26C417.823 142.324 417.713 142.412 417.633 142.524C417.557 142.636 417.519 142.756 417.519 142.884C417.519 143.144 417.677 143.334 417.993 143.454C418.309 143.574 418.799 143.634 419.463 143.634ZM419.133 139.272C419.465 139.272 419.731 139.182 419.931 139.002C420.131 138.818 420.231 138.57 420.231 138.258C420.231 137.934 420.131 137.674 419.931 137.478C419.731 137.282 419.465 137.184 419.133 137.184C418.801 137.184 418.533 137.282 418.329 137.478C418.125 137.674 418.023 137.934 418.023 138.258C418.023 138.566 418.121 138.812 418.317 138.996C418.517 139.18 418.789 139.272 419.133 139.272ZM423.848 142.56V136.356H425.534V137.826C425.634 137.51 425.774 137.234 425.954 136.998C426.138 136.758 426.36 136.572 426.62 136.44C426.88 136.304 427.174 136.236 427.502 136.236C427.558 136.236 427.61 136.24 427.658 136.248C427.71 136.252 427.748 136.26 427.772 136.272V137.94C427.736 137.924 427.692 137.914 427.64 137.91C427.592 137.906 427.548 137.902 427.508 137.898C427.164 137.87 426.87 137.88 426.626 137.928C426.382 137.976 426.184 138.058 426.032 138.174C425.88 138.29 425.77 138.432 425.702 138.6C425.634 138.768 425.6 138.956 425.6 139.164V142.56H423.848ZM431.631 142.68C431.015 142.68 430.473 142.552 430.005 142.296C429.541 142.036 429.179 141.67 428.919 141.198C428.659 140.726 428.529 140.17 428.529 139.53C428.529 138.91 428.647 138.352 428.883 137.856C429.123 137.356 429.467 136.962 429.915 136.674C430.363 136.382 430.905 136.236 431.541 136.236C432.173 136.236 432.703 136.37 433.131 136.638C433.559 136.902 433.883 137.272 434.103 137.748C434.323 138.22 434.433 138.766 434.433 139.386V139.86H430.263C430.263 140.176 430.315 140.452 430.419 140.688C430.523 140.92 430.673 141.1 430.869 141.228C431.069 141.352 431.309 141.414 431.589 141.414C431.889 141.414 432.151 141.35 432.375 141.222C432.599 141.094 432.757 140.884 432.849 140.592H434.427C434.355 141.032 434.179 141.408 433.899 141.72C433.619 142.032 433.279 142.27 432.879 142.434C432.479 142.598 432.063 142.68 431.631 142.68ZM430.263 138.816H432.795C432.795 138.568 432.747 138.34 432.651 138.132C432.559 137.924 432.419 137.76 432.231 137.64C432.047 137.52 431.815 137.46 431.535 137.46C431.267 137.46 431.037 137.526 430.845 137.658C430.657 137.786 430.511 137.954 430.407 138.162C430.307 138.37 430.259 138.588 430.263 138.816ZM438.18 142.68C437.748 142.68 437.332 142.61 436.932 142.47C436.536 142.326 436.198 142.102 435.918 141.798C435.642 141.49 435.468 141.092 435.396 140.604H436.908C436.964 140.824 437.06 140.998 437.196 141.126C437.336 141.254 437.494 141.346 437.67 141.402C437.846 141.454 438.014 141.48 438.174 141.48C438.51 141.48 438.78 141.428 438.984 141.324C439.192 141.216 439.296 141.052 439.296 140.832C439.296 140.664 439.234 140.53 439.11 140.43C438.99 140.33 438.79 140.254 438.51 140.202L437.418 139.974C436.87 139.858 436.428 139.662 436.092 139.386C435.76 139.106 435.592 138.71 435.588 138.198C435.584 137.826 435.68 137.492 435.876 137.196C436.076 136.9 436.37 136.666 436.758 136.494C437.15 136.322 437.628 136.236 438.192 136.236C438.956 136.236 439.566 136.404 440.022 136.74C440.482 137.076 440.716 137.55 440.724 138.162H439.26C439.216 137.922 439.096 137.738 438.9 137.61C438.708 137.478 438.464 137.412 438.168 137.412C437.868 137.412 437.62 137.466 437.424 137.574C437.228 137.682 437.13 137.846 437.13 138.066C437.13 138.23 437.21 138.36 437.37 138.456C437.53 138.548 437.778 138.628 438.114 138.696L439.122 138.924C439.47 139.008 439.752 139.124 439.968 139.272C440.188 139.416 440.358 139.574 440.478 139.746C440.598 139.918 440.68 140.092 440.724 140.268C440.772 140.44 440.796 140.596 440.796 140.736C440.796 141.148 440.686 141.5 440.466 141.792C440.246 142.08 439.94 142.3 439.548 142.452C439.156 142.604 438.7 142.68 438.18 142.68ZM444.461 142.68C444.029 142.68 443.613 142.61 443.213 142.47C442.817 142.326 442.479 142.102 442.199 141.798C441.923 141.49 441.749 141.092 441.677 140.604H443.189C443.245 140.824 443.341 140.998 443.477 141.126C443.617 141.254 443.775 141.346 443.951 141.402C444.127 141.454 444.295 141.48 444.455 141.48C444.791 141.48 445.061 141.428 445.265 141.324C445.473 141.216 445.577 141.052 445.577 140.832C445.577 140.664 445.515 140.53 445.391 140.43C445.271 140.33 445.071 140.254 444.791 140.202L443.699 139.974C443.151 139.858 442.709 139.662 442.373 139.386C442.041 139.106 441.873 138.71 441.869 138.198C441.865 137.826 441.961 137.492 442.157 137.196C442.357 136.9 442.651 136.666 443.039 136.494C443.431 136.322 443.909 136.236 444.473 136.236C445.237 136.236 445.847 136.404 446.303 136.74C446.763 137.076 446.997 137.55 447.005 138.162H445.541C445.497 137.922 445.377 137.738 445.181 137.61C444.989 137.478 444.745 137.412 444.449 137.412C444.149 137.412 443.901 137.466 443.705 137.574C443.509 137.682 443.411 137.846 443.411 138.066C443.411 138.23 443.491 138.36 443.651 138.456C443.811 138.548 444.059 138.628 444.395 138.696L445.403 138.924C445.751 139.008 446.033 139.124 446.249 139.272C446.469 139.416 446.639 139.574 446.759 139.746C446.879 139.918 446.961 140.092 447.005 140.268C447.053 140.44 447.077 140.596 447.077 140.736C447.077 141.148 446.967 141.5 446.747 141.792C446.527 142.08 446.221 142.3 445.829 142.452C445.437 142.604 444.981 142.68 444.461 142.68Z" fill="#032B68"/>
</g>
</g>
<path d="M519 85L520.25 82.25L523 81L520.25 79.75L519 77L517.75 79.75L515 81L517.75 82.25L519 85Z" fill="#FFAB00"/>
<path d="M519 91L517.75 93.75L515 95L517.75 96.25L519 99L520.25 96.25L523 95L520.25 93.75L519 91Z" fill="#FFAB00"/>
<path d="M511.5 85.5L509 80L506.5 85.5L501 88L506.5 90.5L509 96L511.5 90.5L517 88L511.5 85.5ZM509.99 88.99L509 91.17L508.01 88.99L505.83 88L508.01 87.01L509 84.83L509.99 87.01L512.17 88L509.99 88.99Z" fill="#FFAB00"/>
<path d="M97 174.56L98.25 171.81L101 170.56L98.25 169.31L97 166.56L95.75 169.31L93 170.56L95.75 171.81L97 174.56Z" fill="#FFAB00"/>
<path d="M97 180.56L95.75 183.31L93 184.56L95.75 185.81L97 188.56L98.25 185.81L101 184.56L98.25 183.31L97 180.56Z" fill="#FFAB00"/>
<path d="M89.5 175.06L87 169.56L84.5 175.06L79 177.56L84.5 180.06L87 185.56L89.5 180.06L95 177.56L89.5 175.06ZM87.99 178.55L87 180.73L86.01 178.55L83.83 177.56L86.01 176.57L87 174.39L87.99 176.57L90.17 177.56L87.99 178.55Z" fill="#FFAB00"/>
<rect x="518" y="349.56" width="24" height="24" rx="12" fill="#DFE3E8"/>
<path d="M530 354.227L524 356.893V360.893C524 364.593 526.56 368.053 530 368.893C533.44 368.053 536 364.593 536 360.893V356.893L530 354.227ZM534.667 360.893C534.667 363.907 532.68 366.687 530 367.513C527.32 366.687 525.333 363.907 525.333 360.893V357.76L530 355.687L534.667 357.76V360.893ZM526.94 361.287L526 362.227L528.667 364.893L534 359.56L533.06 358.613L528.667 363.007L526.94 361.287Z" fill="#707881"/>
<rect x="432" y="208.56" width="24" height="24" rx="12" fill="#DFE3E8"/>
<path d="M444.667 219.893H446.667C446.843 219.893 447.013 219.964 447.138 220.089C447.263 220.214 447.333 220.383 447.333 220.56C447.333 220.737 447.263 220.906 447.138 221.032C447.013 221.157 446.843 221.227 446.667 221.227H444C443.823 221.227 443.654 221.157 443.529 221.032C443.403 220.906 443.333 220.737 443.333 220.56V217.893C443.333 217.717 443.403 217.547 443.529 217.422C443.654 217.297 443.823 217.227 444 217.227C444.177 217.227 444.346 217.297 444.471 217.422C444.596 217.547 444.667 217.717 444.667 217.893V219.893Z" fill="#637381"/>
<path fill-rule="evenodd" clip-rule="evenodd" d="M440.296 215.017C441.392 214.284 442.681 213.893 444 213.893C444.875 213.893 445.742 214.066 446.551 214.401C447.36 214.736 448.095 215.227 448.714 215.846C449.333 216.465 449.824 217.2 450.159 218.009C450.494 218.818 450.667 219.685 450.667 220.56C450.667 221.879 450.276 223.168 449.543 224.264C448.811 225.36 447.769 226.215 446.551 226.719C445.333 227.224 443.993 227.356 442.699 227.099C441.406 226.841 440.218 226.206 439.286 225.274C438.354 224.342 437.719 223.154 437.461 221.861C437.204 220.567 437.336 219.227 437.841 218.009C438.345 216.791 439.2 215.75 440.296 215.017ZM441.037 224.995C441.914 225.581 442.945 225.893 444 225.893C445.414 225.893 446.771 225.332 447.771 224.331C448.771 223.331 449.333 221.975 449.333 220.56C449.333 219.505 449.02 218.474 448.434 217.597C447.848 216.72 447.015 216.036 446.041 215.633C445.066 215.229 443.994 215.123 442.959 215.329C441.925 215.535 440.975 216.043 440.229 216.789C439.483 217.535 438.975 218.485 438.769 219.52C438.563 220.554 438.669 221.627 439.073 222.601C439.476 223.576 440.16 224.409 441.037 224.995Z" fill="#637381"/>
<rect x="111" y="251.56" width="24" height="24" rx="12" fill="#DFE3E8"/>
<path d="M127.9 262.253C127.447 259.953 125.427 258.227 123 258.227C121.073 258.227 119.4 259.32 118.567 260.92C116.56 261.133 115 262.833 115 264.893C115 267.1 116.793 268.893 119 268.893H127.667C129.507 268.893 131 267.4 131 265.56C131 263.8 129.633 262.373 127.9 262.253ZM127.667 267.56H119C117.527 267.56 116.333 266.367 116.333 264.893C116.333 263.527 117.353 262.387 118.707 262.247L119.42 262.173L119.753 261.54C120.387 260.32 121.627 259.56 123 259.56C124.747 259.56 126.253 260.8 126.593 262.513L126.793 263.513L127.813 263.587C128.853 263.653 129.667 264.527 129.667 265.56C129.667 266.66 128.767 267.56 127.667 267.56ZM120.333 264.227H122.033V266.227H123.967V264.227H125.667L123 261.56L120.333 264.227Z" fill="#637381"/>
</g>
<defs>
<filter id="filter0_dd_4157_17273" x="186" y="345.56" width="236" height="102" filterUnits="userSpaceOnUse" color-interpolation-filters="sRGB">
<feFlood flood-opacity="0" result="BackgroundImageFix"/>
<feColorMatrix in="SourceAlpha" type="matrix" values="0 0 0 0 0 0 0 0 0 0 0 0 0 0 0 0 0 0 127 0" result="hardAlpha"/>
<feMorphology radius="4" operator="erode" in="SourceAlpha" result="effect1_dropShadow_4157_17273"/>
<feOffset dy="12"/>
<feGaussianBlur stdDeviation="12"/>
<feColorMatrix type="matrix" values="0 0 0 0 0.568627 0 0 0 0 0.619608 0 0 0 0 0.670588 0 0 0 0.12 0"/>
<feBlend mode="normal" in2="BackgroundImageFix" result="effect1_dropShadow_4157_17273"/>
<feColorMatrix in="SourceAlpha" type="matrix" values="0 0 0 0 0 0 0 0 0 0 0 0 0 0 0 0 0 0 127 0" result="hardAlpha"/>
<feOffset/>
<feGaussianBlur stdDeviation="1"/>
<feComposite in2="hardAlpha" operator="out"/>
<feColorMatrix type="matrix" values="0 0 0 0 0.568627 0 0 0 0 0.619608 0 0 0 0 0.670588 0 0 0 0.2 0"/>
<feBlend mode="normal" in2="effect1_dropShadow_4157_17273" result="effect2_dropShadow_4157_17273"/>
<feBlend mode="normal" in="SourceGraphic" in2="effect2_dropShadow_4157_17273" result="shape"/>
</filter>
<filter id="filter1_dd_4157_17273" x="197" y="263.56" width="213" height="102" filterUnits="userSpaceOnUse" color-interpolation-filters="sRGB">
<feFlood flood-opacity="0" result="BackgroundImageFix"/>
<feColorMatrix in="SourceAlpha" type="matrix" values="0 0 0 0 0 0 0 0 0 0 0 0 0 0 0 0 0 0 127 0" result="hardAlpha"/>
<feMorphology radius="4" operator="erode" in="SourceAlpha" result="effect1_dropShadow_4157_17273"/>
<feOffset dy="12"/>
<feGaussianBlur stdDeviation="12"/>
<feColorMatrix type="matrix" values="0 0 0 0 0.568627 0 0 0 0 0.619608 0 0 0 0 0.670588 0 0 0 0.12 0"/>
<feBlend mode="normal" in2="BackgroundImageFix" result="effect1_dropShadow_4157_17273"/>
<feColorMatrix in="SourceAlpha" type="matrix" values="0 0 0 0 0 0 0 0 0 0 0 0 0 0 0 0 0 0 127 0" result="hardAlpha"/>
<feOffset/>
<feGaussianBlur stdDeviation="1"/>
<feComposite in2="hardAlpha" operator="out"/>
<feColorMatrix type="matrix" values="0 0 0 0 0.568627 0 0 0 0 0.619608 0 0 0 0 0.670588 0 0 0 0.2 0"/>
<feBlend mode="normal" in2="effect1_dropShadow_4157_17273" result="effect2_dropShadow_4157_17273"/>
<feBlend mode="normal" in="SourceGraphic" in2="effect2_dropShadow_4157_17273" result="shape"/>
</filter>
<filter id="filter2_dd_4157_17273" x="163" y="17.5601" width="281" height="102" filterUnits="userSpaceOnUse" color-interpolation-filters="sRGB">
<feFlood flood-opacity="0" result="BackgroundImageFix"/>
<feColorMatrix in="SourceAlpha" type="matrix" values="0 0 0 0 0 0 0 0 0 0 0 0 0 0 0 0 0 0 127 0" result="hardAlpha"/>
<feMorphology radius="4" operator="erode" in="SourceAlpha" result="effect1_dropShadow_4157_17273"/>
<feOffset dy="12"/>
<feGaussianBlur stdDeviation="12"/>
<feColorMatrix type="matrix" values="0 0 0 0 0.568627 0 0 0 0 0.619608 0 0 0 0 0.670588 0 0 0 0.12 0"/>
<feBlend mode="normal" in2="BackgroundImageFix" result="effect1_dropShadow_4157_17273"/>
<feColorMatrix in="SourceAlpha" type="matrix" values="0 0 0 0 0 0 0 0 0 0 0 0 0 0 0 0 0 0 127 0" result="hardAlpha"/>
<feOffset/>
<feGaussianBlur stdDeviation="1"/>
<feComposite in2="hardAlpha" operator="out"/>
<feColorMatrix type="matrix" values="0 0 0 0 0.568627 0 0 0 0 0.619608 0 0 0 0 0.670588 0 0 0 0.2 0"/>
<feBlend mode="normal" in2="effect1_dropShadow_4157_17273" result="effect2_dropShadow_4157_17273"/>
<feBlend mode="normal" in="SourceGraphic" in2="effect2_dropShadow_4157_17273" result="shape"/>
</filter>
<filter id="filter3_dd_4157_17273" x="177" y="181.56" width="254" height="102" filterUnits="userSpaceOnUse" color-interpolation-filters="sRGB">
<feFlood flood-opacity="0" result="BackgroundImageFix"/>
<feColorMatrix in="SourceAlpha" type="matrix" values="0 0 0 0 0 0 0 0 0 0 0 0 0 0 0 0 0 0 127 0" result="hardAlpha"/>
<feMorphology radius="4" operator="erode" in="SourceAlpha" result="effect1_dropShadow_4157_17273"/>
<feOffset dy="12"/>
<feGaussianBlur stdDeviation="12"/>
<feColorMatrix type="matrix" values="0 0 0 0 0.568627 0 0 0 0 0.619608 0 0 0 0 0.670588 0 0 0 0.12 0"/>
<feBlend mode="normal" in2="BackgroundImageFix" result="effect1_dropShadow_4157_17273"/>
<feColorMatrix in="SourceAlpha" type="matrix" values="0 0 0 0 0 0 0 0 0 0 0 0 0 0 0 0 0 0 127 0" result="hardAlpha"/>
<feOffset/>
<feGaussianBlur stdDeviation="1"/>
<feComposite in2="hardAlpha" operator="out"/>
<feColorMatrix type="matrix" values="0 0 0 0 0.568627 0 0 0 0 0.619608 0 0 0 0 0.670588 0 0 0 0.2 0"/>
<feBlend mode="normal" in2="effect1_dropShadow_4157_17273" result="effect2_dropShadow_4157_17273"/>
<feBlend mode="normal" in="SourceGraphic" in2="effect2_dropShadow_4157_17273" result="shape"/>
</filter>
<filter id="filter4_dd_4157_17273" x="115" y="99.5601" width="377" height="102" filterUnits="userSpaceOnUse" color-interpolation-filters="sRGB">
<feFlood flood-opacity="0" result="BackgroundImageFix"/>
<feColorMatrix in="SourceAlpha" type="matrix" values="0 0 0 0 0 0 0 0 0 0 0 0 0 0 0 0 0 0 127 0" result="hardAlpha"/>
<feMorphology radius="4" operator="erode" in="SourceAlpha" result="effect1_dropShadow_4157_17273"/>
<feOffset dy="12"/>
<feGaussianBlur stdDeviation="12"/>
<feColorMatrix type="matrix" values="0 0 0 0 0.568627 0 0 0 0 0.619608 0 0 0 0 0.670588 0 0 0 0.12 0"/>
<feBlend mode="normal" in2="BackgroundImageFix" result="effect1_dropShadow_4157_17273"/>
<feColorMatrix in="SourceAlpha" type="matrix" values="0 0 0 0 0 0 0 0 0 0 0 0 0 0 0 0 0 0 127 0" result="hardAlpha"/>
<feOffset/>
<feGaussianBlur stdDeviation="1"/>
<feComposite in2="hardAlpha" operator="out"/>
<feColorMatrix type="matrix" values="0 0 0 0 0.568627 0 0 0 0 0.619608 0 0 0 0 0.670588 0 0 0 0.2 0"/>
<feBlend mode="normal" in2="effect1_dropShadow_4157_17273" result="effect2_dropShadow_4157_17273"/>
<feBlend mode="normal" in="SourceGraphic" in2="effect2_dropShadow_4157_17273" result="shape"/>
</filter>
<clipPath id="clip0_4157_17273">
<rect y="0.560059" width="608" height="384" rx="24" fill="white"/>
</clipPath>
<clipPath id="clip1_4157_17273">
<rect x="206" y="353.56" width="196" height="62" rx="16" fill="white"/>
</clipPath>
<clipPath id="clip2_4157_17273">
<rect x="217" y="271.56" width="173" height="62" rx="16" fill="white"/>
</clipPath>
<clipPath id="clip3_4157_17273">
<rect x="183" y="25.5601" width="241" height="62" rx="16" fill="white"/>
</clipPath>
<clipPath id="clip4_4157_17273">
<rect x="197" y="189.56" width="214" height="62" rx="16" fill="white"/>
</clipPath>
<clipPath id="clip5_4157_17273">
<rect x="135" y="107.56" width="337" height="62" rx="16" fill="white"/>
</clipPath>
</defs>
</svg>
