<svg width="102" height="48" viewBox="0 0 102 48" fill="none" xmlns="http://www.w3.org/2000/svg">
<ellipse cx="18" cy="23.9947" rx="18" ry="17.9947" fill="white"/>
<path d="M35.9775 23.0728C35.4957 13.5642 27.6321 6 17.9988 6C17.6236 6 17.2531 6.01538 16.8837 6.03905C16.8683 6.03905 16.8565 6.0426 16.8411 6.0426C16.5014 6.0639 16.1652 6.09467 15.8326 6.13609C15.7805 6.13964 15.7331 6.14792 15.681 6.15384C15.3721 6.19644 15.0691 6.24141 14.766 6.29585C14.7175 6.30177 14.6725 6.3136 14.624 6.31952C13.5906 6.51596 12.582 6.80116 11.6149 7.16801C11.5604 7.18931 11.506 7.21298 11.448 7.23191C11.1899 7.33487 10.939 7.44137 10.6868 7.55261C10.6146 7.58338 10.5448 7.61651 10.4714 7.64965C10.2287 7.76207 9.98369 7.88041 9.74694 8.00348C9.68657 8.03425 9.6262 8.06384 9.56465 8.09697C8.97396 8.40939 8.39747 8.75731 7.8494 9.13244C7.79495 9.16913 7.74286 9.20818 7.68605 9.24723C7.47415 9.39515 7.26818 9.54663 7.05866 9.7052C6.97698 9.76911 6.90122 9.82946 6.82191 9.89336C6.63962 10.0354 6.46442 10.1809 6.28804 10.33C6.20873 10.3999 6.13297 10.4661 6.0513 10.5359C5.87255 10.6993 5.69381 10.8626 5.51743 11.033C5.45706 11.0874 5.39669 11.1478 5.33513 11.2057C5.10193 11.4365 4.87465 11.672 4.6533 11.9146C4.64146 11.9323 4.62607 11.9513 4.61068 11.9631C4.40708 12.1903 4.21413 12.4211 4.02236 12.6507C3.96199 12.73 3.90162 12.8081 3.84006 12.8838C3.69801 13.066 3.55833 13.2471 3.4222 13.4317C3.39498 13.4743 3.36183 13.5169 3.33105 13.5595C3.33105 13.5595 3.3346 13.5595 3.3346 13.5631C1.23938 16.5062 0 20.1072 0 24.0006C0 27.894 1.23938 31.4915 3.33934 34.4369L3.33579 34.4405C3.39971 34.5316 3.46955 34.6156 3.53584 34.7067C3.65066 34.8582 3.76667 35.0132 3.88386 35.1612C3.9833 35.2949 4.09338 35.4192 4.19874 35.5434C4.31356 35.6854 4.43193 35.8251 4.55268 35.9611C4.6675 36.0949 4.78943 36.2191 4.90662 36.3434C5.02499 36.4736 5.14336 36.5978 5.26766 36.7185C5.39787 36.8522 5.53163 36.9765 5.66776 37.1031C5.78614 37.2155 5.90451 37.3268 6.02289 37.4333C6.17085 37.567 6.32237 37.6913 6.47389 37.8155C6.58871 37.9126 6.70472 38.012 6.81954 38.1066C6.98645 38.2344 7.15573 38.3575 7.32264 38.4889C7.40195 38.5433 7.47415 38.6072 7.55583 38.6616C7.55583 38.6616 7.55583 38.6581 7.55938 38.6581C10.5022 40.761 14.1019 42 17.9988 42C21.8957 42 25.4919 40.761 28.4406 38.6581V38.6616C28.4678 38.6439 28.4927 38.6226 28.5164 38.6013C28.7472 38.4404 28.9674 38.2676 29.1887 38.096C29.2314 38.0629 29.274 38.0297 29.3166 37.9966C29.841 37.5729 30.3382 37.1209 30.8105 36.6451C30.8472 36.6061 30.8862 36.5635 30.9253 36.5244C31.1135 36.3339 31.2946 36.1304 31.4769 35.928C31.5373 35.8617 31.5953 35.7943 31.6557 35.7245C31.8107 35.5399 31.9646 35.3552 32.1138 35.1635C32.1718 35.0914 32.2321 35.0156 32.289 34.9422C32.4464 34.7363 32.5956 34.5328 32.7471 34.321C32.7861 34.2606 32.8288 34.2026 32.8714 34.1423C33.0596 33.8665 33.2383 33.5908 33.4135 33.3056C33.423 33.2843 33.4348 33.263 33.4467 33.2417C33.6041 32.9837 33.7497 32.721 33.8918 32.4571C33.9367 32.366 33.9829 32.2749 34.0279 32.1909C34.1309 31.9849 34.2315 31.779 34.3309 31.5696C34.3795 31.4666 34.428 31.3637 34.473 31.2572C34.5606 31.0536 34.6482 30.8477 34.7275 30.6394C34.7701 30.5365 34.8127 30.4335 34.8518 30.3306C34.9453 30.088 35.0305 29.8371 35.1122 29.585C35.1299 29.5211 35.1548 29.4572 35.1761 29.3909C35.2791 29.0762 35.3667 28.7578 35.4484 28.4336C35.4697 28.3484 35.4851 28.2644 35.5064 28.1792C35.5667 27.9366 35.6188 27.6975 35.6674 27.449C35.6887 27.3366 35.71 27.2182 35.7313 27.1011C35.768 26.8798 35.8035 26.6585 35.8307 26.4372C35.8485 26.3129 35.8639 26.1922 35.8793 26.068C35.9065 25.8349 35.9278 25.6017 35.9455 25.365C35.9515 25.2585 35.9633 25.1473 35.9692 25.0408C35.987 24.6952 36 24.3473 36 24.0018C36 23.6929 35.9941 23.384 35.9763 23.0752L35.9775 23.0728ZM9.37525 20.4043C9.13258 20.5285 8.90885 20.6409 8.90885 20.6409C9.07221 19.6256 9.6842 18.7238 10.6028 18.26C11.2598 17.9262 12.0635 17.7262 12.9028 17.7262C13.8628 17.7262 14.7542 17.9925 15.4692 18.4836C15.8172 18.6954 16.106 18.9416 16.3203 19.2043C16.4718 19.3712 16.6292 19.5925 16.7807 19.8433L17.2862 20.719L16.3771 20.2765C15.7284 19.964 15.017 19.8007 14.3079 19.8007C12.1712 19.8007 10.4418 21.1853 10.0263 23.39L9.92687 23.9592C9.92687 23.9592 8.80231 22.532 9.96357 20.1214C9.88426 20.1522 9.62146 20.2824 9.37525 20.4031V20.4043ZM23.7471 32.0583L22.7563 31.4157C22.7468 31.4063 22.735 31.4004 22.7231 31.3921L22.1751 31.0347L21.608 30.6678L20.1663 29.7282C19.2477 29.1223 18.6878 28.0679 18.6878 26.9236V26.2088C19.1305 26.0124 19.4335 25.636 19.4335 25.2006C19.4335 24.7887 19.1672 24.4278 18.7671 24.2254C18.7339 24.2101 18.7031 24.1947 18.67 24.1828C18.4735 24.0976 18.2427 24.0467 18 24.0467C17.7573 24.0467 17.5277 24.0988 17.33 24.1828C17.2969 24.1947 17.2661 24.2101 17.2365 24.2254C16.834 24.429 16.5665 24.7887 16.5665 25.2006C16.5665 25.6372 16.8695 26.0124 17.3122 26.2088V26.9236C17.3122 28.0691 16.7512 29.1223 15.8337 29.7282L14.3943 30.6678L13.8273 31.0347L13.2757 31.3921C13.2638 31.4015 13.2544 31.4074 13.2425 31.4157L12.2517 32.0583L11.9452 28.1389C11.9274 27.1934 12.1144 26.3094 12.4932 25.5307C12.4932 25.5248 12.4968 25.5213 12.4968 25.5213C12.833 24.8302 13.3183 24.2219 13.954 23.7249C15.217 22.7284 16.7085 22.5675 17.9988 22.8764C19.2891 22.5675 20.7806 22.7284 22.0437 23.7249C22.677 24.2219 23.1647 24.8302 23.5009 25.5213C23.5009 25.5213 23.5044 25.5248 23.5044 25.5307C23.8832 26.3094 24.0714 27.1934 24.056 28.1389L23.7471 32.0583ZM21.6874 19.8019C20.9818 19.8019 20.2657 19.9652 19.6205 20.2776L18.7079 20.7202L19.2204 19.8445C19.366 19.5936 19.527 19.3723 19.6809 19.2055C19.8928 18.9416 20.184 18.6966 20.5297 18.4848C21.2423 17.9937 22.136 17.7274 23.096 17.7274C23.9353 17.7274 24.7379 17.9274 25.396 18.2611C26.3111 18.725 26.9266 19.6268 27.0864 20.6421C27.0864 20.6421 26.8651 20.5297 26.6224 20.4054C26.3797 20.2847 26.1169 20.1546 26.0341 20.1238C27.1918 22.5356 26.0708 23.9615 26.0708 23.9615L25.9713 23.3923C25.5535 21.1865 23.8264 19.8031 21.6862 19.8031L21.6874 19.8019ZM26.8591 36.4014C24.6739 32.6334 26.8591 28.8194 26.8591 28.8194L27.7564 30.7246C29.4409 28.6016 31.0318 25.3627 30.3263 21.1131C29.9629 18.9262 28.8384 17.0482 26.9775 15.5299C25.75 14.524 24.3022 14.0151 22.6746 14.0151C20.9049 14.0151 19.2867 14.6033 18.2261 15.0447L17.9988 15.1382L17.7715 15.0447C16.7109 14.6021 15.0927 14.0151 13.3207 14.0151C11.6966 14.0151 10.2512 14.524 9.01776 15.5299C7.16046 17.047 6.03354 18.9262 5.6725 21.1131C4.96699 25.3627 6.55675 28.6016 8.2424 30.7246L9.13613 28.8194C9.13613 28.8194 11.3213 32.6334 9.13613 36.4014C5.25464 33.6322 2.72379 29.0915 2.72379 23.9604C2.72379 15.5239 9.55991 8.68394 17.9988 8.68394C26.4377 8.68394 33.2774 15.5239 33.2774 23.9604C33.2774 29.0915 30.7442 33.6334 26.8591 36.4014Z" fill="#0C0C0C"/>
<path d="M48.5254 17.0394C48.2298 16.1565 47.4028 15.5625 46.4717 15.5625C45.5407 15.5625 44.7166 16.1565 44.421 17.0394L39.375 32.1139H41.9505L43.2088 28.3542H49.725L50.993 32.1139H53.5714L48.5254 17.0394ZM43.9945 26.005L46.4544 18.6588L48.9317 26.005H43.9935H43.9945Z" fill="#0C0C0C"/>
<path d="M65.6679 22.4879C65.2192 21.4943 64.5665 20.6952 63.7288 20.1175C62.8806 19.5369 61.8658 19.2413 60.7057 19.2413C59.5455 19.2413 58.5201 19.5369 57.7037 20.1175C57.5159 20.2532 57.3388 20.3986 57.1684 20.5623V19.5793H54.9058V37.4651H57.3908V31.3176C57.4919 31.4014 57.592 31.4842 57.6969 31.5574C58.5105 32.1485 59.5176 32.447 60.696 32.447C61.8745 32.447 62.8854 32.1514 63.7298 31.568C64.5703 30.9874 65.2241 30.1844 65.6689 29.1841C66.1137 28.1934 66.3399 27.0679 66.3399 25.8345C66.3399 24.6012 66.1137 23.4747 65.6689 22.4879H65.6679ZM63.3678 28.0624C63.1242 28.7056 62.7564 29.2197 62.2692 29.5914C61.7936 29.9563 61.1784 30.144 60.4486 30.144C59.7188 30.144 59.0728 29.963 58.6 29.6058C58.1206 29.2476 57.7595 28.7402 57.5265 28.101C57.2906 27.4443 57.1684 26.6799 57.1684 25.8355C57.1684 24.9911 57.2897 24.2199 57.5333 23.5662C57.7663 22.9308 58.1273 22.4301 58.6 22.0758C59.066 21.7282 59.6707 21.5511 60.3928 21.5511C61.1534 21.5511 61.783 21.735 62.2654 22.1037C62.7516 22.4754 63.1232 22.9866 63.3668 23.622C63.6172 24.2758 63.7423 25.0229 63.7423 25.8355C63.7423 26.6481 63.6172 27.4058 63.3668 28.0634L63.3678 28.0624Z" fill="#0C0C0C"/>
<path d="M72.8532 32.4364C71.3744 32.4364 70.141 32.1052 69.185 31.4515C68.2155 30.7881 67.6118 29.8475 67.3932 28.6565L67.348 28.4119L69.8445 28.0143L69.8984 28.2309C70.0477 28.8288 70.3827 29.291 70.9219 29.6424C71.4658 29.9977 72.1571 30.1777 72.9755 30.1777C73.7371 30.1777 74.3407 30.0208 74.7682 29.7107C75.1774 29.4142 75.3758 29.0233 75.3758 28.513C75.3758 28.2329 75.3132 28.0056 75.189 27.8371C75.1014 27.7187 74.8818 27.5329 74.333 27.323C73.8536 27.1401 73.1199 26.9138 72.1523 26.65C71.0807 26.365 70.221 26.0656 69.598 25.7585C68.951 25.4388 68.4793 25.0556 68.1962 24.6185C67.9112 24.1785 67.7668 23.6384 67.7668 23.0136C67.7668 22.2578 67.9776 21.5857 68.3936 21.0177C68.8047 20.4564 69.3853 20.0145 70.1179 19.7044C70.84 19.3992 71.6883 19.2442 72.6385 19.2442C73.5888 19.2442 74.4361 19.3963 75.1832 19.6967C75.939 20 76.5581 20.439 77.025 20.9994C77.4958 21.5655 77.7789 22.2337 77.8665 22.9847L77.8925 23.2109L75.3912 23.6644L75.3536 23.417C75.266 22.8403 74.9926 22.3954 74.516 22.0565C74.0307 21.7109 73.3962 21.526 72.6318 21.5049C72.5808 21.5029 72.5297 21.5029 72.4806 21.5029C71.8211 21.5029 71.2781 21.6339 70.866 21.8919C70.4511 22.1519 70.2498 22.4859 70.2498 22.9125C70.2498 23.1503 70.3192 23.3438 70.4617 23.5036C70.5685 23.623 70.814 23.8107 71.3811 24.0235C71.8644 24.2055 72.5817 24.4163 73.5137 24.6513C74.5891 24.9218 75.4528 25.2232 76.0815 25.5467C76.7323 25.8827 77.206 26.288 77.4891 26.7521C77.7721 27.2171 77.9146 27.79 77.9146 28.4572C77.9146 29.6905 77.4515 30.6774 76.5378 31.3879C75.6434 32.084 74.4033 32.4374 72.8523 32.4374L72.8532 32.4364Z" fill="#0C0C0C"/>
<path d="M90.6851 22.4359C90.2056 21.449 89.4999 20.6605 88.593 20.0934C87.6899 19.5302 86.5981 19.2423 85.3541 19.2423C84.1102 19.2423 83.0637 19.5234 82.1567 20.0761C81.2536 20.6287 80.5411 21.4144 80.0472 22.408C79.5572 23.391 79.3107 24.5454 79.3107 25.8345C79.3107 27.1237 79.5543 28.2637 80.0366 29.2505C80.5228 30.2412 81.2247 31.0298 82.1288 31.5959C83.029 32.1591 84.1169 32.447 85.3532 32.447C86.5894 32.447 87.6783 32.162 88.5814 31.6026C89.4884 31.0394 90.1941 30.2547 90.6803 29.2602C91.1636 28.2733 91.4062 27.1228 91.4062 25.8336C91.4062 24.5444 91.1627 23.415 90.6832 22.4349L90.6851 22.4359ZM87.9402 28.9241C87.3702 29.6992 86.5259 30.0747 85.3551 30.0747C84.1843 30.0747 83.3746 29.7059 82.7902 28.9453C82.2029 28.1741 81.9044 27.1276 81.9044 25.8355C81.9044 24.995 82.0335 24.244 82.2905 23.6047C82.537 22.9827 82.9192 22.4927 83.4199 22.1413C83.9167 21.7937 84.5704 21.6165 85.3551 21.6165C86.5191 21.6165 87.3635 21.9814 87.9373 22.7353C88.5208 23.4998 88.8163 24.5425 88.8163 25.8355C88.8163 27.1285 88.5208 28.1395 87.9402 28.9251V28.9241Z" fill="#0C0C0C"/>
</svg>
