<svg width="142" height="80" viewBox="0 0 142 80" fill="none" xmlns="http://www.w3.org/2000/svg">
<rect x="10.8114" y="0.724121" width="133.25" height="52" rx="8" transform="rotate(12 10.8114 0.724121)" fill="black"/>
<ellipse cx="38.6638" cy="33.2198" rx="18" ry="17.9947" transform="rotate(12 38.6638 33.2198)" fill="white"/>
<path d="M56.4401 36.0559C57.9458 26.6549 51.8268 17.621 42.404 15.6181C42.0369 15.5401 41.6713 15.4781 41.3051 15.4245C41.2901 15.4213 41.2778 15.4223 41.2627 15.4191C40.926 15.3693 40.5907 15.3295 40.2568 15.3009C40.2051 15.2935 40.157 15.2918 40.1049 15.2867C39.7938 15.2642 39.488 15.2451 39.1803 15.2354C39.1316 15.2311 39.0851 15.2333 39.0364 15.229C37.9848 15.2063 36.939 15.2756 35.9167 15.4333C35.859 15.4428 35.8008 15.4547 35.7401 15.4611C35.4663 15.5082 35.1987 15.5602 34.929 15.6166C34.8519 15.6317 34.7767 15.6496 34.698 15.6667C34.4373 15.7262 34.173 15.791 33.9159 15.8622C33.8504 15.8797 33.7852 15.8961 33.7181 15.9157C33.0754 16.0985 32.4392 16.319 31.8251 16.5719C31.7642 16.5965 31.7051 16.6239 31.6414 16.6503C31.4034 16.7509 31.1704 16.8562 30.9325 16.9678C30.8393 17.0133 30.7527 17.0566 30.6618 17.1026C30.454 17.2036 30.2524 17.3096 30.0488 17.4187C29.9567 17.4706 29.8689 17.5196 29.7744 17.5709C29.5657 17.6935 29.3569 17.8161 29.1489 17.9461C29.0785 17.9868 29.0069 18.0333 28.9347 18.0772C28.6586 18.2544 28.3873 18.4375 28.1204 18.6288C28.1051 18.6437 28.0861 18.659 28.0686 18.6674C27.8222 18.8473 27.5855 19.0329 27.3502 19.2176C27.2746 19.2826 27.1993 19.3465 27.1234 19.4077C26.9466 19.5565 26.7723 19.7045 26.6007 19.8568C26.5653 19.8928 26.524 19.9276 26.485 19.9629C26.485 19.9629 26.4885 19.9636 26.4877 19.9671C23.8264 22.4102 21.8654 25.6749 21.0559 29.4832C20.2465 33.2915 20.7108 37.0681 22.1525 40.3858L22.1482 40.3885C22.1918 40.4909 22.2427 40.5876 22.2886 40.6906C22.3694 40.8626 22.4506 41.0383 22.5345 41.2074C22.604 41.3589 22.6858 41.5033 22.763 41.6468C22.8458 41.8095 22.9326 41.9707 23.0224 42.129C23.1069 42.2836 23.2003 42.4305 23.2891 42.5764C23.3778 42.7284 23.4678 42.8745 23.5643 43.0184C23.6638 43.1763 23.7688 43.3257 23.8757 43.4778C23.9681 43.6124 24.0607 43.7458 24.1544 43.8746C24.2713 44.0362 24.3937 44.1892 24.5161 44.3423C24.6082 44.461 24.701 44.5824 24.7936 44.6989C24.9303 44.8586 25.0703 45.0142 25.2063 45.1774C25.2725 45.2471 25.3299 45.3246 25.3984 45.3948C25.3984 45.3948 25.3992 45.3914 25.4027 45.3921C27.8439 48.0609 31.1074 50.0212 34.9191 50.8315C38.7309 51.6417 42.5061 51.1774 45.8276 49.7336L45.8268 49.737C45.8572 49.7253 45.8859 49.7097 45.9135 49.6937C46.1727 49.5843 46.424 49.4611 46.6762 49.3393C46.7248 49.3157 46.7734 49.2922 46.8219 49.2686C47.423 48.9632 48.0033 48.6244 48.5642 48.2573C48.6082 48.2267 48.6552 48.1932 48.7016 48.1631C48.9253 48.0159 49.1448 47.8544 49.3651 47.6944C49.438 47.6421 49.5087 47.5882 49.5823 47.5325C49.7724 47.3841 49.9613 47.2356 50.147 47.0791C50.2188 47.0205 50.2936 46.959 50.3644 46.899C50.5612 46.7303 50.7494 46.5623 50.9417 46.3866C50.9924 46.3356 51.0462 46.2878 51.1004 46.2376C51.3418 46.007 51.574 45.7745 51.8047 45.532C51.8184 45.5131 51.8344 45.4947 51.8504 45.4763C52.058 45.2567 52.255 45.03 52.4489 44.8014C52.5118 44.7217 52.5759 44.6421 52.6374 44.5693C52.7809 44.3893 52.9221 44.2088 53.063 44.0246C53.1318 43.934 53.2007 43.8434 53.2669 43.7485C53.3949 43.5677 53.5233 43.3845 53.6442 43.1972C53.7073 43.1054 53.7704 43.0135 53.83 42.9209C53.9719 42.7031 54.1075 42.4754 54.2398 42.2458C54.2704 42.187 54.308 42.1297 54.3426 42.0693C54.5088 41.7828 54.6607 41.4896 54.808 41.1895C54.8466 41.1106 54.8791 41.0316 54.9176 40.9527C55.0271 40.7279 55.1278 40.5049 55.2269 40.2719C55.2711 40.1664 55.3166 40.0551 55.3618 39.9449C55.4437 39.7361 55.5244 39.527 55.5971 39.3162C55.6403 39.1983 55.6804 39.0835 55.7213 38.9651C55.7964 38.7428 55.8657 38.5192 55.9323 38.2913C55.9602 38.1884 55.9949 38.0821 56.0229 37.9791C56.1121 37.6448 56.1972 37.3072 56.269 36.9692C56.3332 36.6671 56.3916 36.3637 56.4385 36.0579L56.4401 36.0559ZM30.974 27.9147C30.7108 27.9858 30.4686 28.0492 30.4686 28.0492C30.8395 27.09 31.6256 26.3352 32.6206 26.0725C33.3326 25.8826 34.1603 25.8541 34.9813 26.0286C35.9203 26.2282 36.7368 26.674 37.3341 27.303C37.6305 27.5826 37.8618 27.8834 38.0168 28.1849C38.1303 28.3796 38.2383 28.6288 38.3343 28.9057L38.6467 29.8674L37.8494 29.2454C37.2799 28.805 36.6179 28.4973 35.9244 28.3499C33.8344 27.9057 31.8549 28.9004 30.9901 30.9705L30.7745 31.5066C30.7745 31.5066 29.9712 29.8768 31.6083 27.7604C31.5243 27.774 31.2402 27.8467 30.9743 27.9135L30.974 27.9147ZM42.6088 42.3021L41.7732 41.4676C41.7659 41.4564 41.7556 41.4481 41.7457 41.4376L41.2839 40.974L40.8056 40.4973L39.5907 39.2785C38.8181 38.4948 38.4897 37.3471 38.7276 36.2277L38.8762 35.5286C39.3501 35.4285 39.7247 35.1234 39.8153 34.6974C39.9009 34.2946 39.7154 33.8862 39.3661 33.605C39.3369 33.5831 39.31 33.5616 39.2801 33.5432C39.1056 33.419 38.8904 33.3212 38.653 33.2708C38.4156 33.2203 38.1802 33.2235 37.9693 33.2646C37.9345 33.2693 37.9012 33.2779 37.869 33.2868C37.433 33.4022 37.0965 33.6985 37.0109 34.1013C36.9201 34.5284 37.1385 34.9584 37.5307 35.2426L37.3821 35.9417C37.144 37.0622 36.3762 37.9758 35.3528 38.3777L33.7495 38.9975L33.1186 39.2384L32.5047 39.4733C32.4912 39.4801 32.4807 39.484 32.4674 39.4896L31.3646 39.9121L31.8796 36.0146C32.0589 35.0861 32.4256 34.2603 32.958 33.5774C32.9592 33.5716 32.9635 33.5689 32.9635 33.5689C33.436 32.9628 34.0372 32.4687 34.7623 32.1147C36.2049 31.4027 37.6973 31.5553 38.8952 32.1257C40.2215 32.0919 41.6469 32.5594 42.6752 33.7966C43.1913 34.4145 43.5419 35.1108 43.7271 35.8567C43.7271 35.8567 43.7298 35.861 43.7286 35.8667C43.9372 36.7072 43.9375 37.611 43.7259 38.5326L42.6088 42.3021ZM43.1423 29.8853C42.4522 29.7387 41.7178 29.7495 41.0218 29.921L40.037 30.1641L40.7204 29.4141C40.915 29.199 41.1185 29.016 41.3037 28.8848C41.5659 28.6707 41.9016 28.4916 42.2838 28.3563C43.0829 28.0241 44.0125 27.9495 44.9515 28.1491C45.7724 28.3236 46.5159 28.686 47.0903 29.1493C47.8889 29.7933 48.3035 30.8033 48.2487 31.8297C48.2487 31.8297 48.0556 31.6737 47.844 31.5017C47.6318 31.3332 47.4018 31.1512 47.3271 31.1039C47.9581 33.7037 46.5651 34.8654 46.5651 34.8654L46.5862 34.288C46.6361 32.0435 45.2344 30.3312 43.1409 29.8863L43.1423 29.8853ZM44.7499 47.1973C43.3958 43.0574 46.3262 39.781 46.3262 39.781L46.8078 41.8312C48.8968 40.1048 51.1264 37.2674 51.3199 32.964C51.4191 30.7493 50.7096 28.6785 49.2051 26.8065C48.2135 25.5674 46.9032 24.7687 45.3111 24.4303C43.5801 24.0623 41.875 24.3012 40.7458 24.5124L40.504 24.5566L40.3012 24.4179C39.3557 23.7645 37.8949 22.8539 36.1616 22.4855C34.573 22.1478 33.0534 22.345 31.6378 23.0725C29.5057 24.1703 28.0126 25.7742 27.2048 27.8382C25.6312 31.8482 26.5128 35.3469 27.7202 37.774L28.9905 36.0962C28.9905 36.0962 30.335 40.2812 27.4141 43.5125C24.1932 39.9969 22.6617 35.0292 23.7286 30.0102C25.4826 21.7581 33.5914 16.4889 41.8459 18.2434C50.1004 19.998 55.3685 28.1106 53.6145 36.3626C52.5477 41.3817 49.1255 45.2976 44.7499 47.1973Z" fill="#0C0C0C"/>
<path d="M69.9682 32.7631C69.8627 31.8381 69.1772 31.0851 68.2666 30.8915C67.3559 30.6979 66.4262 31.1077 65.9536 31.9098L57.8837 45.6057L60.4029 46.1412L62.4154 42.7253L68.7892 44.08L69.2478 48.0212L71.7698 48.5573L69.9682 32.7631ZM63.6723 40.5907L67.6058 33.9166L68.5016 41.6172L63.6714 40.5905L63.6723 40.5907Z" fill="white"/>
<path d="M85.6034 41.6566C85.3711 40.5914 84.8988 39.674 84.1995 38.9348C83.4906 38.1906 82.5594 37.6905 81.4246 37.4493C80.2898 37.2081 79.2254 37.284 78.306 37.6821C78.0942 37.7759 77.8907 37.8812 77.6899 38.0059L77.8943 37.0444L75.6812 36.574L71.9625 54.0689L74.3932 54.5856L75.6713 48.5725C75.7528 48.6754 75.8335 48.7772 75.921 48.8706C76.5938 49.618 77.5168 50.1193 78.6696 50.3644C79.8223 50.6094 80.8726 50.5304 81.8198 50.1353C82.7626 49.7422 83.569 49.0927 84.2121 48.2067C84.8532 47.3301 85.3085 46.2762 85.5649 45.0698C85.8213 43.8634 85.8342 42.7145 85.6043 41.6568L85.6034 41.6566ZM82.1945 46.6311C81.8225 47.2095 81.3559 47.636 80.8021 47.8982C80.261 48.1562 79.6202 48.212 78.9063 48.0602C78.1925 47.9085 77.5982 47.5971 77.2101 47.1495C76.8156 46.6994 76.5679 46.1281 76.4729 45.4543C76.3787 44.763 76.418 43.9898 76.5936 43.1639C76.7691 42.338 77.0481 41.6089 77.4223 41.02C77.7823 40.4469 78.2396 40.0323 78.7757 39.784C79.3037 39.5409 79.932 39.4933 80.6383 39.6435C81.3823 39.8016 81.96 40.1124 82.3551 40.5734C82.7534 41.038 83.0106 41.6153 83.1168 42.2875C83.2257 42.979 83.1928 43.7359 83.0239 44.5307C82.8549 45.3255 82.575 46.0407 82.1934 46.6318L82.1945 46.6311Z" fill="white"/>
<path d="M90.5633 52.8818C89.1167 52.5743 87.9792 51.9939 87.18 51.1557C86.3696 50.3052 85.9746 49.2596 86.0085 48.0492L86.0151 47.8006L88.5397 47.9307L88.5474 48.1538C88.5691 48.7697 88.8007 49.2914 89.255 49.7472C89.7133 50.2078 90.352 50.5277 91.1525 50.6978C91.8974 50.8562 92.5205 50.8282 93.0031 50.6138C93.465 50.4088 93.7403 50.0677 93.8464 49.5686C93.9046 49.2945 93.8907 49.0593 93.8042 48.8686C93.7431 48.7346 93.567 48.5072 93.0739 48.1878C92.6429 47.9092 91.9724 47.5353 91.0807 47.0761C90.0918 46.5745 89.3131 46.1029 88.7676 45.673C88.2012 45.2258 87.8194 44.7529 87.6334 44.2665C87.4462 43.7768 87.4172 43.2185 87.5471 42.6073C87.7043 41.868 88.0502 41.2545 88.5752 40.7854C89.094 40.3218 89.7538 40.0102 90.5349 39.8593C91.3047 39.7109 92.1666 39.7356 93.0961 39.9332C94.0256 40.1308 94.8227 40.4557 95.491 40.9049C96.1673 41.3587 96.6815 41.9169 97.0218 42.562C97.3646 43.2137 97.5026 43.9261 97.4321 44.6789L97.4105 44.9056L94.8695 44.8291L94.8843 44.5793C94.9185 43.9969 94.7435 43.505 94.3478 43.0744C93.945 42.6354 93.3628 42.3227 92.6195 42.1431C92.57 42.1306 92.52 42.12 92.472 42.1097C91.8269 41.9726 91.2685 41.9878 90.8118 42.1545C90.3519 42.3225 90.0856 42.6075 89.9969 43.0247C89.9475 43.2573 89.975 43.461 90.0812 43.6469C90.1609 43.7859 90.362 44.0206 90.8725 44.3467C91.3074 44.6251 91.9652 44.9805 92.8279 45.4041C93.8236 45.8923 94.6057 46.3666 95.1534 46.8138C95.7202 47.2778 96.0993 47.7727 96.2797 48.2855C96.4599 48.7992 96.4801 49.3892 96.3414 50.0418C96.085 51.2482 95.4268 52.1172 94.3854 52.6223C93.3657 53.1172 92.0793 53.205 90.5621 52.8825L90.5633 52.8818Z" fill="white"/>
<path d="M110.085 46.8073C109.821 45.7423 109.295 44.8243 108.525 44.081C107.759 43.3423 106.751 42.8337 105.534 42.5751C104.317 42.3165 103.235 42.3739 102.233 42.7259C101.235 43.0787 100.375 43.699 99.6851 44.5682C99.0013 45.4279 98.5202 46.5058 98.2522 47.7668C97.9842 49.0278 97.9854 50.1935 98.2521 51.2591C98.5217 52.3292 99.0443 53.2464 99.8109 53.9882C100.574 54.7262 101.579 55.234 102.788 55.4911C103.997 55.7481 105.121 55.6957 106.121 55.3363C107.125 54.974 107.979 54.3532 108.661 53.4814C109.339 52.6166 109.816 51.5417 110.084 50.2807C110.352 49.0196 110.348 47.8643 110.083 46.8059L110.085 46.8073ZM106.051 52.5831C105.332 53.2227 104.428 53.4144 103.283 53.171C102.138 52.9276 101.422 52.3985 101.009 51.533C100.595 50.6566 100.52 49.5708 100.789 48.307C100.964 47.4849 101.246 46.7771 101.631 46.2052C102.001 45.6481 102.477 45.2482 103.039 45.0086C103.598 44.7719 104.274 44.7345 105.041 44.8977C106.18 45.1397 106.93 45.6722 107.335 46.5289C107.746 47.3979 107.819 48.4793 107.55 49.7441C107.281 51.0088 106.782 51.9362 106.051 52.584L106.051 52.5831Z" fill="white"/>
</svg>
