<svg width="102" height="37" viewBox="0 0 102 37" fill="none" xmlns="http://www.w3.org/2000/svg">
<circle cx="18" cy="18.5244" r="18" fill="black"/>
<path d="M28.1608 14.3376C27.8754 14.1942 27.5636 14.0411 27.4675 14.0063C28.8319 16.8477 27.5093 18.528 27.5093 18.528L27.3924 17.857C26.9009 15.2578 24.8656 13.6262 22.3444 13.6262C21.5119 13.6262 20.671 13.8197 19.9095 14.1873L18.8347 14.7079L19.4389 13.6763C19.6088 13.3798 19.7995 13.1195 19.9819 12.9218C20.2311 12.6127 20.5735 12.3231 20.98 12.0739C21.8195 11.4948 22.872 11.1802 24.0038 11.1802C24.9937 11.1802 25.9389 11.4168 26.713 11.8094C27.7905 12.3552 28.5158 13.4188 28.7066 14.6146C28.7066 14.6146 28.4448 14.4824 28.1608 14.3362V14.3376Z" fill="white"/>
<path d="M36 18.5279C36 24.5769 33.0152 29.9297 28.4378 33.193C25.8636 28.7506 28.4378 24.2553 28.4378 24.2553L29.4958 26.5022C31.4796 23.9991 33.3535 20.1818 32.5224 15.1728C32.095 12.5945 30.7696 10.3809 28.577 8.59201C27.1319 7.40728 25.4265 6.80726 23.5081 6.80726C21.4226 6.80726 19.5154 7.50055 18.2666 8.02122L17.9993 8.13399L17.732 8.02122C16.4818 7.50055 14.576 6.80726 12.4877 6.80726C10.5735 6.80726 8.86948 7.40728 7.41746 8.59201C5.22897 10.3809 3.90085 12.5945 3.47624 15.1728C2.64372 20.1818 4.51758 23.9977 6.5042 26.5022L7.55667 24.2553C7.55667 24.2553 10.1308 28.7506 7.55667 33.193C2.98063 29.9297 0 24.5769 0 18.5279C0 8.58505 8.05507 0.524414 17.9979 0.524414C27.9408 0.524414 36 8.58505 36 18.5279Z" fill="white"/>
<path d="M17.1585 14.708L16.088 14.1873C15.3251 13.8198 14.4856 13.6263 13.6503 13.6263C11.1346 13.6263 9.09512 15.2579 8.60507 17.8571L8.48813 18.5281C8.48813 18.5281 7.16418 16.8478 8.53129 14.0063C8.43662 14.0411 8.12756 14.1943 7.83799 14.3377C7.5526 14.4839 7.28809 14.6161 7.28809 14.6161C7.4802 13.4202 8.20135 12.3566 9.28306 11.8109C10.0571 11.4183 11.0052 11.1816 11.9922 11.1816C13.124 11.1816 14.1737 11.4963 15.016 12.0754C15.4267 12.3246 15.7664 12.6142 16.0197 12.9232C16.1966 13.1209 16.3831 13.3813 16.5627 13.6778L17.1571 14.7094L17.1585 14.708Z" fill="white"/>
<path d="M25.1355 23.4518L24.7707 28.071L23.6041 27.3151C23.593 27.304 23.579 27.297 23.5637 27.2859L22.9178 26.864L22.2509 26.4311L20.5511 25.3243C19.4694 24.6115 18.8095 23.3683 18.8095 22.0193V21.177C19.3302 20.9459 19.6879 20.5018 19.6879 19.9881C19.6879 19.5009 19.3733 19.0763 18.9028 18.8382C18.8624 18.8201 18.8262 18.802 18.7872 18.7881C18.5561 18.6892 18.2846 18.6294 17.9992 18.6294C17.7138 18.6294 17.4424 18.6892 17.2099 18.7881C17.1695 18.802 17.1333 18.8201 17.0999 18.8382C16.6238 19.0777 16.3105 19.5023 16.3105 19.9881C16.3105 20.5018 16.6669 20.9446 17.1876 21.177V22.0193C17.1876 23.3683 16.5277 24.6115 15.446 25.3243L13.749 26.4311L13.0821 26.864L12.4334 27.2859C12.4194 27.297 12.4083 27.304 12.393 27.3151L11.2264 28.071L10.8658 23.4518C10.8435 22.3381 11.0649 21.2954 11.5118 20.3779C11.5118 20.371 11.5159 20.3668 11.5159 20.3668C11.9127 19.5524 12.4835 18.834 13.2325 18.2479C14.7207 17.0743 16.4776 16.8836 17.9992 17.2497C19.5209 16.885 21.2764 17.0743 22.766 18.2479C23.5136 18.834 24.0872 19.5524 24.4839 20.3668C24.4839 20.3668 24.4881 20.371 24.4881 20.3779C24.9336 21.2954 25.155 22.3367 25.1369 23.4518H25.1355Z" fill="white"/>
<path d="M48.5254 11.5638C48.2298 10.681 47.4028 10.0869 46.4717 10.0869C45.5407 10.0869 44.7166 10.681 44.421 11.5638L39.375 26.6383H41.9505L43.2088 22.8786H49.725L50.993 26.6383H53.5714L48.5254 11.5638ZM43.9945 20.5294L46.4544 13.1833L48.9317 20.5294H43.9935H43.9945Z" fill="white"/>
<path d="M65.6679 17.0122C65.2192 16.0186 64.5664 15.2194 63.7288 14.6418C62.8806 14.0612 61.8658 13.7656 60.7056 13.7656C59.5455 13.7656 58.5201 14.0612 57.7036 14.6418C57.5159 14.7775 57.3387 14.9229 57.1683 15.0866V14.1036H54.9058V31.9894H57.3907V25.8419C57.4918 25.9257 57.592 26.0085 57.6969 26.0817C58.5105 26.6728 59.5175 26.9713 60.696 26.9713C61.8745 26.9713 62.8854 26.6757 63.7298 26.0923C64.5703 25.5117 65.224 24.7087 65.6688 23.7084C66.1136 22.7177 66.3399 21.5922 66.3399 20.3588C66.3399 19.1255 66.1136 17.999 65.6688 17.0122H65.6679ZM63.3677 22.5867C63.1242 23.2299 62.7564 23.744 62.2692 24.1156C61.7936 24.4805 61.1784 24.6683 60.4486 24.6683C59.7188 24.6683 59.0727 24.4873 58.6 24.1301C58.1205 23.7719 57.7595 23.2645 57.5265 22.6252C57.2906 21.9686 57.1683 21.2042 57.1683 20.3598C57.1683 19.5154 57.2896 18.7442 57.5332 18.0905C57.7662 17.455 58.1273 16.9544 58.6 16.6001C59.066 16.2525 59.6706 16.0754 60.3927 16.0754C61.1533 16.0754 61.783 16.2593 62.2654 16.628C62.7516 16.9996 63.1232 17.5109 63.3668 18.1463C63.6171 18.8001 63.7423 19.5472 63.7423 20.3598C63.7423 21.1724 63.6171 21.9301 63.3668 22.5877L63.3677 22.5867Z" fill="white"/>
<path d="M72.8531 26.9607C71.3743 26.9607 70.141 26.6295 69.1849 25.9758C68.2154 25.3124 67.6117 24.3718 67.3931 23.1808L67.3479 22.9363L69.8444 22.5386L69.8983 22.7553C70.0476 23.3532 70.3826 23.8153 70.9218 24.1667C71.4658 24.522 72.1571 24.702 72.9754 24.702C73.737 24.702 74.3407 24.5451 74.7681 24.2351C75.1773 23.9385 75.3757 23.5476 75.3757 23.0374C75.3757 22.7572 75.3131 22.53 75.1889 22.3615C75.1013 22.2431 74.8818 22.0572 74.333 21.8474C73.8535 21.6644 73.1198 21.4382 72.1522 21.1744C71.0807 20.8894 70.2209 20.5899 69.5979 20.2828C68.9509 19.9632 68.4792 19.58 68.1961 19.1429C67.9111 18.7029 67.7667 18.1627 67.7667 17.5379C67.7667 16.7821 67.9776 16.1101 68.3935 15.542C68.8046 14.9807 69.3852 14.5388 70.1179 14.2288C70.84 13.9236 71.6882 13.7686 72.6384 13.7686C73.5887 13.7686 74.436 13.9207 75.1831 14.2211C75.9389 14.5243 76.558 14.9634 77.0249 15.5237C77.4957 16.0898 77.7788 16.758 77.8664 17.509L77.8924 17.7353L75.3911 18.1887L75.3535 17.9413C75.2659 17.3646 74.9925 16.9198 74.5159 16.5809C74.0306 16.2352 73.3962 16.0504 72.6317 16.0292C72.5807 16.0273 72.5297 16.0273 72.4805 16.0273C71.821 16.0273 71.278 16.1582 70.8659 16.4162C70.451 16.6762 70.2498 17.0103 70.2498 17.4368C70.2498 17.6746 70.3191 17.8681 70.4616 18.028C70.5684 18.1473 70.814 18.3351 71.381 18.5479C71.8644 18.7298 72.5816 18.9407 73.5136 19.1756C74.5891 19.4461 75.4527 19.7475 76.0814 20.071C76.7322 20.407 77.2059 20.8123 77.489 21.2764C77.7721 21.7414 77.9146 22.3143 77.9146 22.9815C77.9146 24.2149 77.4514 25.2017 76.5378 25.9123C75.6433 26.6084 74.4032 26.9617 72.8522 26.9617L72.8531 26.9607Z" fill="white"/>
<path d="M90.6852 16.9602C90.2058 15.9733 89.5 15.1848 88.5931 14.6177C87.69 14.0545 86.5982 13.7666 85.3542 13.7666C84.1103 13.7666 83.0638 14.0477 82.1568 14.6004C81.2537 15.153 80.5412 15.9387 80.0473 16.9323C79.5573 17.9153 79.3108 19.0697 79.3108 20.3588C79.3108 21.648 79.5544 22.788 80.0367 23.7748C80.5229 24.7655 81.2248 25.5541 82.1289 26.1202C83.0291 26.6834 84.1171 26.9713 85.3533 26.9713C86.5895 26.9713 87.6784 26.6863 88.5815 26.1269C89.4885 25.5637 90.1942 24.779 90.6804 23.7845C91.1637 22.7976 91.4064 21.6471 91.4064 20.3579C91.4064 19.0687 91.1628 17.9393 90.6833 16.9592L90.6852 16.9602ZM87.9403 23.4484C87.3703 24.2235 86.526 24.599 85.3552 24.599C84.1844 24.599 83.3747 24.2302 82.7903 23.4696C82.203 22.6984 81.9046 21.6519 81.9046 20.3598C81.9046 19.5193 82.0336 18.7683 82.2906 18.129C82.5371 17.5071 82.9193 17.017 83.42 16.6656C83.9168 16.318 84.5705 16.1408 85.3552 16.1408C86.5192 16.1408 87.3636 16.5057 87.9374 17.2596C88.5209 18.0241 88.8164 19.0668 88.8164 20.3598C88.8164 21.6528 88.5209 22.6638 87.9403 23.4494V23.4484Z" fill="white"/>
</svg>
